<svg width="41" height="35" viewBox="-5 -2 51 40" fill="none" xmlns="http://www.w3.org/2000/svg">
<path fill-rule="evenodd" clip-rule="evenodd" d="M34.5 0.625H4.5C2.4375 0.625 0.75 2.3125 0.75 4.375V30.625C0.75 32.6875 2.4375 34.375 4.5 34.375H34.5C36.5625 34.375 38.25 32.6875 38.25 30.625V4.375C38.25 2.3125 36.5625 0.625 34.5 0.625ZM15.75 26.875H6.375V23.125H15.75V26.875ZM15.75 19.375H6.375V15.625H15.75V19.375ZM15.75 11.875H6.375V8.125H15.75V11.875ZM24.7875 23.125L19.5 17.8L22.1437 15.1562L24.7875 17.8188L30.7312 11.875L33.3937 14.5375L24.7875 23.125Z" fill="white"/>
</svg>
