<svg xmlns="http://www.w3.org/2000/svg" width="20" height="20" viewBox="0 0 20 20">
    <g fill="none" fill-rule="evenodd">
        <path d="M0 0h20v20H0z"/>
        <path fill="#FE7A51" fill-rule="nonzero" d="M9.5 18a.835.835 0 0 1-.362-.325c-1.394-1.973-2.798-3.938-4.184-5.916a5.29 5.29 0 0 1-.927-2.565c-.234-2.4 1.064-4.709 3.264-5.661 2.136-.926 4.154-.644 5.96.837a5.331 5.331 0 0 1 1.94 3.6 5.503 5.503 0 0 1-1.025 3.96c-1.35 1.9-2.7 3.803-4.05 5.71a.879.879 0 0 1-.383.36H9.5zm1.987-9.354a1.872 1.872 0 1 0-1.904 1.865 1.881 1.881 0 0 0 1.904-1.865z"/>
    </g>
</svg>
