<svg width="28" height="37" viewBox="0 0 28 37" fill="none" xmlns="http://www.w3.org/2000/svg">
<path d="M23.9923 11L14.4574 0.40625L4.92247 11C2.29447 13.925 0.980469 17.825 0.980469 21.575C0.980469 25.325 2.29447 29.2812 4.92247 32.2062C7.55047 35.1312 11.0039 36.6125 14.4574 36.6125C17.9109 36.6125 21.3643 35.1312 23.9923 32.2062C26.6203 29.2812 27.9343 25.325 27.9343 21.575C27.9343 17.825 26.6203 13.925 23.9923 11ZM4.3497 22.25C4.36655 18.5 5.39416 16.1188 7.31462 14L14.4574 5.88125L21.6002 14.0937C23.5206 16.1937 24.5482 18.5 24.5651 22.25H4.3497Z" fill="white"/>
</svg>
