999
dxfrw 0.6.3
  0
SECTION
  2
HEADER
  9
$ACADVER
  1
AC1021
  9
$DWGCODEPAGE
  3
ANSI_1252
  9
$INSBASE
 10
0
 20
0
 30
0
  9
$EXTMIN
 10
0
 20
0
 30
0
  9
$EXTMAX
 10
0
 20
0
 30
0
  9
$LIMMIN
 10
0
 20
0
  9
$LIMMAX
 10
420
 20
297
  9
$ORTHOMODE
 70
    0
  9
$REGENMODE
 70
    1
  9
$FILLMODE
 70
    1
  9
$QTEXTMODE
 70
    0
  9
$MIRRTEXT
 70
    0
  9
$LTSCALE
 40
1
  9
$ATTMODE
 70
    0
  9
$TEXTSIZE
 40
2.5
  9
$TRACEWID
 40
15.68
  9
$TEXTSTYLE
  7
STANDARD
  9
$CLAYER
  8
ANGULAR_EDITED
  9
$CELTYPE
  6
BYLAYER
  9
$CECOLOR
 62
  256
  9
$CELTSCALE
 40
1
  9
$DISPSILH
 70
    0
  9
$DIMSCALE
 40
1
  9
$DIMASZ
 40
2.5
  9
$DIMEXO
 40
0.625
  9
$DIMDLI
 40
3.75
  9
$DIMRND
 40
0
  9
$DIMDLE
 40
0
  9
$DIMEXE
 40
1.25
  9
$DIMTP
 40
0
  9
$DIMTM
 40
0
  9
$DIMTXT
 40
2.5
  9
$DIMCEN
 40
2.5
  9
$DIMTSZ
 40
0
  9
$DIMTOL
 70
    0
  9
$DIMLIM
 70
    0
  9
$DIMTIH
 70
    0
  9
$DIMTOH
 70
    0
  9
$DIMSE1
 70
    0
  9
$DIMSE2
 70
    0
  9
$DIMTAD
 70
    1
  9
$DIMZIN
 70
    1
  9
$DIMBLK
  1

  9
$DIMASO
 70
    1
  9
$DIMSHO
 70
    1
  9
$DIMPOST
  1

  9
$DIMAPOST
  1

  9
$DIMALT
 70
    0
  9
$DIMALTD
 70
    3
  9
$DIMALTF
 40
0.03937
  9
$DIMLFAC
 40
1
  9
$DIMTOFL
 70
    1
  9
$DIMTVP
 40
0
  9
$DIMTIX
 70
    0
  9
$DIMSOXD
 70
    0
  9
$DIMSAH
 70
    0
  9
$DIMBLK1
  1

  9
$DIMBLK2
  1

  9
$DIMSTYLE
  2
STANDARD
  9
$DIMCLRD
 70
    0
  9
$DIMCLRE
 70
    0
  9
$DIMCLRT
 70
    0
  9
$DIMTFAC
 40
1
  9
$DIMGAP
 40
0.625
  9
$DIMJUST
 70
    0
  9
$DIMSD1
 70
    0
  9
$DIMSD2
 70
    0
  9
$DIMTOLJ
 70
    0
  9
$DIMTZIN
 70
    8
  9
$DIMALTZ
 70
    0
  9
$DIMALTTZ
 70
    0
  9
$DIMUPT
 70
    0
  9
$DIMDEC
 70
    4
  9
$DIMTDEC
 70
    2
  9
$DIMALTU
 70
    2
  9
$DIMALTTD
 70
    3
  9
$DIMTXSTY
  7
STANDARD
  9
$DIMAUNIT
 70
    0
  9
$DIMADEC
 70
    2
  9
$DIMALTRND
 40
0
  9
$DIMAZIN
 70
    0
  9
$DIMDSEP
 70
   44
  9
$DIMATFIT
 70
    3
  9
$DIMFRAC
 70
    0
  9
$DIMLDRBLK
  1
STANDARD
  9
$DIMLUNIT
 70
    2
  9
$DIMLWD
 70
   -2
  9
$DIMLWE
 70
   -2
  9
$DIMTMOVE
 70
    0
  9
$DIMFXL
 40
1
  9
$DIMFXLON
 70
    0
  9
$DIMJOGANG
 40
0.7854
  9
$DIMTFILL
 70
    0
  9
$DIMTFILLCLR
 70
    0
  9
$DIMARCSYM
 70
    0
  9
$DIMLTYPE
  6

  9
$DIMLTEX1
  6

  9
$DIMLTEX2
  6

  9
$LUNITS
 70
    2
  9
$LUPREC
 70
    4
  9
$SKETCHINC
 40
1
  9
$FILLETRAD
 40
0
  9
$AUNITS
 70
    0
  9
$AUPREC
 70
    2
  9
$MENU
  1
.
  9
$ELEVATION
 40
0
  9
$PELEVATION
 40
0
  9
$THICKNESS
 40
0
  9
$LIMCHECK
 70
    0
  9
$CHAMFERA
 40
0
  9
$CHAMFERB
 40
0
  9
$CHAMFERC
 40
0
  9
$CHAMFERD
 40
0
  9
$SKPOLY
 70
    0
  9
$USRTIMER
 70
    1
  9
$ANGBASE
 50
0
  9
$ANGDIR
 70
    0
  9
$PDMODE
 70
   34
  9
$PDSIZE
 40
0
  9
$PLINEWID
 40
0
  9
$SPLFRAME
 70
    0
  9
$SPLINETYPE
 70
    2
  9
$SPLINESEGS
 70
    8
  9
$HANDSEED
  5
20000
  9
$SURFTAB1
 70
    6
  9
$SURFTAB2
 70
    6
  9
$SURFTYPE
 70
    6
  9
$SURFU
 70
    6
  9
$SURFV
 70
    6
  9
$UCSBASE
  2

  9
$UCSNAME
  2

  9
$UCSORG
 10
0
 20
0
 30
0
  9
$UCSXDIR
 10
1
 20
0
 30
0
  9
$UCSYDIR
 10
0
 20
1
 30
0
  9
$UCSORTHOREF
  2

  9
$UCSORTHOVIEW
 70
    0
  9
$UCSORGTOP
 10
0
 20
0
 30
0
  9
$UCSORGBOTTOM
 10
0
 20
0
 30
0
  9
$UCSORGLEFT
 10
0
 20
0
 30
0
  9
$UCSORGRIGHT
 10
0
 20
0
 30
0
  9
$UCSORGFRONT
 10
0
 20
0
 30
0
  9
$UCSORGBACK
 10
0
 20
0
 30
0
  9
$PUCSBASE
  2

  9
$PUCSNAME
  2

  9
$PUCSORG
 10
0
 20
0
 30
0
  9
$PUCSXDIR
 10
1
 20
0
 30
0
  9
$PUCSYDIR
 10
0
 20
1
 30
0
  9
$PUCSORTHOREF
  2

  9
$PUCSORTHOVIEW
 70
    0
  9
$PUCSORGTOP
 10
0
 20
0
 30
0
  9
$PUCSORGBOTTOM
 10
0
 20
0
 30
0
  9
$PUCSORGLEFT
 10
0
 20
0
 30
0
  9
$PUCSORGRIGHT
 10
0
 20
0
 30
0
  9
$PUCSORGFRONT
 10
0
 20
0
 30
0
  9
$PUCSORGBACK
 10
0
 20
0
 30
0
  9
$USERI1
 70
    0
  9
$USERI2
 70
    0
  9
$USERI3
 70
    0
  9
$USERI4
 70
    0
  9
$USERI5
 70
    0
  9
$USERR1
 40
0
  9
$USERR2
 40
0
  9
$USERR3
 40
0
  9
$USERR4
 40
0
  9
$USERR5
 40
0
  9
$WORLDVIEW
 70
    1
  9
$SHADEDGE
 70
    3
  9
$SHADEDIF
 70
   70
  9
$TILEMODE
 70
    1
  9
$MAXACTVP
 70
   64
  9
$PINSBASE
 10
0
 20
0
 30
0
  9
$PLIMCHECK
 70
    0
  9
$PEXTMIN
 10
0
 20
0
 30
0
  9
$PEXTMAX
 10
0
 20
0
 30
0
  9
$GRIDMODE
 70
    1
  9
$SNAPSTYLE
 70
    0
  9
$GRIDUNIT
 10
0
 20
0
  9
$PLIMMIN
 10
0
 20
0
  9
$PLIMMAX
 10
0.21
 20
0.297
  9
$UNITMODE
 70
    0
  9
$VISRETAIN
 70
    1
  9
$PLINEGEN
 70
    0
  9
$PSLTSCALE
 70
    1
  9
$TREEDEPTH
 70
 3020
  9
$CMLSTYLE
  2
Standard
  9
$CMLJUST
 70
    0
  9
$CMLSCALE
 40
20
  9
$PROXYGRAPHICS
 70
    1
  9
$MEASUREMENT
 70
    1
  9
$CELWEIGHT
370
   -1
  9
$ENDCAPS
280
    0
  9
$JOINSTYLE
280
    0
  9
$LWDISPLAY
290
    0
  9
$INSUNITS
 70
    6
  9
$HYPERLINKBASE
  1

  9
$STYLESHEET
  1

  9
$XEDIT
290
    1
  9
$CEPSNTYPE
380
    0
  9
$PSTYLEMODE
290
    1
  9
$EXTNAMES
290
    1
  9
$PSVPSCALE
 40
1
  9
$OLESTARTUP
290
    0
  9
$SORTENTS
280
  127
  9
$INDEXCTL
280
    0
  9
$HIDETEXT
280
    1
  9
$XCLIPFRAME
290
    0
  9
$HALOGAP
280
    0
  9
$OBSCOLOR
 70
  257
  9
$OBSLTYPE
280
    0
  9
$INTERSECTIONDISPLAY
280
    0
  9
$INTERSECTIONCOLOR
 70
  257
  9
$DIMASSOC
280
    1
  9
$PROJECTNAME
  1

  9
$CAMERADISPLAY
290
    0
  9
$LENSLENGTH
 40
50
  9
$CAMERAHEIGHT
 40
0
  9
$STEPSPERSEC
 40
2
  9
$STEPSIZE
 40
50
  9
$3DDWFPREC
 40
2
  9
$PSOLWIDTH
 40
5
  9
$PSOLHEIGHT
 40
80
  9
$LOFTANG1
 40
1.570796326794897
  9
$LOFTANG2
 40
1.570796326794897
  9
$LOFTMAG1
 40
0
  9
$LOFTMAG2
 40
0
  9
$LOFTPARAM
 70
    7
  9
$LOFTNORMALS
280
    1
  9
$LATITUDE
 40
1
  9
$LONGITUDE
 40
1
  9
$NORTHDIRECTION
 40
0
  9
$TIMEZONE
 70
-8000
  9
$LIGHTGLYPHDISPLAY
280
    1
  9
$TILEMODELIGHTSYNCH
280
    1
  9
$SOLIDHIST
280
    1
  9
$SHOWHIST
280
    1
  9
$DWFFRAME
280
    2
  9
$DGNFRAME
280
    0
  9
$REALWORLDSCALE
290
    1
  9
$INTERFERECOLOR
 62
    1
  9
$CSHADOW
280
    0
  9
$SHADOWPLANELOCATION
 40
0
  0
ENDSEC
  0
SECTION
  2
CLASSES
  0
ENDSEC
  0
SECTION
  2
TABLES
  0
TABLE
  2
VPORT
  5
8
330
0
100
AcDbSymbolTable
 70
    1
  0
VPORT
  5
31
330
2
100
AcDbSymbolTableRecord
100
AcDbViewportTableRecord
  2
*ACTIVE
 70
    0
 10
0
 20
0
 11
1
 21
1
 12
76.875
 22
58.875
 13
0
 23
0
 14
10
 24
10
 15
10
 25
10
 16
0
 26
0
 36
1
 17
0
 27
0
 37
0
 40
130.25
 41
1.276391554702495
 42
50
 43
0
 44
0
 50
0
 51
0
 71
    0
 72
  100
 73
    1
 74
    3
 75
    0
 76
    1
 77
    0
 78
    0
281
    0
 65
    1
110
0
120
0
130
0
111
1
121
0
131
0
112
0
122
1
132
0
 79
    0
146
0
348
10020
 60
    7
 61
    5
292
1
282
    1
141
0
142
0
 63
  250
421
3358443
  0
ENDTAB
  0
TABLE
  2
LTYPE
  5
5
330
0
100
AcDbSymbolTable
 70
    4
  0
LTYPE
  5
14
330
5
100
AcDbSymbolTableRecord
100
AcDbLinetypeTableRecord
  2
ByBlock
 70
    0
  3

 72
   65
 73
    0
 40
0
  0
LTYPE
  5
15
330
5
100
AcDbSymbolTableRecord
100
AcDbLinetypeTableRecord
  2
ByLayer
 70
    0
  3

 72
   65
 73
    0
 40
0
  0
LTYPE
  5
16
330
5
100
AcDbSymbolTableRecord
100
AcDbLinetypeTableRecord
  2
Continuous
 70
    0
  3
Solid line
 72
   65
 73
    0
 40
0
  0
LTYPE
  5
32
330
5
100
AcDbSymbolTableRecord
100
AcDbLinetypeTableRecord
  2
DOT
 70
    0
  3
Dot . . . . . . . . . . . . . . . . . . . . . .
 72
   65
 73
    2
 40
6.35
 49
0
 74
    0
 49
-6.35
 74
    0
  0
LTYPE
  5
33
330
5
100
AcDbSymbolTableRecord
100
AcDbLinetypeTableRecord
  2
DOTTINY
 70
    0
  3
Dot (.15x) .....................................
 72
   65
 73
    2
 40
0.9525
 49
0
 74
    0
 49
-0.9525
 74
    0
  0
LTYPE
  5
34
330
5
100
AcDbSymbolTableRecord
100
AcDbLinetypeTableRecord
  2
DOT2
 70
    0
  3
Dot (.5x) .....................................
 72
   65
 73
    2
 40
3.175
 49
0
 74
    0
 49
-3.175
 74
    0
  0
LTYPE
  5
35
330
5
100
AcDbSymbolTableRecord
100
AcDbLinetypeTableRecord
  2
DOTX2
 70
    0
  3
Dot (2x) .  .  .  .  .  .  .  .  .  .  .  .  .
 72
   65
 73
    2
 40
12.7
 49
0
 74
    0
 49
-12.7
 74
    0
  0
LTYPE
  5
36
330
5
100
AcDbSymbolTableRecord
100
AcDbLinetypeTableRecord
  2
DASHED
 70
    0
  3
Dashed _ _ _ _ _ _ _ _ _ _ _ _ _ _ _ _ _
 72
   65
 73
    2
 40
19.05
 49
12.7
 74
    0
 49
-6.35
 74
    0
  0
LTYPE
  5
37
330
5
100
AcDbSymbolTableRecord
100
AcDbLinetypeTableRecord
  2
DASHEDTINY
 70
    0
  3
Dashed (.15x) _ _ _ _ _ _ _ _ _ _ _ _ _ _ _ _ _
 72
   65
 73
    2
 40
2.8575
 49
1.905
 74
    0
 49
-0.9525
 74
    0
  0
LTYPE
  5
38
330
5
100
AcDbSymbolTableRecord
100
AcDbLinetypeTableRecord
  2
DASHED2
 70
    0
  3
Dashed (.5x) _ _ _ _ _ _ _ _ _ _ _ _ _ _ _ _ _
 72
   65
 73
    2
 40
9.524999999999999
 49
6.35
 74
    0
 49
-3.175
 74
    0
  0
LTYPE
  5
39
330
5
100
AcDbSymbolTableRecord
100
AcDbLinetypeTableRecord
  2
DASHEDX2
 70
    0
  3
Dashed (2x) ____  ____  ____  ____  ____  ___
 72
   65
 73
    2
 40
38.09999999999999
 49
25.4
 74
    0
 49
-12.7
 74
    0
  0
LTYPE
  5
3A
330
5
100
AcDbSymbolTableRecord
100
AcDbLinetypeTableRecord
  2
DASHDOT
 70
    0
  3
Dash dot __ . __ . __ . __ . __ . __ . __ . __
 72
   65
 73
    4
 40
25.4
 49
12.7
 74
    0
 49
-6.35
 74
    0
 49
0
 74
    0
 49
-6.35
 74
    0
  0
LTYPE
  5
3B
330
5
100
AcDbSymbolTableRecord
100
AcDbLinetypeTableRecord
  2
DASHDOTTINY
 70
    0
  3
Dash dot (.15x) _._._._._._._._._._._._._._._.
 72
   65
 73
    4
 40
3.81
 49
1.905
 74
    0
 49
-0.9525
 74
    0
 49
0
 74
    0
 49
-0.9525
 74
    0
  0
LTYPE
  5
3C
330
5
100
AcDbSymbolTableRecord
100
AcDbLinetypeTableRecord
  2
DASHDOT2
 70
    0
  3
Dash dot (.5x) _._._._._._._._._._._._._._._.
 72
   65
 73
    4
 40
12.7
 49
6.35
 74
    0
 49
-3.175
 74
    0
 49
0
 74
    0
 49
-3.175
 74
    0
  0
LTYPE
  5
3D
330
5
100
AcDbSymbolTableRecord
100
AcDbLinetypeTableRecord
  2
DASHDOTX2
 70
    0
  3
Dash dot (2x) ____  .  ____  .  ____  .  ___
 72
   65
 73
    4
 40
50.8
 49
25.4
 74
    0
 49
-12.7
 74
    0
 49
0
 74
    0
 49
-12.7
 74
    0
  0
LTYPE
  5
3E
330
5
100
AcDbSymbolTableRecord
100
AcDbLinetypeTableRecord
  2
DIVIDE
 70
    0
  3
Divide ____ . . ____ . . ____ . . ____ . . ____
 72
   65
 73
    6
 40
31.75
 49
12.7
 74
    0
 49
-6.35
 74
    0
 49
0
 74
    0
 49
-6.35
 74
    0
 49
0
 74
    0
 49
-6.35
 74
    0
  0
LTYPE
  5
3F
330
5
100
AcDbSymbolTableRecord
100
AcDbLinetypeTableRecord
  2
DIVIDETINY
 70
    0
  3
Divide (.15x) __..__..__..__..__..__..__..__.._
 72
   65
 73
    6
 40
4.7625
 49
1.905
 74
    0
 49
-0.9525
 74
    0
 49
0
 74
    0
 49
-0.9525
 74
    0
 49
0
 74
    0
 49
-0.9525
 74
    0
  0
LTYPE
  5
40
330
5
100
AcDbSymbolTableRecord
100
AcDbLinetypeTableRecord
  2
DIVIDE2
 70
    0
  3
Divide (.5x) __..__..__..__..__..__..__..__.._
 72
   65
 73
    6
 40
15.875
 49
6.35
 74
    0
 49
-3.175
 74
    0
 49
0
 74
    0
 49
-3.175
 74
    0
 49
0
 74
    0
 49
-3.175
 74
    0
  0
LTYPE
  5
41
330
5
100
AcDbSymbolTableRecord
100
AcDbLinetypeTableRecord
  2
DIVIDEX2
 70
    0
  3
Divide (2x) ________  .  .  ________  .  .  _
 72
   65
 73
    6
 40
63.5
 49
25.4
 74
    0
 49
-12.7
 74
    0
 49
0
 74
    0
 49
-12.7
 74
    0
 49
0
 74
    0
 49
-12.7
 74
    0
  0
LTYPE
  5
42
330
5
100
AcDbSymbolTableRecord
100
AcDbLinetypeTableRecord
  2
BORDER
 70
    0
  3
Border __ __ . __ __ . __ __ . __ __ . __ __ .
 72
   65
 73
    6
 40
44.45
 49
12.7
 74
    0
 49
-6.35
 74
    0
 49
12.7
 74
    0
 49
-6.35
 74
    0
 49
0
 74
    0
 49
-6.35
 74
    0
  0
LTYPE
  5
43
330
5
100
AcDbSymbolTableRecord
100
AcDbLinetypeTableRecord
  2
BORDERTINY
 70
    0
  3
Border (.15x) __.__.__.__.__.__.__.__.__.__.__.
 72
   65
 73
    6
 40
6.6675
 49
1.905
 74
    0
 49
-0.9525
 74
    0
 49
1.905
 74
    0
 49
-0.9525
 74
    0
 49
0
 74
    0
 49
-0.9525
 74
    0
  0
LTYPE
  5
44
330
5
100
AcDbSymbolTableRecord
100
AcDbLinetypeTableRecord
  2
BORDER2
 70
    0
  3
Border (.5x) __.__.__.__.__.__.__.__.__.__.__.
 72
   65
 73
    6
 40
22.225
 49
6.35
 74
    0
 49
-3.175
 74
    0
 49
6.35
 74
    0
 49
-3.175
 74
    0
 49
0
 74
    0
 49
-3.175
 74
    0
  0
LTYPE
  5
45
330
5
100
AcDbSymbolTableRecord
100
AcDbLinetypeTableRecord
  2
BORDERX2
 70
    0
  3
Border (2x) ____  ____  .  ____  ____  .  ___
 72
   65
 73
    6
 40
88.89999999999999
 49
25.4
 74
    0
 49
-12.7
 74
    0
 49
25.4
 74
    0
 49
-12.7
 74
    0
 49
0
 74
    0
 49
-12.7
 74
    0
  0
LTYPE
  5
46
330
5
100
AcDbSymbolTableRecord
100
AcDbLinetypeTableRecord
  2
CENTER
 70
    0
  3
Center ____ _ ____ _ ____ _ ____ _ ____ _ ____
 72
   65
 73
    4
 40
50.8
 49
31.75
 74
    0
 49
-6.35
 74
    0
 49
6.35
 74
    0
 49
-6.35
 74
    0
  0
LTYPE
  5
47
330
5
100
AcDbSymbolTableRecord
100
AcDbLinetypeTableRecord
  2
CENTERTINY
 70
    0
  3
Center (.15x) ___ _ ___ _ ___ _ ___ _ ___ _ ___
 72
   65
 73
    4
 40
7.619999999999999
 49
4.7625
 74
    0
 49
-0.9525
 74
    0
 49
0.9525
 74
    0
 49
-0.9525
 74
    0
  0
LTYPE
  5
48
330
5
100
AcDbSymbolTableRecord
100
AcDbLinetypeTableRecord
  2
CENTER2
 70
    0
  3
Center (.5x) ___ _ ___ _ ___ _ ___ _ ___ _ ___
 72
   65
 73
    4
 40
28.575
 49
19.05
 74
    0
 49
-3.175
 74
    0
 49
3.175
 74
    0
 49
-3.175
 74
    0
  0
LTYPE
  5
49
330
5
100
AcDbSymbolTableRecord
100
AcDbLinetypeTableRecord
  2
CENTERX2
 70
    0
  3
Center (2x) ________  __  ________  __  _____
 72
   65
 73
    4
 40
101.6
 49
63.5
 74
    0
 49
-12.7
 74
    0
 49
12.7
 74
    0
 49
-12.7
 74
    0
  0
ENDTAB
  0
TABLE
  2
LAYER
  5
2
330
0
100
AcDbSymbolTable
 70
    1
  0
LAYER
  5
10
330
2
100
AcDbSymbolTableRecord
100
AcDbLayerTableRecord
  2
0
 70
    1
 62
    7
  6
CONTINUOUS
370
    0
390
F
  0
LAYER
  5
4A
330
2
100
AcDbSymbolTableRecord
100
AcDbLayerTableRecord
  2
ANGULAR
 70
    1
 62
    7
  6
CONTINUOUS
370
    0
390
F
  0
LAYER
  5
4B
330
2
100
AcDbSymbolTableRecord
100
AcDbLayerTableRecord
  2
ANGULAR_EDITED
 70
    1
 62
    7
  6
CONTINUOUS
370
    0
390
F
  0
LAYER
  5
4C
330
2
100
AcDbSymbolTableRecord
100
AcDbLayerTableRecord
  2
HORIZONTAL
 70
    1
 62
    7
  6
CONTINUOUS
370
    0
390
F
  0
LAYER
  5
4D
330
2
100
AcDbSymbolTableRecord
100
AcDbLayerTableRecord
  2
HORIZONTAL_EDITED
 70
    1
 62
    7
  6
CONTINUOUS
370
    0
390
F
1001
LibreCad
1070
    1
  0
LAYER
  5
4E
330
2
100
AcDbSymbolTableRecord
100
AcDbLayerTableRecord
  2
LINEAR
 70
    1
 62
    7
  6
CONTINUOUS
370
    0
390
F
  0
LAYER
  5
4F
330
2
100
AcDbSymbolTableRecord
100
AcDbLayerTableRecord
  2
LINEAR_EDITED
 70
    1
 62
    7
  6
CONTINUOUS
370
    0
390
F
  0
LAYER
  5
50
330
2
100
AcDbSymbolTableRecord
100
AcDbLayerTableRecord
  2
VERTICAL
 70
    0
 62
    7
  6
CONTINUOUS
370
    0
390
F
  0
LAYER
  5
51
330
2
100
AcDbSymbolTableRecord
100
AcDbLayerTableRecord
  2
VERTICAL_EDITED
 70
    0
 62
    7
  6
CONTINUOUS
370
    0
390
F
  0
ENDTAB
  0
TABLE
  2
STYLE
  5
3
330
0
100
AcDbSymbolTable
 70
    3
  0
STYLE
  5
52
330
2
100
AcDbSymbolTableRecord
100
AcDbTextStyleTableRecord
  2
Standard
 70
    0
 40
0
 41
1
 50
0
 71
    0
 42
1
  3
txt
  4

  0
ENDTAB
  0
TABLE
  2
VIEW
  5
6
330
0
100
AcDbSymbolTable
 70
    0
  0
ENDTAB
  0
TABLE
  2
UCS
  5
7
330
0
100
AcDbSymbolTable
 70
    0
  0
ENDTAB
  0
TABLE
  2
APPID
  5
9
330
0
100
AcDbSymbolTable
 70
    1
  0
APPID
  5
12
330
9
100
AcDbSymbolTableRecord
100
AcDbRegAppTableRecord
  2
ACAD
 70
    0
  0
APPID
  5
53
330
9
100
AcDbSymbolTableRecord
100
AcDbRegAppTableRecord
  2
LibreCad
 70
    0
  0
ENDTAB
  0
TABLE
  2
DIMSTYLE
  5
A
330
0
100
AcDbSymbolTable
 70
    1
100
AcDbDimStyleTable
 71
    1
  0
DIMSTYLE
105
54
330
A
100
AcDbSymbolTableRecord
100
AcDbDimStyleTableRecord
  2
Standard
 70
    0
 40
1
 41
2.5
 42
0.625
 43
0.38
 44
1.25
 45
0
 46
0
 47
0
 48
0
 49
1
140
2.5
141
0.09
142
0
143
25.4
144
1
145
0
146
1
147
0.625
148
0
 71
    0
 72
    0
 73
    0
 74
    1
 75
    0
 76
    0
 77
    0
 78
    1
 79
    0
170
    0
171
    2
172
    0
173
    0
174
    0
175
    0
176
    0
177
    0
178
    0
179
    2
271
    4
272
    4
273
    2
274
    2
275
    0
276
    0
277
    2
278
    0
279
    0
280
    0
281
    0
282
    0
283
    1
284
    0
285
    0
286
    0
288
    0
289
    3
340
standard
341

371
   -2
372
   -2
  0
ENDTAB
  0
TABLE
  2
BLOCK_RECORD
  5
1
330
0
100
AcDbSymbolTable
 70
    2
  0
BLOCK_RECORD
  5
1F
330
1
100
AcDbSymbolTableRecord
100
AcDbBlockTableRecord
  2
*Model_Space
 70
    0
280
    1
281
    0
  0
BLOCK_RECORD
  5
1E
330
1
100
AcDbSymbolTableRecord
100
AcDbBlockTableRecord
  2
*Paper_Space
 70
    0
280
    1
281
    0
  0
BLOCK_RECORD
  5
55
330
1
100
AcDbSymbolTableRecord
100
AcDbBlockTableRecord
  2
*D6
 70
    0
280
    1
281
    0
  0
BLOCK_RECORD
  5
58
330
1
100
AcDbSymbolTableRecord
100
AcDbBlockTableRecord
  2
*D7
 70
    0
280
    1
281
    0
  0
BLOCK_RECORD
  5
5B
330
1
100
AcDbSymbolTableRecord
100
AcDbBlockTableRecord
  2
*D8
 70
    0
280
    1
281
    0
  0
BLOCK_RECORD
  5
5E
330
1
100
AcDbSymbolTableRecord
100
AcDbBlockTableRecord
  2
*D3
 70
    0
280
    1
281
    0
  0
BLOCK_RECORD
  5
61
330
1
100
AcDbSymbolTableRecord
100
AcDbBlockTableRecord
  2
*D4
 70
    0
280
    1
281
    0
  0
BLOCK_RECORD
  5
64
330
1
100
AcDbSymbolTableRecord
100
AcDbBlockTableRecord
  2
*D1
 70
    0
280
    1
281
    0
  0
BLOCK_RECORD
  5
67
330
1
100
AcDbSymbolTableRecord
100
AcDbBlockTableRecord
  2
*D2
 70
    0
280
    1
281
    0
  0
BLOCK_RECORD
  5
6A
330
1
100
AcDbSymbolTableRecord
100
AcDbBlockTableRecord
  2
*D5
 70
    0
280
    1
281
    0
  0
ENDTAB
  0
ENDSEC
  0
SECTION
  2
BLOCKS
  0
BLOCK
  5
20
330
1F
100
AcDbEntity
  8
0
100
AcDbBlockBegin
  2
*Model_Space
 70
    0
 10
0
 20
0
 30
0
  3
*Model_Space
  1

  0
ENDBLK
  5
21
330
1F
100
AcDbEntity
  8
0
100
AcDbBlockEnd
  0
BLOCK
  5
1C
330
1B
100
AcDbEntity
  8
0
100
AcDbBlockBegin
  2
*Paper_Space
 70
    0
 10
0
 20
0
 30
0
  3
*Paper_Space
  1

  0
ENDBLK
  5
1D
330
1F
100
AcDbEntity
  8
0
100
AcDbBlockEnd
  0
BLOCK
  5
56
330
55
100
AcDbEntity
  8
0
100
AcDbBlockBegin
  2
*D6
 70
    1
 10
0
 20
0
  3
*D6
  1

  0
LINE
  5
6D
100
AcDbEntity
  8
ANGULAR_EDITED
  6
ByBlock
 62
    0
370
   -2
100
AcDbLine
 10
50.48274418140975
 20
95.64696732272951
 11
60.27977043891588
 21
103.7031996584473
  0
LINE
  5
6E
100
AcDbEntity
  8
ANGULAR_EDITED
  6
ByBlock
 62
    0
370
   -2
100
AcDbLine
 10
100.2327441814098
 20
35.1469673227295
 11
110.0297704389159
 21
43.20319965844734
  0
LINE
  5
6F
100
AcDbEntity
  8
ANGULAR_EDITED
  6
ByBlock
 62
    0
370
   -2
100
AcDbLine
 10
59.31428207609638
 20
102.9092650129883
 11
109.0642820760964
 21
42.40926501298833
  0
SOLID
  5
70
100
AcDbEntity
  8
ANGULAR_EDITED
  6
ByBlock
 62
    0
370
   -2
100
AcDbTrace
 10
59.31428207609638
 20
102.9092650129883
 30
0
 11
61.22368576117437
 21
101.2426905370925
 31
0
 12
60.58061697285441
 22
100.7138860376062
 32
0
 13
60.58061697285441
 23
100.7138860376062
 33
0
  0
SOLID
  5
71
100
AcDbEntity
  8
ANGULAR_EDITED
  6
ByBlock
 62
    0
370
   -2
100
AcDbTrace
 10
109.0642820760964
 20
42.40926501298833
 30
0
 11
107.1548783910184
 21
44.07583948888421
 31
0
 12
107.7979471793383
 22
44.60464398837045
 32
0
 13
107.7979471793383
 23
44.60464398837045
 33
0
  0
MTEXT
  5
72
100
AcDbEntity
  8
ANGULAR_EDITED
  6
CONTINUOUS
 62
    0
370
   -2
100
AcDbMText
 10
85.63751462032563
 20
73.85016698117684
 30
0
 40
2.5
 41
3.333333333333488
 71
    5
 72
    1
  1
54
  7
standard
210
0
220
0
230
1
 50
309.4309411748044
 73
    2
 44
1
  0
ENDBLK
  5
57
330
55
100
AcDbEntity
  8
0
100
AcDbBlockEnd
  0
BLOCK
  5
59
330
58
100
AcDbEntity
  8
0
100
AcDbBlockBegin
  2
*D7
 70
    1
 10
0
 20
0
  3
*D7
  1

  0
LINE
  5
73
100
AcDbEntity
  8
HORIZONTAL_EDITED
  6
ByBlock
 62
    0
370
   -2
100
AcDbLine
 10
49
 20
64
 11
110.25
 21
64
  0
SOLID
  5
74
100
AcDbEntity
  8
HORIZONTAL_EDITED
  6
ByBlock
 62
    0
370
   -2
100
AcDbTrace
 10
49
 20
64
 30
0
 11
51.5
 21
64.41628465777283
 31
0
 12
51.5
 22
63.58371534222716
 32
0
 13
51.5
 23
63.58371534222716
 33
0
  0
SOLID
  5
75
100
AcDbEntity
  8
HORIZONTAL_EDITED
  6
ByBlock
 62
    0
370
   -2
100
AcDbTrace
 10
110.25
 20
64
 30
0
 11
107.75
 21
63.58371534222716
 31
0
 12
107.75
 22
64.41628465777283
 32
0
 13
107.75
 23
64.41628465777283
 33
0
  0
MTEXT
  5
76
100
AcDbEntity
  8
HORIZONTAL_EDITED
  6
CONTINUOUS
 62
    0
370
   -2
100
AcDbMText
 10
79.625
 20
65.875
 30
0
 40
2.5
 41
3.055555555555711
 71
    5
 72
    1
  1
50
  7
standard
210
0
220
0
230
1
 50
0
 73
    2
 44
1
  0
LINE
  5
77
100
AcDbEntity
  8
HORIZONTAL_EDITED
  6
ByBlock
 62
    0
370
   -2
100
AcDbLine
 10
49
 20
54.625
 11
49
 21
65.25
  0
LINE
  5
78
100
AcDbEntity
  8
HORIZONTAL_EDITED
  6
ByBlock
 62
    0
370
   -2
100
AcDbLine
 10
110.25
 20
54.375
 11
110.25
 21
65.25
  0
ENDBLK
  5
5A
330
58
100
AcDbEntity
  8
0
100
AcDbBlockEnd
  0
BLOCK
  5
5C
330
5B
100
AcDbEntity
  8
0
100
AcDbBlockBegin
  2
*D8
 70
    1
 10
0
 20
0
  3
*D8
  1

  0
LINE
  5
79
100
AcDbEntity
  8
VERTICAL_EDITED
  6
ByBlock
 62
    0
370
   -2
100
AcDbLine
 10
106
 20
90.5
 11
106
 21
30.25
  0
SOLID
  5
7A
100
AcDbEntity
  8
VERTICAL_EDITED
  6
ByBlock
 62
    0
370
   -2
100
AcDbTrace
 10
106
 20
90.5
 30
0
 11
106.4162846577728
 21
88
 31
0
 12
105.5837153422272
 22
88
 32
0
 13
105.5837153422272
 23
88
 33
0
  0
SOLID
  5
7B
100
AcDbEntity
  8
VERTICAL_EDITED
  6
ByBlock
 62
    0
370
   -2
100
AcDbTrace
 10
106
 20
30.25
 30
0
 11
105.5837153422272
 21
32.75
 31
0
 12
106.4162846577728
 22
32.75
 32
0
 13
106.4162846577728
 23
32.75
 33
0
  0
MTEXT
  5
7C
100
AcDbEntity
  8
VERTICAL_EDITED
  6
CONTINUOUS
 62
    0
370
   -2
100
AcDbMText
 10
104.125
 20
60.375
 30
0
 40
2.5
 41
3.055555555555711
 71
    5
 72
    1
  1
59
  7
standard
210
0
220
0
230
1
 50
90
 73
    2
 44
1
  0
LINE
  5
7D
100
AcDbEntity
  8
VERTICAL_EDITED
  6
ByBlock
 62
    0
370
   -2
100
AcDbLine
 10
85.875
 20
90.5
 11
107.25
 21
90.5
  0
LINE
  5
7E
100
AcDbEntity
  8
VERTICAL_EDITED
  6
ByBlock
 62
    0
370
   -2
100
AcDbLine
 10
85.125
 20
30.25
 11
107.25
 21
30.25
  0
ENDBLK
  5
5D
330
5B
100
AcDbEntity
  8
0
100
AcDbBlockEnd
  0
BLOCK
  5
5F
330
5E
100
AcDbEntity
  8
0
100
AcDbBlockBegin
  2
*D3
 70
    1
 10
0
 20
0
  3
*D3
  1

  0
LINE
  5
7F
100
AcDbEntity
  8
LINEAR
  6
ByBlock
 62
    0
370
   -2
100
AcDbLine
 10
50.5
 20
55.5
 11
91.25
 21
55.5
  0
SOLID
  5
80
100
AcDbEntity
  8
LINEAR
  6
ByBlock
 62
    0
370
   -2
100
AcDbTrace
 10
50.5
 20
55.5
 30
0
 11
53
 21
55.91628465777284
 31
0
 12
53
 22
55.08371534222716
 32
0
 13
53
 23
55.08371534222716
 33
0
  0
SOLID
  5
81
100
AcDbEntity
  8
LINEAR
  6
ByBlock
 62
    0
370
   -2
100
AcDbTrace
 10
91.25
 20
55.5
 30
0
 11
88.75
 21
55.08371534222716
 31
0
 12
88.75
 22
55.91628465777284
 32
0
 13
88.75
 23
55.91628465777284
 33
0
  0
MTEXT
  5
82
100
AcDbEntity
  8
LINEAR
  6
CONTINUOUS
 62
    0
370
   -2
100
AcDbMText
 10
70.875
 20
57.375
 30
0
 40
2.5
 41
11.9444444444446
 71
    5
 72
    1
  1
40.7500
  7
standard
210
0
220
0
230
1
 50
0
 73
    2
 44
1
  0
LINE
  5
83
100
AcDbEntity
  8
LINEAR
  6
ByBlock
 62
    0
370
   -2
100
AcDbLine
 10
50.5
 20
76.625
 11
50.5
 21
54.25
  0
LINE
  5
84
100
AcDbEntity
  8
LINEAR
  6
ByBlock
 62
    0
370
   -2
100
AcDbLine
 10
91.25
 20
28.375
 11
91.25
 21
56.75
  0
ENDBLK
  5
60
330
5E
100
AcDbEntity
  8
0
100
AcDbBlockEnd
  0
BLOCK
  5
62
330
61
100
AcDbEntity
  8
0
100
AcDbBlockBegin
  2
*D4
 70
    1
 10
0
 20
0
  3
*D4
  1

  0
LINE
  5
85
100
AcDbEntity
  8
LINEAR_EDITED
  6
ByBlock
 62
    0
370
   -2
100
AcDbLine
 10
49.25
 20
58
 11
90
 21
58
  0
SOLID
  5
86
100
AcDbEntity
  8
LINEAR_EDITED
  6
ByBlock
 62
    0
370
   -2
100
AcDbTrace
 10
49.25
 20
58
 30
0
 11
51.75
 21
58.41628465777284
 31
0
 12
51.75
 22
57.58371534222716
 32
0
 13
51.75
 23
57.58371534222716
 33
0
  0
SOLID
  5
87
100
AcDbEntity
  8
LINEAR_EDITED
  6
ByBlock
 62
    0
370
   -2
100
AcDbTrace
 10
90
 20
58
 30
0
 11
87.5
 21
57.58371534222716
 31
0
 12
87.5
 22
58.41628465777284
 32
0
 13
87.5
 23
58.41628465777284
 33
0
  0
MTEXT
  5
88
100
AcDbEntity
  8
LINEAR_EDITED
  6
CONTINUOUS
 62
    0
370
   -2
100
AcDbMText
 10
69.625
 20
59.875
 30
0
 40
2.5
 41
3.333333333333333
 71
    5
 72
    1
  1
48
  7
standard
210
0
220
0
230
1
 50
0
 73
    2
 44
1
  0
LINE
  5
89
100
AcDbEntity
  8
LINEAR_EDITED
  6
ByBlock
 62
    0
370
   -2
100
AcDbLine
 10
49.25
 20
79.125
 11
49.25
 21
56.75
  0
LINE
  5
8A
100
AcDbEntity
  8
LINEAR_EDITED
  6
ByBlock
 62
    0
370
   -2
100
AcDbLine
 10
90
 20
30.875
 11
90
 21
59.25
  0
ENDBLK
  5
63
330
61
100
AcDbEntity
  8
0
100
AcDbBlockEnd
  0
BLOCK
  5
65
330
64
100
AcDbEntity
  8
0
100
AcDbBlockBegin
  2
*D1
 70
    1
 10
0
 20
0
  3
*D1
  1

  0
LINE
  5
8B
100
AcDbEntity
  8
VERTICAL
  6
ByBlock
 62
    0
370
   -2
100
AcDbLine
 10
71.25
 20
89.75
 11
71.25
 21
29.5
  0
SOLID
  5
8C
100
AcDbEntity
  8
VERTICAL
  6
ByBlock
 62
    0
370
   -2
100
AcDbTrace
 10
71.25
 20
89.75
 30
0
 11
71.66628465777283
 21
87.25
 31
0
 12
70.83371534222717
 22
87.25
 32
0
 13
70.83371534222717
 23
87.25
 33
0
  0
SOLID
  5
8D
100
AcDbEntity
  8
VERTICAL
  6
ByBlock
 62
    0
370
   -2
100
AcDbTrace
 10
71.25
 20
29.5
 30
0
 11
70.83371534222717
 21
32
 31
0
 12
71.66628465777283
 22
32
 32
0
 13
71.66628465777283
 23
32
 33
0
  0
MTEXT
  5
8E
100
AcDbEntity
  8
VERTICAL
  6
CONTINUOUS
 62
    0
370
   -2
100
AcDbMText
 10
69.375
 20
59.625
 30
0
 40
2.5
 41
11.66666666666698
 71
    5
 72
    1
  1
60.2500
  7
standard
210
0
220
0
230
1
 50
90
 73
    2
 44
1
  0
LINE
  5
8F
100
AcDbEntity
  8
VERTICAL
  6
ByBlock
 62
    0
370
   -2
100
AcDbLine
 10
51.125
 20
89.75
 11
72.5
 21
89.75
  0
LINE
  5
90
100
AcDbEntity
  8
VERTICAL
  6
ByBlock
 62
    0
370
   -2
100
AcDbLine
 10
50.375
 20
29.5
 11
72.5
 21
29.5
  0
ENDBLK
  5
66
330
64
100
AcDbEntity
  8
0
100
AcDbBlockEnd
  0
BLOCK
  5
68
330
67
100
AcDbEntity
  8
0
100
AcDbBlockBegin
  2
*D2
 70
    1
 10
0
 20
0
  3
*D2
  1

  0
LINE
  5
91
100
AcDbEntity
  8
HORIZONTAL
  6
ByBlock
 62
    0
370
   -2
100
AcDbLine
 10
49
 20
50
 11
110.25
 21
50
  0
SOLID
  5
92
100
AcDbEntity
  8
HORIZONTAL
  6
ByBlock
 62
    0
370
   -2
100
AcDbTrace
 10
49
 20
50
 30
0
 11
51.5
 21
50.41628465777284
 31
0
 12
51.5
 22
49.58371534222716
 32
0
 13
51.5
 23
49.58371534222716
 33
0
  0
SOLID
  5
93
100
AcDbEntity
  8
HORIZONTAL
  6
ByBlock
 62
    0
370
   -2
100
AcDbTrace
 10
110.25
 20
50
 30
0
 11
107.75
 21
49.58371534222716
 31
0
 12
107.75
 22
50.41628465777284
 32
0
 13
107.75
 23
50.41628465777284
 33
0
  0
MTEXT
  5
94
100
AcDbEntity
  8
HORIZONTAL
  6
CONTINUOUS
 62
    0
370
   -2
100
AcDbMText
 10
79.625
 20
51.875
 30
0
 40
2.5
 41
11.11111111111142
 71
    5
 72
    1
  1
61.2500
  7
standard
210
0
220
0
230
1
 50
0
 73
    2
 44
1
  0
LINE
  5
95
100
AcDbEntity
  8
HORIZONTAL
  6
ByBlock
 62
    0
370
   -2
100
AcDbLine
 10
49
 20
40.625
 11
49
 21
51.25
  0
LINE
  5
96
100
AcDbEntity
  8
HORIZONTAL
  6
ByBlock
 62
    0
370
   -2
100
AcDbLine
 10
110.25
 20
40.375
 11
110.25
 21
51.25
  0
ENDBLK
  5
69
330
67
100
AcDbEntity
  8
0
100
AcDbBlockEnd
  0
BLOCK
  5
6B
330
6A
100
AcDbEntity
  8
0
100
AcDbBlockBegin
  2
*D5
 70
    1
 10
0
 20
0
  3
*D5
  1

  0
LINE
  5
97
100
AcDbEntity
  8
ANGULAR
  6
ByBlock
 62
    0
370
   -2
100
AcDbLine
 10
40.23274418140975
 20
80.64696732272951
 11
50.02977043891588
 21
88.70319965844733
  0
LINE
  5
98
100
AcDbEntity
  8
ANGULAR
  6
ByBlock
 62
    0
370
   -2
100
AcDbLine
 10
89.98274418140976
 20
20.14696732272951
 11
99.77977043891588
 21
28.20319965844734
  0
LINE
  5
99
100
AcDbEntity
  8
ANGULAR
  6
ByBlock
 62
    0
370
   -2
100
AcDbLine
 10
49.06428207609638
 20
87.90926501298833
 11
98.81428207609638
 21
27.40926501298833
  0
SOLID
  5
9A
100
AcDbEntity
  8
ANGULAR
  6
ByBlock
 62
    0
370
   -2
100
AcDbTrace
 10
49.06428207609638
 20
87.90926501298833
 30
0
 11
50.97368576117437
 21
86.24269053709246
 31
0
 12
50.33061697285441
 22
85.7138860376062
 32
0
 13
50.33061697285441
 23
85.7138860376062
 33
0
  0
SOLID
  5
9B
100
AcDbEntity
  8
ANGULAR
  6
ByBlock
 62
    0
370
   -2
100
AcDbTrace
 10
98.81428207609638
 20
27.40926501298833
 30
0
 11
96.90487839101837
 21
29.0758394888842
 31
0
 12
97.54794717933834
 22
29.60464398837045
 32
0
 13
97.54794717933834
 23
29.60464398837045
 33
0
  0
MTEXT
  5
9C
100
AcDbEntity
  8
ANGULAR
  6
CONTINUOUS
 62
    0
370
   -2
100
AcDbMText
 10
75.38751462032563
 20
58.85016698117684
 30
0
 40
2.5
 41
11.66666666666682
 71
    5
 72
    1
  1
78.3282
  7
standard
210
0
220
0
230
1
 50
309.4309411748044
 73
    2
 44
1
  0
ENDBLK
  5
6C
330
6A
100
AcDbEntity
  8
0
100
AcDbBlockEnd
  0
ENDSEC
  0
SECTION
  2
ENTITIES
  0
DIMENSION
  5
9D
100
AcDbEntity
  8
VERTICAL
  6
ByLayer
 62
  256
370
   -1
100
AcDbDimension
  2
*D1
 10
71.25
 20
29.5
 30
0
 11
69.375
 21
59.625
 31
0
 70
   32
 71
    5
  3
Standard
 53
0
210
0
220
0
230
1
100
AcDbAlignedDimension
 13
50.5
 23
89.75
 33
0
 14
49.75
 24
29.5
 34
0
 50
90
100
AcDbRotatedDimension
  0
DIMENSION
  5
9E
100
AcDbEntity
  8
HORIZONTAL
  6
ByLayer
 62
  256
370
   -1
100
AcDbDimension
  2
*D2
 10
110.25
 20
50
 30
0
 11
79.625
 21
51.875
 31
0
 70
   32
 71
    5
  3
Standard
 53
0
210
0
220
0
230
1
100
AcDbAlignedDimension
 13
49
 23
40
 33
0
 14
110.25
 24
39.75
 34
0
100
AcDbRotatedDimension
  0
DIMENSION
  5
9F
100
AcDbEntity
  8
LINEAR
  6
ByLayer
 62
  256
370
   -1
100
AcDbDimension
  2
*D3
 10
91.25
 20
55.5
 30
0
 11
70.875
 21
57.375
 31
0
 70
   32
 71
    5
  3
Standard
 53
0
210
0
220
0
230
1
100
AcDbAlignedDimension
 13
50.5
 23
77.25
 33
0
 14
91.25
 24
27.75
 34
0
100
AcDbRotatedDimension
  0
DIMENSION
  5
A0
100
AcDbEntity
  8
LINEAR_EDITED
  6
ByLayer
 62
  256
370
   -1
100
AcDbDimension
  2
*D4
 10
90
 20
58
 30
0
 11
69.625
 21
59.875
 31
0
 70
   32
  1
48
 71
    5
  3
Standard
 53
0
210
0
220
0
230
1
100
AcDbAlignedDimension
 13
49.25
 23
79.75
 33
0
 14
90
 24
30.25
 34
0
100
AcDbRotatedDimension
  0
DIMENSION
  5
A1
100
AcDbEntity
  8
ANGULAR
  6
ByLayer
 62
  256
370
   -1
100
AcDbDimension
  2
*D5
 10
98.81428207609638
 20
27.40926501298833
 30
0
 11
75.38751462032563
 21
58.85016698117684
 31
0
 70
   33
 71
    5
  3
Standard
 53
0
210
0
220
0
230
1
100
AcDbAlignedDimension
 13
39.75
 23
80.25
 33
0
 14
89.5
 24
19.75
 34
0
  0
DIMENSION
  5
A2
100
AcDbEntity
  8
ANGULAR_EDITED
  6
ByLayer
 62
  256
370
   -1
100
AcDbDimension
  2
*D6
 10
109.0642820760964
 20
42.40926501298833
 30
0
 11
85.63751462032563
 21
73.85016698117684
 31
0
 70
   33
  1
54
 71
    5
  3
Standard
 53
0
210
0
220
0
230
1
100
AcDbAlignedDimension
 13
50
 23
95.25
 33
0
 14
99.75
 24
34.75
 34
0
  0
DIMENSION
  5
A3
100
AcDbEntity
  8
HORIZONTAL_EDITED
  6
ByLayer
 62
  256
370
   -1
100
AcDbDimension
  2
*D7
 10
110.25
 20
64
 30
0
 11
79.625
 21
65.875
 31
0
 70
   32
  1
50
 71
    5
  3
Standard
 53
0
210
0
220
0
230
1
100
AcDbAlignedDimension
 13
49
 23
54
 33
0
 14
110.25
 24
53.75
 34
0
100
AcDbRotatedDimension
  0
DIMENSION
  5
A4
100
AcDbEntity
  8
VERTICAL_EDITED
  6
ByLayer
 62
  256
370
   -1
100
AcDbDimension
  2
*D8
 10
106
 20
30.25
 30
0
 11
104.125
 21
60.375
 31
0
 70
   32
  1
59
 71
    5
  3
Standard
 53
0
210
0
220
0
230
1
100
AcDbAlignedDimension
 13
85.25
 23
90.5
 33
0
 14
84.5
 24
30.25
 34
0
 50
90
100
AcDbRotatedDimension
  0
ENDSEC
  0
SECTION
  2
OBJECTS
  0
DICTIONARY
  5
C
330
0
100
AcDbDictionary
281
    1
  3
ACAD_GROUP
350
D
  0
DICTIONARY
  5
D
330
C
100
AcDbDictionary
281
    1
  0
ENDSEC
  0
EOF
