999
dxfrw 0.6.3
  0
SECTION
  2
HEADER
  9
$ACADVER
  1
AC1021
  9
$DWGCODEPAGE
  3
ANSI_1252
  9
$INSBASE
 10
0
 20
0
 30
0
  9
$EXTMIN
 10
99.98006929170259
 20
101.7384431306642
 30
0
  9
$EXTMAX
 10
108.5751035230474
 20
104.2943934180661
 30
0
  9
$LIMMIN
 10
0
 20
0
  9
$LIMMAX
 10
12
 20
9
  9
$ORTHOMODE
 70
    1
  9
$REGENMODE
 70
    1
  9
$FILLMODE
 70
    1
  9
$QTEXTMODE
 70
    0
  9
$MIRRTEXT
 70
    0
  9
$LTSCALE
 40
1
  9
$ATTMODE
 70
    1
  9
$TEXTSIZE
 40
0.2
  9
$TRACEWID
 40
0.05
  9
$TEXTSTYLE
  7
Standard
  9
$CLAYER
  8
BLK_1_FLR_0_ACROOM_1_MEZ_AREA_1
  9
$CELTYPE
  6
ByLayer
  9
$CECOLOR
 62
  256
  9
$CELTSCALE
 40
1
  9
$DISPSILH
 70
    0
  9
$DIMSCALE
 40
1
  9
$DIMASZ
 40
0.18
  9
$DIMEXO
 40
0.0625
  9
$DIMDLI
 40
0.38
  9
$DIMRND
 40
0
  9
$DIMDLE
 40
0
  9
$DIMEXE
 40
0.18
  9
$DIMTP
 40
0
  9
$DIMTM
 40
0
  9
$DIMTXT
 40
0.18
  9
$DIMCEN
 40
0.09
  9
$DIMTSZ
 40
0
  9
$DIMTOL
 70
    0
  9
$DIMLIM
 70
    0
  9
$DIMTIH
 70
    0
  9
$DIMTOH
 70
    0
  9
$DIMSE1
 70
    0
  9
$DIMSE2
 70
    0
  9
$DIMTAD
 70
    0
  9
$DIMZIN
 70
    0
  9
$DIMBLK
  1

  9
$DIMASO
 70
    1
  9
$DIMSHO
 70
    1
  9
$DIMPOST
  1

  9
$DIMAPOST
  1

  9
$DIMALT
 70
    0
  9
$DIMALTD
 70
    2
  9
$DIMALTF
 40
25.4
  9
$DIMLFAC
 40
1
  9
$DIMTOFL
 70
    0
  9
$DIMTVP
 40
0
  9
$DIMTIX
 70
    0
  9
$DIMSOXD
 70
    0
  9
$DIMSAH
 70
    0
  9
$DIMBLK1
  1

  9
$DIMBLK2
  1

  9
$DIMSTYLE
  2
Standard
  9
$DIMCLRD
 70
    0
  9
$DIMCLRE
 70
    0
  9
$DIMCLRT
 70
    0
  9
$DIMTFAC
 40
1
  9
$DIMGAP
 40
0.09
  9
$DIMJUST
 70
    0
  9
$DIMSD1
 70
    0
  9
$DIMSD2
 70
    0
  9
$DIMTOLJ
 70
    1
  9
$DIMTZIN
 70
    0
  9
$DIMALTZ
 70
    0
  9
$DIMALTTZ
 70
    0
  9
$DIMUPT
 70
    0
  9
$DIMDEC
 70
    2
  9
$DIMTDEC
 70
    2
  9
$DIMALTU
 70
    2
  9
$DIMALTTD
 70
    2
  9
$DIMTXSTY
  7
Standard
  9
$DIMAUNIT
 70
    0
  9
$DIMADEC
 70
    0
  9
$DIMALTRND
 40
0
  9
$DIMAZIN
 70
    0
  9
$DIMDSEP
 70
   46
  9
$DIMATFIT
 70
    3
  9
$DIMFRAC
 70
    0
  9
$DIMLDRBLK
  1

  9
$DIMLUNIT
 70
    2
  9
$DIMLWD
 70
   -2
  9
$DIMLWE
 70
   -2
  9
$DIMTMOVE
 70
    0
  9
$DIMFXL
 40
7
  9
$DIMFXLON
 70
    1
  9
$DIMJOGANG
 40
0.7853981633974483
  9
$DIMTFILL
 70
    0
  9
$DIMTFILLCLR
 70
    0
  9
$DIMARCSYM
 70
    1
  9
$DIMLTYPE
  6
Continuous
  9
$DIMLTEX1
  6
Continuous
  9
$DIMLTEX2
  6
Continuous
  9
$LUNITS
 70
    2
  9
$LUPREC
 70
    3
  9
$SKETCHINC
 40
0.1
  9
$FILLETRAD
 40
0
  9
$AUNITS
 70
    0
  9
$AUPREC
 70
    2
  9
$MENU
  1
.
  9
$ELEVATION
 40
0
  9
$PELEVATION
 40
0
  9
$THICKNESS
 40
0
  9
$LIMCHECK
 70
    0
  9
$CHAMFERA
 40
0
  9
$CHAMFERB
 40
0
  9
$CHAMFERC
 40
0
  9
$CHAMFERD
 40
0
  9
$SKPOLY
 70
    0
  9
$USRTIMER
 70
    1
  9
$ANGBASE
 50
0
  9
$ANGDIR
 70
    0
  9
$PDMODE
 70
    0
  9
$PDSIZE
 40
0
  9
$PLINEWID
 40
0
  9
$SPLFRAME
 70
    0
  9
$SPLINETYPE
 70
    6
  9
$SPLINESEGS
 70
    8
  9
$HANDSEED
  5
20000
  9
$SURFTAB1
 70
    6
  9
$SURFTAB2
 70
    6
  9
$SURFTYPE
 70
    6
  9
$SURFU
 70
    6
  9
$SURFV
 70
    6
  9
$UCSBASE
  2

  9
$UCSNAME
  2

  9
$UCSORG
 10
0
 20
0
 30
0
  9
$UCSXDIR
 10
1
 20
0
 30
0
  9
$UCSYDIR
 10
0
 20
1
 30
0
  9
$UCSORTHOREF
  2

  9
$UCSORTHOVIEW
 70
    0
  9
$UCSORGTOP
 10
0
 20
0
 30
0
  9
$UCSORGBOTTOM
 10
0
 20
0
 30
0
  9
$UCSORGLEFT
 10
0
 20
0
 30
0
  9
$UCSORGRIGHT
 10
0
 20
0
 30
0
  9
$UCSORGFRONT
 10
0
 20
0
 30
0
  9
$UCSORGBACK
 10
0
 20
0
 30
0
  9
$PUCSBASE
  2

  9
$PUCSNAME
  2

  9
$PUCSORG
 10
0
 20
0
 30
0
  9
$PUCSXDIR
 10
1
 20
0
 30
0
  9
$PUCSYDIR
 10
0
 20
1
 30
0
  9
$PUCSORTHOREF
  2

  9
$PUCSORTHOVIEW
 70
    0
  9
$PUCSORGTOP
 10
0
 20
0
 30
0
  9
$PUCSORGBOTTOM
 10
0
 20
0
 30
0
  9
$PUCSORGLEFT
 10
0
 20
0
 30
0
  9
$PUCSORGRIGHT
 10
0
 20
0
 30
0
  9
$PUCSORGFRONT
 10
0
 20
0
 30
0
  9
$PUCSORGBACK
 10
0
 20
0
 30
0
  9
$USERI1
 70
    0
  9
$USERI2
 70
    0
  9
$USERI3
 70
    0
  9
$USERI4
 70
    0
  9
$USERI5
 70
    0
  9
$USERR1
 40
0
  9
$USERR2
 40
0
  9
$USERR3
 40
0
  9
$USERR4
 40
0
  9
$USERR5
 40
0
  9
$WORLDVIEW
 70
    1
  9
$SHADEDGE
 70
    3
  9
$SHADEDIF
 70
   70
  9
$TILEMODE
 70
    1
  9
$MAXACTVP
 70
   64
  9
$PINSBASE
 10
0
 20
0
 30
0
  9
$PLIMCHECK
 70
    0
  9
$PEXTMIN
 10
0
 20
0
 30
0
  9
$PEXTMAX
 10
0
 20
0
 30
0
  9
$GRIDMODE
 70
    0
  9
$SNAPSTYLE
 70
    0
  9
$PLIMMIN
 10
0
 20
0
  9
$PLIMMAX
 10
12
 20
9
  9
$UNITMODE
 70
    0
  9
$VISRETAIN
 70
    1
  9
$PLINEGEN
 70
    0
  9
$PSLTSCALE
 70
    1
  9
$TREEDEPTH
 70
 3020
  9
$CMLSTYLE
  2
Standard
  9
$CMLJUST
 70
    0
  9
$CMLSCALE
 40
1
  9
$PROXYGRAPHICS
 70
    1
  9
$MEASUREMENT
 70
    0
  9
$CELWEIGHT
370
   -1
  9
$ENDCAPS
280
    0
  9
$JOINSTYLE
280
    0
  9
$LWDISPLAY
290
    0
  9
$INSUNITS
 70
    6
  9
$HYPERLINKBASE
  1

  9
$STYLESHEET
  1

  9
$XEDIT
290
    1
  9
$CEPSNTYPE
380
    0
  9
$PSTYLEMODE
290
    1
  9
$EXTNAMES
290
    1
  9
$PSVPSCALE
 40
0
  9
$OLESTARTUP
290
    0
  9
$SORTENTS
280
  127
  9
$INDEXCTL
280
    0
  9
$HIDETEXT
280
    1
  9
$XCLIPFRAME
290
    0
  9
$HALOGAP
280
    0
  9
$OBSCOLOR
 70
  257
  9
$OBSLTYPE
280
    0
  9
$INTERSECTIONDISPLAY
280
    0
  9
$INTERSECTIONCOLOR
 70
  257
  9
$DIMASSOC
280
    2
  9
$PROJECTNAME
  1

  9
$CAMERADISPLAY
290
    0
  9
$LENSLENGTH
 40
50
  9
$CAMERAHEIGHT
 40
0
  9
$STEPSPERSEC
 40
2
  9
$STEPSIZE
 40
6
  9
$3DDWFPREC
 40
2
  9
$PSOLWIDTH
 40
0.25
  9
$PSOLHEIGHT
 40
4
  9
$LOFTANG1
 40
1.570795999999999
  9
$LOFTANG2
 40
1.570795999999999
  9
$LOFTMAG1
 40
0
  9
$LOFTMAG2
 40
0
  9
$LOFTPARAM
 70
    7
  9
$LOFTNORMALS
280
    1
  9
$LATITUDE
 40
37.795
  9
$LONGITUDE
 40
-122.394
  9
$NORTHDIRECTION
 40
0
  9
$TIMEZONE
 70
-8000
  9
$LIGHTGLYPHDISPLAY
280
    1
  9
$TILEMODELIGHTSYNCH
280
    1
  9
$SOLIDHIST
280
    0
  9
$SHOWHIST
280
    1
  9
$DWFFRAME
280
    2
  9
$DGNFRAME
280
    0
  9
$REALWORLDSCALE
290
    1
  9
$INTERFERECOLOR
 62
    1
  9
$CSHADOW
280
    0
  9
$SHADOWPLANELOCATION
 40
0
  0
ENDSEC
  0
SECTION
  2
CLASSES
  0
ENDSEC
  0
SECTION
  2
TABLES
  0
TABLE
  2
VPORT
  5
8
330
0
100
AcDbSymbolTable
 70
    1
  0
VPORT
  5
31
330
2
100
AcDbSymbolTableRecord
100
AcDbViewportTableRecord
  2
*ACTIVE
 70
    0
 10
0
 20
0
 11
1
 21
1
 12
54.33934043241946
 22
52.97451216208781
 13
0
 23
0
 14
10
 24
10
 15
10
 25
10
 16
0
 26
0
 36
1
 17
0
 27
0
 37
0
 40
5.876657263163579
 41
1.500959692898272
 42
50
 43
0
 44
0
 50
0
 51
0
 71
    0
 72
  100
 73
    1
 74
    3
 75
    0
 76
    0
 77
    0
 78
    0
281
    0
 65
    1
110
0
120
0
130
0
111
1
121
0
131
0
112
0
122
1
132
0
 79
    0
146
0
348
10020
 60
    7
 61
    5
292
1
282
    1
141
0
142
0
 63
  250
421
3358443
  0
ENDTAB
  0
TABLE
  2
LTYPE
  5
5
330
0
100
AcDbSymbolTable
 70
    4
  0
LTYPE
  5
14
330
5
100
AcDbSymbolTableRecord
100
AcDbLinetypeTableRecord
  2
ByBlock
 70
    0
  3

 72
   65
 73
    0
 40
0
  0
LTYPE
  5
15
330
5
100
AcDbSymbolTableRecord
100
AcDbLinetypeTableRecord
  2
ByLayer
 70
    0
  3

 72
   65
 73
    0
 40
0
  0
LTYPE
  5
16
330
5
100
AcDbSymbolTableRecord
100
AcDbLinetypeTableRecord
  2
Continuous
 70
    0
  3
Solid line
 72
   65
 73
    0
 40
0
  0
LTYPE
  5
32
330
5
100
AcDbSymbolTableRecord
100
AcDbLinetypeTableRecord
  2
DOT
 70
    0
  3
Dot . . . . . . . . . . . . . . . . . . . . . .
 72
   65
 73
    2
 40
6.35
 49
0
 74
    0
 49
-6.35
 74
    0
  0
LTYPE
  5
33
330
5
100
AcDbSymbolTableRecord
100
AcDbLinetypeTableRecord
  2
DOTTINY
 70
    0
  3
Dot (.15x) .....................................
 72
   65
 73
    2
 40
0.9525
 49
0
 74
    0
 49
-0.9525
 74
    0
  0
LTYPE
  5
34
330
5
100
AcDbSymbolTableRecord
100
AcDbLinetypeTableRecord
  2
DOT2
 70
    0
  3
Dot (.5x) .....................................
 72
   65
 73
    2
 40
3.175
 49
0
 74
    0
 49
-3.175
 74
    0
  0
LTYPE
  5
35
330
5
100
AcDbSymbolTableRecord
100
AcDbLinetypeTableRecord
  2
DOTX2
 70
    0
  3
Dot (2x) .  .  .  .  .  .  .  .  .  .  .  .  .
 72
   65
 73
    2
 40
12.7
 49
0
 74
    0
 49
-12.7
 74
    0
  0
LTYPE
  5
36
330
5
100
AcDbSymbolTableRecord
100
AcDbLinetypeTableRecord
  2
DASHED
 70
    0
  3
Dashed _ _ _ _ _ _ _ _ _ _ _ _ _ _ _ _ _
 72
   65
 73
    2
 40
19.05
 49
12.7
 74
    0
 49
-6.35
 74
    0
  0
LTYPE
  5
37
330
5
100
AcDbSymbolTableRecord
100
AcDbLinetypeTableRecord
  2
DASHEDTINY
 70
    0
  3
Dashed (.15x) _ _ _ _ _ _ _ _ _ _ _ _ _ _ _ _ _
 72
   65
 73
    2
 40
2.8575
 49
1.905
 74
    0
 49
-0.9525
 74
    0
  0
LTYPE
  5
38
330
5
100
AcDbSymbolTableRecord
100
AcDbLinetypeTableRecord
  2
DASHED2
 70
    0
  3
Dashed (.5x) _ _ _ _ _ _ _ _ _ _ _ _ _ _ _ _ _
 72
   65
 73
    2
 40
9.524999999999999
 49
6.35
 74
    0
 49
-3.175
 74
    0
  0
LTYPE
  5
39
330
5
100
AcDbSymbolTableRecord
100
AcDbLinetypeTableRecord
  2
DASHEDX2
 70
    0
  3
Dashed (2x) ____  ____  ____  ____  ____  ___
 72
   65
 73
    2
 40
38.09999999999999
 49
25.4
 74
    0
 49
-12.7
 74
    0
  0
LTYPE
  5
3A
330
5
100
AcDbSymbolTableRecord
100
AcDbLinetypeTableRecord
  2
DASHDOT
 70
    0
  3
Dash dot __ . __ . __ . __ . __ . __ . __ . __
 72
   65
 73
    4
 40
25.4
 49
12.7
 74
    0
 49
-6.35
 74
    0
 49
0
 74
    0
 49
-6.35
 74
    0
  0
LTYPE
  5
3B
330
5
100
AcDbSymbolTableRecord
100
AcDbLinetypeTableRecord
  2
DASHDOTTINY
 70
    0
  3
Dash dot (.15x) _._._._._._._._._._._._._._._.
 72
   65
 73
    4
 40
3.81
 49
1.905
 74
    0
 49
-0.9525
 74
    0
 49
0
 74
    0
 49
-0.9525
 74
    0
  0
LTYPE
  5
3C
330
5
100
AcDbSymbolTableRecord
100
AcDbLinetypeTableRecord
  2
DASHDOT2
 70
    0
  3
Dash dot (.5x) _._._._._._._._._._._._._._._.
 72
   65
 73
    4
 40
12.7
 49
6.35
 74
    0
 49
-3.175
 74
    0
 49
0
 74
    0
 49
-3.175
 74
    0
  0
LTYPE
  5
3D
330
5
100
AcDbSymbolTableRecord
100
AcDbLinetypeTableRecord
  2
DASHDOTX2
 70
    0
  3
Dash dot (2x) ____  .  ____  .  ____  .  ___
 72
   65
 73
    4
 40
50.8
 49
25.4
 74
    0
 49
-12.7
 74
    0
 49
0
 74
    0
 49
-12.7
 74
    0
  0
LTYPE
  5
3E
330
5
100
AcDbSymbolTableRecord
100
AcDbLinetypeTableRecord
  2
DIVIDE
 70
    0
  3
Divide ____ . . ____ . . ____ . . ____ . . ____
 72
   65
 73
    6
 40
31.75
 49
12.7
 74
    0
 49
-6.35
 74
    0
 49
0
 74
    0
 49
-6.35
 74
    0
 49
0
 74
    0
 49
-6.35
 74
    0
  0
LTYPE
  5
3F
330
5
100
AcDbSymbolTableRecord
100
AcDbLinetypeTableRecord
  2
DIVIDETINY
 70
    0
  3
Divide (.15x) __..__..__..__..__..__..__..__.._
 72
   65
 73
    6
 40
4.7625
 49
1.905
 74
    0
 49
-0.9525
 74
    0
 49
0
 74
    0
 49
-0.9525
 74
    0
 49
0
 74
    0
 49
-0.9525
 74
    0
  0
LTYPE
  5
40
330
5
100
AcDbSymbolTableRecord
100
AcDbLinetypeTableRecord
  2
DIVIDE2
 70
    0
  3
Divide (.5x) __..__..__..__..__..__..__..__.._
 72
   65
 73
    6
 40
15.875
 49
6.35
 74
    0
 49
-3.175
 74
    0
 49
0
 74
    0
 49
-3.175
 74
    0
 49
0
 74
    0
 49
-3.175
 74
    0
  0
LTYPE
  5
41
330
5
100
AcDbSymbolTableRecord
100
AcDbLinetypeTableRecord
  2
DIVIDEX2
 70
    0
  3
Divide (2x) ________  .  .  ________  .  .  _
 72
   65
 73
    6
 40
63.5
 49
25.4
 74
    0
 49
-12.7
 74
    0
 49
0
 74
    0
 49
-12.7
 74
    0
 49
0
 74
    0
 49
-12.7
 74
    0
  0
LTYPE
  5
42
330
5
100
AcDbSymbolTableRecord
100
AcDbLinetypeTableRecord
  2
BORDER
 70
    0
  3
Border __ __ . __ __ . __ __ . __ __ . __ __ .
 72
   65
 73
    6
 40
44.45
 49
12.7
 74
    0
 49
-6.35
 74
    0
 49
12.7
 74
    0
 49
-6.35
 74
    0
 49
0
 74
    0
 49
-6.35
 74
    0
  0
LTYPE
  5
43
330
5
100
AcDbSymbolTableRecord
100
AcDbLinetypeTableRecord
  2
BORDERTINY
 70
    0
  3
Border (.15x) __.__.__.__.__.__.__.__.__.__.__.
 72
   65
 73
    6
 40
6.6675
 49
1.905
 74
    0
 49
-0.9525
 74
    0
 49
1.905
 74
    0
 49
-0.9525
 74
    0
 49
0
 74
    0
 49
-0.9525
 74
    0
  0
LTYPE
  5
44
330
5
100
AcDbSymbolTableRecord
100
AcDbLinetypeTableRecord
  2
BORDER2
 70
    0
  3
Border (.5x) __.__.__.__.__.__.__.__.__.__.__.
 72
   65
 73
    6
 40
22.225
 49
6.35
 74
    0
 49
-3.175
 74
    0
 49
6.35
 74
    0
 49
-3.175
 74
    0
 49
0
 74
    0
 49
-3.175
 74
    0
  0
LTYPE
  5
45
330
5
100
AcDbSymbolTableRecord
100
AcDbLinetypeTableRecord
  2
BORDERX2
 70
    0
  3
Border (2x) ____  ____  .  ____  ____  .  ___
 72
   65
 73
    6
 40
88.89999999999999
 49
25.4
 74
    0
 49
-12.7
 74
    0
 49
25.4
 74
    0
 49
-12.7
 74
    0
 49
0
 74
    0
 49
-12.7
 74
    0
  0
LTYPE
  5
46
330
5
100
AcDbSymbolTableRecord
100
AcDbLinetypeTableRecord
  2
CENTER
 70
    0
  3
Center ____ _ ____ _ ____ _ ____ _ ____ _ ____
 72
   65
 73
    4
 40
50.8
 49
31.75
 74
    0
 49
-6.35
 74
    0
 49
6.35
 74
    0
 49
-6.35
 74
    0
  0
LTYPE
  5
47
330
5
100
AcDbSymbolTableRecord
100
AcDbLinetypeTableRecord
  2
CENTERTINY
 70
    0
  3
Center (.15x) ___ _ ___ _ ___ _ ___ _ ___ _ ___
 72
   65
 73
    4
 40
7.619999999999999
 49
4.7625
 74
    0
 49
-0.9525
 74
    0
 49
0.9525
 74
    0
 49
-0.9525
 74
    0
  0
LTYPE
  5
48
330
5
100
AcDbSymbolTableRecord
100
AcDbLinetypeTableRecord
  2
CENTER2
 70
    0
  3
Center (.5x) ___ _ ___ _ ___ _ ___ _ ___ _ ___
 72
   65
 73
    4
 40
28.575
 49
19.05
 74
    0
 49
-3.175
 74
    0
 49
3.175
 74
    0
 49
-3.175
 74
    0
  0
LTYPE
  5
49
330
5
100
AcDbSymbolTableRecord
100
AcDbLinetypeTableRecord
  2
CENTERX2
 70
    0
  3
Center (2x) ________  __  ________  __  _____
 72
   65
 73
    4
 40
101.6
 49
63.5
 74
    0
 49
-12.7
 74
    0
 49
12.7
 74
    0
 49
-12.7
 74
    0
  0
ENDTAB
  0
TABLE
  2
LAYER
  5
2
330
0
100
AcDbSymbolTable
 70
    1
  0
LAYER
  5
10
330
2
100
AcDbSymbolTableRecord
100
AcDbLayerTableRecord
  2
0
 70
    1
 62
    7
  6
CONTINUOUS
370
   -3
390
F
  0
LAYER
  5
4A
330
2
100
AcDbSymbolTableRecord
100
AcDbLayerTableRecord
  2
BLK_1_COVERED_AREA
 70
    1
 62
  140
  6
CONTINUOUS
290
0
370
   -3
390
F
1001
LibreCad
1070
    1
  0
LAYER
  5
4B
330
2
100
AcDbSymbolTableRecord
100
AcDbLayerTableRecord
  2
BLK_1_DA_RAMP_1
 70
    1
 62
  160
  6
CONTINUOUS
370
   -3
390
F
  0
LAYER
  5
4C
330
2
100
AcDbSymbolTableRecord
100
AcDbLayerTableRecord
  2
BLK_1_FLR_0_ACROOM_1_MEZ_AREA_1
 70
    0
 62
    7
  6
CONTINUOUS
370
    0
390
F
  0
LAYER
  5
4D
330
2
100
AcDbSymbolTableRecord
100
AcDbLayerTableRecord
  2
BLK_1_FLR_0_BLT_UP_AREA
 70
    1
 62
   25
  6
CONTINUOUS
370
   -3
390
F
  0
LAYER
  5
4E
330
2
100
AcDbSymbolTableRecord
100
AcDbLayerTableRecord
  2
BLK_1_FLR_0_COVERED_PARKING
 70
    1
 62
  173
  6
CONTINUOUS
370
   -3
390
F
  0
LAYER
  5
4F
330
2
100
AcDbSymbolTableRecord
100
AcDbLayerTableRecord
  2
BLK_1_FLR_0_GLASS_FACADE_2
 70
    1
 62
    7
  6
CONTINUOUS
370
    0
390
F
  0
LAYER
  5
50
330
2
100
AcDbSymbolTableRecord
100
AcDbLayerTableRecord
  2
BLK_1_FLR_0_REGULAR_ROOM
 70
    1
 62
  117
  6
CONTINUOUS
370
   -3
390
F
  0
LAYER
  5
51
330
2
100
AcDbSymbolTableRecord
100
AcDbLayerTableRecord
  2
BLK_1_FLR_0_ROOF_AREA
 70
    1
 62
    7
  6
CONTINUOUS
370
    0
390
F
  0
LAYER
  5
52
330
2
100
AcDbSymbolTableRecord
100
AcDbLayerTableRecord
  2
BLK_1_FLR_0_ROOM_1_MEZ_AREA_1
 70
    0
 62
    7
  6
CONTINUOUS
370
    0
390
F
  0
LAYER
  5
53
330
2
100
AcDbSymbolTableRecord
100
AcDbLayerTableRecord
  2
BLK_1_FLR_0_ROOM_1_MEZ_AREA_2
 70
    0
 62
    7
  6
CONTINUOUS
370
    0
390
F
  0
LAYER
  5
54
330
2
100
AcDbSymbolTableRecord
100
AcDbLayerTableRecord
  2
BLK_1_FLR_0_STAIR_1
 70
    1
 62
    1
  6
CONTINUOUS
370
   -3
390
F
  0
LAYER
  5
55
330
2
100
AcDbSymbolTableRecord
100
AcDbLayerTableRecord
  2
BLK_1_FLR_0_STAIR_1_FLIGHT_1
 70
    1
 62
    1
  6
CONTINUOUS
370
   -3
390
F
  0
LAYER
  5
56
330
2
100
AcDbSymbolTableRecord
100
AcDbLayerTableRecord
  2
BLK_1_FLR_0_STAIR_1_FLIGHT_2
 70
    1
 62
    1
  6
CONTINUOUS
370
   -3
390
F
  0
LAYER
  5
57
330
2
100
AcDbSymbolTableRecord
100
AcDbLayerTableRecord
  2
BLK_1_FLR_0_STAIR_1_LANDING_1
 70
    1
 62
    1
  6
CONTINUOUS
370
   -3
390
F
  0
LAYER
  5
58
330
2
100
AcDbSymbolTableRecord
100
AcDbLayerTableRecord
  2
BLK_1_HT_OF_BLDG
 70
    1
 62
    5
  6
CONTINUOUS
290
0
370
   -3
390
F
1001
LibreCad
1070
    1
  0
LAYER
  5
59
330
2
100
AcDbSymbolTableRecord
100
AcDbLayerTableRecord
  2
BLK_1_LVL_0_BLDG_FOOT_PRINT
 70
    1
 62
    1
  6
CONTINUOUS
290
0
370
   -3
390
F
1001
LibreCad
1070
    1
  0
LAYER
  5
5A
330
2
100
AcDbSymbolTableRecord
100
AcDbLayerTableRecord
  2
BLK_1_LVL_0_FRONT_SETBACK
 70
    1
 62
    2
  6
CONTINUOUS
370
   -3
390
F
  0
LAYER
  5
5B
330
2
100
AcDbSymbolTableRecord
100
AcDbLayerTableRecord
  2
BLK_1_LVL_0_REAR_SETBACK
 70
    1
 62
   11
  6
CONTINUOUS
370
   -3
390
F
  0
LAYER
  5
5C
330
2
100
AcDbSymbolTableRecord
100
AcDbLayerTableRecord
  2
BLK_1_LVL_0_SIDE_SETBACK1
 70
    1
 62
  171
  6
CONTINUOUS
370
   -3
390
F
  0
LAYER
  5
5D
330
2
100
AcDbSymbolTableRecord
100
AcDbLayerTableRecord
  2
BLK_1_MUMTY_HT
 70
    1
 62
  235
  6
CONTINUOUS
370
   -3
390
F
  0
LAYER
  5
5E
330
2
100
AcDbSymbolTableRecord
100
AcDbLayerTableRecord
  2
BLK_1_PARAPET_HT
 70
    1
 62
  233
  6
CONTINUOUS
370
   -3
390
F
  0
LAYER
  5
5F
330
2
100
AcDbSymbolTableRecord
100
AcDbLayerTableRecord
  2
BLK_1_PLANTATION_GREENSTRIP
 70
    1
 62
   75
  6
CONTINUOUS
370
   -3
390
F
  0
LAYER
  5
60
330
2
100
AcDbSymbolTableRecord
100
AcDbLayerTableRecord
  2
BLK_1_PLINTH_HEIGHT
 70
    1
 62
  150
  6
CONTINUOUS
370
   -3
390
F
  0
LAYER
  5
61
330
2
100
AcDbSymbolTableRecord
100
AcDbLayerTableRecord
  2
BLK_1_STAIR_HEADROOM
 70
    1
 62
    1
  6
CONTINUOUS
370
   -3
390
F
  0
LAYER
  5
62
330
2
100
AcDbSymbolTableRecord
100
AcDbLayerTableRecord
  2
Defpoints
 70
    1
 62
    7
  6
CONTINUOUS
290
0
370
   -3
390
F
1001
LibreCad
1070
    1
  0
LAYER
  5
63
330
2
100
AcDbSymbolTableRecord
100
AcDbLayerTableRecord
  2
LOCATION_PLAN
 70
    1
 62
    7
  6
CONTINUOUS
370
   -3
390
F
  0
LAYER
  5
64
330
2
100
AcDbSymbolTableRecord
100
AcDbLayerTableRecord
  2
NORTH_DIRECTION
 70
    1
 62
    4
  6
CONTINUOUS
370
   -3
390
F
  0
LAYER
  5
65
330
2
100
AcDbSymbolTableRecord
100
AcDbLayerTableRecord
  2
PLAN_INFO
 70
    1
 62
    1
  6
CONTINUOUS
290
0
370
   -3
390
F
1001
LibreCad
1070
    1
  0
LAYER
  5
66
330
2
100
AcDbSymbolTableRecord
100
AcDbLayerTableRecord
  2
PLOT_BOUNDARY
 70
    1
 62
   70
  6
CONTINUOUS
290
0
370
   -3
390
F
1001
LibreCad
1070
    1
  0
LAYER
  5
67
330
2
100
AcDbSymbolTableRecord
100
AcDbLayerTableRecord
  2
RWH_1
 70
    1
 62
    4
  6
CONTINUOUS
370
   -3
390
F
  0
LAYER
  5
68
330
2
100
AcDbSymbolTableRecord
100
AcDbLayerTableRecord
  2
RWH_2
 70
    1
 62
    7
  6
CONTINUOUS
370
    0
390
F
  0
LAYER
  5
69
330
2
100
AcDbSymbolTableRecord
100
AcDbLayerTableRecord
  2
RWH_3
 70
    1
 62
    7
  6
CONTINUOUS
370
    0
390
F
  0
LAYER
  5
6A
330
2
100
AcDbSymbolTableRecord
100
AcDbLayerTableRecord
  2
SEPTIC_TANK
 70
    1
 62
  146
  6
CONTINUOUS
370
   -3
390
F
  0
LAYER
  5
6B
330
2
100
AcDbSymbolTableRecord
100
AcDbLayerTableRecord
  2
SOLAR_PANEL
 70
    1
 62
  249
  6
CONTINUOUS
370
   -3
390
F
  0
LAYER
  5
6C
330
2
100
AcDbSymbolTableRecord
100
AcDbLayerTableRecord
  2
SOLAR_WATER_HEATER
 70
    1
 62
  239
  6
CONTINUOUS
370
   -3
390
F
  0
LAYER
  5
6D
330
2
100
AcDbSymbolTableRecord
100
AcDbLayerTableRecord
  2
WASTE_MANAGEMENT
 70
    1
 62
  240
  6
CONTINUOUS
370
   -3
390
F
  0
ENDTAB
  0
TABLE
  2
STYLE
  5
3
330
0
100
AcDbSymbolTable
 70
    3
  0
STYLE
  5
6E
330
2
100
AcDbSymbolTableRecord
100
AcDbTextStyleTableRecord
  2
123
 70
    0
 40
0
 41
1
 50
0
 71
    0
 42
1
  3
123
  4

  0
STYLE
  5
6F
330
2
100
AcDbSymbolTableRecord
100
AcDbTextStyleTableRecord
  2
standard
 70
    0
 40
0
 41
1
 50
0
 71
    0
 42
1
  3
standard
  4

  0
ENDTAB
  0
TABLE
  2
VIEW
  5
6
330
0
100
AcDbSymbolTable
 70
    0
  0
ENDTAB
  0
TABLE
  2
UCS
  5
7
330
0
100
AcDbSymbolTable
 70
    0
  0
ENDTAB
  0
TABLE
  2
APPID
  5
9
330
0
100
AcDbSymbolTable
 70
    1
  0
APPID
  5
12
330
9
100
AcDbSymbolTableRecord
100
AcDbRegAppTableRecord
  2
ACAD
 70
    0
  0
APPID
  5
70
330
9
100
AcDbSymbolTableRecord
100
AcDbRegAppTableRecord
  2
LibreCad
 70
    0
  0
ENDTAB
  0
TABLE
  2
DIMSTYLE
  5
A
330
0
100
AcDbSymbolTable
 70
    1
100
AcDbDimStyleTable
 71
    1
  0
DIMSTYLE
105
71
330
A
100
AcDbSymbolTableRecord
100
AcDbDimStyleTableRecord
  2
Standard
 70
    0
 40
1
 41
0.18
 42
0.0625
 43
0.38
 44
0.18
 45
0
 46
0
 47
0
 48
0
 49
7
140
0.18
141
0.09
142
0
143
25.4
144
1
145
0
146
1
147
0.09
148
0
 71
    0
 72
    0
 73
    0
 74
    1
 75
    0
 76
    0
 77
    0
 78
    0
 79
    0
170
    0
171
    2
172
    0
173
    0
174
    0
175
    0
176
    0
177
    0
178
    0
179
    0
271
    2
272
    4
273
    2
274
    2
275
    0
276
    0
277
    2
278
   46
279
    0
280
    0
281
    0
282
    0
283
    1
284
    0
285
    0
286
    0
288
    0
289
    3
290
    1
340
Standard
341

371
   -2
372
   -2
  0
ENDTAB
  0
TABLE
  2
BLOCK_RECORD
  5
1
330
0
100
AcDbSymbolTable
 70
    2
  0
BLOCK_RECORD
  5
1F
330
1
100
AcDbSymbolTableRecord
100
AcDbBlockTableRecord
  2
*Model_Space
 70
    0
280
    1
281
    0
  0
BLOCK_RECORD
  5
1E
330
1
100
AcDbSymbolTableRecord
100
AcDbBlockTableRecord
  2
*Paper_Space
 70
    0
280
    1
281
    0
  0
BLOCK_RECORD
  5
72
330
1
100
AcDbSymbolTableRecord
100
AcDbBlockTableRecord
  2
*D2
 70
    0
280
    1
281
    0
  0
BLOCK_RECORD
  5
75
330
1
100
AcDbSymbolTableRecord
100
AcDbBlockTableRecord
  2
*D25
 70
    0
280
    1
281
    0
  0
BLOCK_RECORD
  5
78
330
1
100
AcDbSymbolTableRecord
100
AcDbBlockTableRecord
  2
*D3
 70
    0
280
    1
281
    0
  0
BLOCK_RECORD
  5
7B
330
1
100
AcDbSymbolTableRecord
100
AcDbBlockTableRecord
  2
*D7
 70
    0
280
    1
281
    0
  0
BLOCK_RECORD
  5
7E
330
1
100
AcDbSymbolTableRecord
100
AcDbBlockTableRecord
  2
*D35
 70
    0
280
    1
281
    0
  0
BLOCK_RECORD
  5
81
330
1
100
AcDbSymbolTableRecord
100
AcDbBlockTableRecord
  2
*D19
 70
    0
280
    1
281
    0
  0
BLOCK_RECORD
  5
84
330
1
100
AcDbSymbolTableRecord
100
AcDbBlockTableRecord
  2
*D24
 70
    0
280
    1
281
    0
  0
BLOCK_RECORD
  5
87
330
1
100
AcDbSymbolTableRecord
100
AcDbBlockTableRecord
  2
*D40
 70
    0
280
    1
281
    0
  0
BLOCK_RECORD
  5
8A
330
1
100
AcDbSymbolTableRecord
100
AcDbBlockTableRecord
  2
*D36
 70
    0
280
    1
281
    0
  0
BLOCK_RECORD
  5
8D
330
1
100
AcDbSymbolTableRecord
100
AcDbBlockTableRecord
  2
*D26
 70
    0
280
    1
281
    0
  0
BLOCK_RECORD
  5
90
330
1
100
AcDbSymbolTableRecord
100
AcDbBlockTableRecord
  2
*D23
 70
    0
280
    1
281
    0
  0
BLOCK_RECORD
  5
93
330
1
100
AcDbSymbolTableRecord
100
AcDbBlockTableRecord
  2
*D8
 70
    0
280
    1
281
    0
  0
BLOCK_RECORD
  5
96
330
1
100
AcDbSymbolTableRecord
100
AcDbBlockTableRecord
  2
*D31
 70
    0
280
    1
281
    0
  0
BLOCK_RECORD
  5
99
330
1
100
AcDbSymbolTableRecord
100
AcDbBlockTableRecord
  2
*D15
 70
    0
280
    1
281
    0
  0
BLOCK_RECORD
  5
9C
330
1
100
AcDbSymbolTableRecord
100
AcDbBlockTableRecord
  2
*D9
 70
    0
280
    1
281
    0
  0
BLOCK_RECORD
  5
9F
330
1
100
AcDbSymbolTableRecord
100
AcDbBlockTableRecord
  2
*D11
 70
    0
280
    1
281
    0
  0
BLOCK_RECORD
  5
A2
330
1
100
AcDbSymbolTableRecord
100
AcDbBlockTableRecord
  2
*D22
 70
    0
280
    1
281
    0
  0
BLOCK_RECORD
  5
A5
330
1
100
AcDbSymbolTableRecord
100
AcDbBlockTableRecord
  2
*D5
 70
    0
280
    1
281
    0
  0
BLOCK_RECORD
  5
A8
330
1
100
AcDbSymbolTableRecord
100
AcDbBlockTableRecord
  2
*D20
 70
    0
280
    1
281
    0
  0
BLOCK_RECORD
  5
AB
330
1
100
AcDbSymbolTableRecord
100
AcDbBlockTableRecord
  2
*D39
 70
    0
280
    1
281
    0
  0
BLOCK_RECORD
  5
AE
330
1
100
AcDbSymbolTableRecord
100
AcDbBlockTableRecord
  2
*D10
 70
    0
280
    1
281
    0
  0
BLOCK_RECORD
  5
B1
330
1
100
AcDbSymbolTableRecord
100
AcDbBlockTableRecord
  2
*D1
 70
    0
280
    1
281
    0
  0
BLOCK_RECORD
  5
B4
330
1
100
AcDbSymbolTableRecord
100
AcDbBlockTableRecord
  2
*D30
 70
    0
280
    1
281
    0
  0
BLOCK_RECORD
  5
B7
330
1
100
AcDbSymbolTableRecord
100
AcDbBlockTableRecord
  2
*D34
 70
    0
280
    1
281
    0
  0
BLOCK_RECORD
  5
BA
330
1
100
AcDbSymbolTableRecord
100
AcDbBlockTableRecord
  2
*D17
 70
    0
280
    1
281
    0
  0
BLOCK_RECORD
  5
BD
330
1
100
AcDbSymbolTableRecord
100
AcDbBlockTableRecord
  2
*D4
 70
    0
280
    1
281
    0
  0
BLOCK_RECORD
  5
C0
330
1
100
AcDbSymbolTableRecord
100
AcDbBlockTableRecord
  2
*D37
 70
    0
280
    1
281
    0
  0
BLOCK_RECORD
  5
C3
330
1
100
AcDbSymbolTableRecord
100
AcDbBlockTableRecord
  2
*D32
 70
    0
280
    1
281
    0
  0
BLOCK_RECORD
  5
C6
330
1
100
AcDbSymbolTableRecord
100
AcDbBlockTableRecord
  2
*D12
 70
    0
280
    1
281
    0
  0
BLOCK_RECORD
  5
C9
330
1
100
AcDbSymbolTableRecord
100
AcDbBlockTableRecord
  2
*D28
 70
    0
280
    1
281
    0
  0
BLOCK_RECORD
  5
CC
330
1
100
AcDbSymbolTableRecord
100
AcDbBlockTableRecord
  2
*D38
 70
    0
280
    1
281
    0
  0
BLOCK_RECORD
  5
CF
330
1
100
AcDbSymbolTableRecord
100
AcDbBlockTableRecord
  2
*D18
 70
    0
280
    1
281
    0
  0
BLOCK_RECORD
  5
D2
330
1
100
AcDbSymbolTableRecord
100
AcDbBlockTableRecord
  2
*D21
 70
    0
280
    1
281
    0
  0
BLOCK_RECORD
  5
D5
330
1
100
AcDbSymbolTableRecord
100
AcDbBlockTableRecord
  2
*D33
 70
    0
280
    1
281
    0
  0
BLOCK_RECORD
  5
D8
330
1
100
AcDbSymbolTableRecord
100
AcDbBlockTableRecord
  2
*D27
 70
    0
280
    1
281
    0
  0
BLOCK_RECORD
  5
DB
330
1
100
AcDbSymbolTableRecord
100
AcDbBlockTableRecord
  2
*D29
 70
    0
280
    1
281
    0
  0
BLOCK_RECORD
  5
DE
330
1
100
AcDbSymbolTableRecord
100
AcDbBlockTableRecord
  2
*D14
 70
    0
280
    1
281
    0
  0
BLOCK_RECORD
  5
E1
330
1
100
AcDbSymbolTableRecord
100
AcDbBlockTableRecord
  2
*D6
 70
    0
280
    1
281
    0
  0
BLOCK_RECORD
  5
E4
330
1
100
AcDbSymbolTableRecord
100
AcDbBlockTableRecord
  2
*D16
 70
    0
280
    1
281
    0
  0
BLOCK_RECORD
  5
E7
330
1
100
AcDbSymbolTableRecord
100
AcDbBlockTableRecord
  2
*D13
 70
    0
280
    1
281
    0
  0
BLOCK_RECORD
  5
EA
330
1
100
AcDbSymbolTableRecord
100
AcDbBlockTableRecord
  2
_ArchTick
 70
    0
280
    1
281
    0
  0
ENDTAB
  0
ENDSEC
  0
SECTION
  2
BLOCKS
  0
BLOCK
  5
20
330
1F
100
AcDbEntity
  8
0
100
AcDbBlockBegin
  2
*Model_Space
 70
    0
 10
0
 20
0
 30
0
  3
*Model_Space
  1

  0
ENDBLK
  5
21
330
1F
100
AcDbEntity
  8
0
100
AcDbBlockEnd
  0
BLOCK
  5
1C
330
1B
100
AcDbEntity
  8
0
100
AcDbBlockBegin
  2
*Paper_Space
 70
    0
 10
0
 20
0
 30
0
  3
*Paper_Space
  1

  0
ENDBLK
  5
1D
330
1F
100
AcDbEntity
  8
0
100
AcDbBlockEnd
  0
BLOCK
  5
73
330
72
100
AcDbEntity
  8
0
100
AcDbBlockBegin
  2
*D2
 70
    1
 10
0
 20
0
  3
*D2
  1

  0
LINE
  5
ED
100
AcDbEntity
  8
0
  6
CONTINUOUS
 62
    7
370
    0
100
AcDbLine
 10
95.89035429487942
 20
112.9075475349253
 11
97.16229076064545
 21
113.7839139349279
  0
LINE
  5
EE
100
AcDbEntity
  8
0
  6
CONTINUOUS
 62
    7
370
    0
100
AcDbLine
 10
97.16229076064545
 20
113.7839139349279
 11
97.67788871088328
 21
113.7839139349279
  0
SOLID
  5
EF
100
AcDbEntity
  8
0
  6
CONTINUOUS
 62
    7
370
    0
100
AcDbTrace
 10
95.89035429487942
 20
112.9075475349253
 30
0
 11
96.02157240817873
 21
113.0343550947167
 31
0
 12
96.05558329199664
 22
112.9849925411537
 32
0
 13
96.05558329199664
 23
112.9849925411537
 33
0
  0
ENDBLK
  5
74
330
72
100
AcDbEntity
  8
0
100
AcDbBlockEnd
  0
BLOCK
  5
76
330
75
100
AcDbEntity
  8
0
100
AcDbBlockBegin
  2
*D25
 70
    1
 10
0
 20
0
  3
*D25
  1

  0
LINE
  5
F0
100
AcDbEntity
  8
BLK_1_FLR_0_STAIR_1_FLIGHT_1
  6
ByBlock
 62
    0
370
   -2
100
AcDbLine
 10
101.447454025202
 20
101.9328681893414
 11
101.447454025202
 21
101.674150324641
  0
LINE
  5
F1
100
AcDbEntity
  8
BLK_1_FLR_0_STAIR_1_FLIGHT_1
  6
ByBlock
 62
    0
370
   -2
100
AcDbLine
 10
102.6474540252011
 20
101.9328681893414
 11
102.6474540252011
 21
101.674150324641
  0
LINE
  5
F2
100
AcDbEntity
  8
BLK_1_FLR_0_STAIR_1_FLIGHT_1
  6
ByBlock
 62
    0
370
   -2
100
AcDbLine
 10
101.447454025202
 20
101.854150324641
 11
102.6474540252011
 21
101.854150324641
  0
SOLID
  5
F3
100
AcDbEntity
  8
BLK_1_FLR_0_STAIR_1_FLIGHT_1
  6
ByBlock
 62
    0
370
   -2
100
AcDbTrace
 10
101.447454025202
 20
101.854150324641
 30
0
 11
101.627454025202
 21
101.8841228200006
 31
0
 12
101.627454025202
 22
101.8241778292814
 32
0
 13
101.627454025202
 23
101.8241778292814
 33
0
  0
SOLID
  5
F4
100
AcDbEntity
  8
BLK_1_FLR_0_STAIR_1_FLIGHT_1
  6
ByBlock
 62
    0
370
   -2
100
AcDbTrace
 10
102.6474540252011
 20
101.854150324641
 30
0
 11
102.4674540252011
 21
101.8241778292814
 31
0
 12
102.4674540252011
 22
101.8841228200006
 32
0
 13
102.4674540252011
 23
101.8841228200006
 33
0
  0
MTEXT
  5
F5
100
AcDbEntity
  8
BLK_1_FLR_0_STAIR_1_FLIGHT_1
  6
CONTINUOUS
 62
    0
370
   -2
100
AcDbMText
 10
102.0474540252016
 20
101.854150324641
 30
0
 40
0.18
 41
0.38
 71
    5
 72
    1
  1
1.20
  7
Standard
210
0
220
0
230
1
 50
0
 73
    2
 44
1
  0
ENDBLK
  5
77
330
75
100
AcDbEntity
  8
0
100
AcDbBlockEnd
  0
BLOCK
  5
79
330
78
100
AcDbEntity
  8
0
100
AcDbBlockBegin
  2
*D3
 70
    1
 10
0
 20
0
  3
*D3
  1

  0
LINE
  5
F6
100
AcDbEntity
  8
0
  6
CONTINUOUS
 62
    7
370
    0
100
AcDbLine
 10
95.72343549330843
 20
113.4284722390056
 11
97.16229076064545
 21
114.1210978081234
  0
LINE
  5
F7
100
AcDbEntity
  8
0
  6
CONTINUOUS
 62
    7
370
    0
100
AcDbLine
 10
97.16229076064545
 20
114.1210978081234
 11
97.67534273462253
 21
114.1210978081234
  0
SOLID
  5
F8
100
AcDbEntity
  8
0
  6
CONTINUOUS
 62
    7
370
    0
100
AcDbTrace
 10
95.72343549330843
 20
113.4284722390056
 30
0
 11
95.87262254215527
 21
113.5335511376221
 31
0
 12
95.89862284315166
 22
113.4795383034025
 32
0
 13
95.89862284315166
 23
113.4795383034025
 33
0
  0
ENDBLK
  5
7A
330
78
100
AcDbEntity
  8
0
100
AcDbBlockEnd
  0
BLOCK
  5
7C
330
7B
100
AcDbEntity
  8
0
100
AcDbBlockBegin
  2
*D7
 70
    1
 10
0
 20
0
  3
*D7
  1

  0
LINE
  5
F9
100
AcDbEntity
  8
0
  6
ByBlock
 62
    0
370
   -2
100
AcDbLine
 10
96.36658543573937
 20
115.4308899844435
 11
96.96658543573947
 21
115.4308899844435
  0
SOLID
  5
FA
100
AcDbEntity
  8
0
  6
ByBlock
 62
    0
370
   -2
100
AcDbTrace
 10
96.36658543573937
 20
115.4308899844435
 30
0
 11
96.54658543573937
 21
115.4608624798031
 31
0
 12
96.54658543573937
 22
115.4009174890839
 32
0
 13
96.54658543573937
 23
115.4009174890839
 33
0
  0
SOLID
  5
FB
100
AcDbEntity
  8
0
  6
ByBlock
 62
    0
370
   -2
100
AcDbTrace
 10
96.96658543573947
 20
115.4308899844435
 30
0
 11
96.78658543573947
 21
115.4009174890839
 31
0
 12
96.78658543573947
 22
115.4608624798031
 32
0
 13
96.78658543573947
 23
115.4608624798031
 33
0
  0
MTEXT
  5
FC
100
AcDbEntity
  8
0
  6
CONTINUOUS
 62
    0
370
   -2
100
AcDbMText
 10
97.47005746848166
 20
115.4308899844435
 30
0
 40
0.18
 41
0.4200000000000113
 71
    5
 72
    1
  1
0.60
  7
Standard
210
0
220
0
230
1
 50
0
 73
    2
 44
1
  0
LINE
  5
FD
100
AcDbEntity
  8
0
  6
ByBlock
 62
    0
370
   -2
100
AcDbLine
 10
96.36658543573937
 20
115.5234577116674
 11
96.36658543573937
 21
115.2508899844435
  0
LINE
  5
FE
100
AcDbEntity
  8
0
  6
ByBlock
 62
    0
370
   -2
100
AcDbLine
 10
96.96658543573947
 20
115.5234577116465
 11
96.96658543573947
 21
115.2508899844435
  0
ENDBLK
  5
7D
330
7B
100
AcDbEntity
  8
0
100
AcDbBlockEnd
  0
BLOCK
  5
7F
330
7E
100
AcDbEntity
  8
0
100
AcDbBlockBegin
  2
*D35
 70
    1
 10
0
 20
0
  3
*D35
  1

  0
LINE
  5
FF
100
AcDbEntity
  8
BLK_1_FLR_0_GLASS_FACADE_2
  6
ByBlock
 62
    0
370
   -2
100
AcDbLine
 10
102.1794107957737
 20
103.3417269051572
 11
102.1794107957737
 21
100.9417269051572
  0
SOLID
  5
100
100
AcDbEntity
  8
BLK_1_FLR_0_GLASS_FACADE_2
  6
ByBlock
 62
    0
370
   -2
100
AcDbTrace
 10
102.1794107957737
 20
103.3417269051572
 30
0
 11
102.2093832911333
 21
103.1617269051572
 31
0
 12
102.1494383004141
 22
103.1617269051572
 32
0
 13
102.1494383004141
 23
103.1617269051572
 33
0
  0
SOLID
  5
101
100
AcDbEntity
  8
BLK_1_FLR_0_GLASS_FACADE_2
  6
ByBlock
 62
    0
370
   -2
100
AcDbTrace
 10
102.1794107957737
 20
100.9417269051572
 30
0
 11
102.1494383004141
 21
101.1217269051572
 31
0
 12
102.2093832911333
 22
101.1217269051572
 32
0
 13
102.2093832911333
 23
101.1217269051572
 33
0
  0
MTEXT
  5
102
100
AcDbEntity
  8
BLK_1_FLR_0_GLASS_FACADE_2
  6
CONTINUOUS
 62
    0
370
   -2
100
AcDbMText
 10
101.9994107957737
 20
102.1417269051572
 30
0
 40
0.18
 41
0.08000000000001117
 71
    5
 72
    1
  1
9
  7
Standard
210
0
220
0
230
1
 50
90
 73
    2
 44
1
  0
LINE
  5
103
100
AcDbEntity
  8
BLK_1_FLR_0_GLASS_FACADE_2
  6
ByBlock
 62
    0
370
   -2
100
AcDbLine
 10
102.2225099400201
 20
103.3417269051572
 11
102.3594107957737
 21
103.3417269051572
  0
LINE
  5
104
100
AcDbEntity
  8
BLK_1_FLR_0_GLASS_FACADE_2
  6
ByBlock
 62
    0
370
   -2
100
AcDbLine
 10
102.2225099400201
 20
100.9417269051572
 11
102.3594107957737
 21
100.9417269051572
  0
ENDBLK
  5
80
330
7E
100
AcDbEntity
  8
0
100
AcDbBlockEnd
  0
BLOCK
  5
82
330
81
100
AcDbEntity
  8
0
100
AcDbBlockBegin
  2
*D19
 70
    1
 10
0
 20
0
  3
*D19
  1

  0
LINE
  5
105
100
AcDbEntity
  8
LOCATION_PLAN
  6
CONTINUOUS
 62
    7
370
    0
100
AcDbLine
 10
140.9850507246145
 20
102.2886616921009
 11
142.163231519552
 21
101.0161469030036
  0
LINE
  5
106
100
AcDbEntity
  8
LOCATION_PLAN
  6
CONTINUOUS
 62
    7
370
    0
100
AcDbLine
 10
142.163231519552
 20
101.0161469030036
 11
143.150355263072
 21
101.0161469030036
  0
SOLID
  5
107
100
AcDbEntity
  8
LOCATION_PLAN
  6
CONTINUOUS
 62
    7
370
    0
100
AcDbTrace
 10
140.9850507246145
 20
102.2886616921009
 30
0
 11
141.1293333278518
 21
102.1769438292448
 31
0
 12
141.0853467821058
 22
102.1362180916128
 32
0
 13
141.0853467821058
 23
102.1362180916128
 33
0
  0
ENDBLK
  5
83
330
81
100
AcDbEntity
  8
0
100
AcDbBlockEnd
  0
BLOCK
  5
85
330
84
100
AcDbEntity
  8
0
100
AcDbBlockBegin
  2
*D24
 70
    1
 10
0
 20
0
  3
*D24
  1

  0
LINE
  5
108
100
AcDbEntity
  8
BLK_1_FLR_0_STAIR_1_LANDING_1
  6
ByBlock
 62
    0
370
   -2
100
AcDbLine
 10
103.1095098046513
 20
104.69387992465
 11
103.2270098046513
 21
104.69387992465
  0
LINE
  5
109
100
AcDbEntity
  8
BLK_1_FLR_0_STAIR_1_LANDING_1
  6
ByBlock
 62
    0
370
   -2
100
AcDbLine
 10
103.1095098046513
 20
103.493879924651
 11
103.2270098046513
 21
103.493879924651
  0
LINE
  5
10A
100
AcDbEntity
  8
BLK_1_FLR_0_STAIR_1_LANDING_1
  6
ByBlock
 62
    0
370
   -2
100
AcDbLine
 10
103.0470098046513
 20
104.69387992465
 11
103.0470098046513
 21
103.493879924651
  0
SOLID
  5
10B
100
AcDbEntity
  8
BLK_1_FLR_0_STAIR_1_LANDING_1
  6
ByBlock
 62
    0
370
   -2
100
AcDbTrace
 10
103.0470098046513
 20
104.69387992465
 30
0
 11
103.0769823000109
 21
104.51387992465
 31
0
 12
103.0170373092917
 22
104.51387992465
 32
0
 13
103.0170373092917
 23
104.51387992465
 33
0
  0
SOLID
  5
10C
100
AcDbEntity
  8
BLK_1_FLR_0_STAIR_1_LANDING_1
  6
ByBlock
 62
    0
370
   -2
100
AcDbTrace
 10
103.0470098046513
 20
103.493879924651
 30
0
 11
103.0170373092917
 21
103.673879924651
 31
0
 12
103.0769823000109
 22
103.673879924651
 32
0
 13
103.0769823000109
 23
103.673879924651
 33
0
  0
MTEXT
  5
10D
100
AcDbEntity
  8
BLK_1_FLR_0_STAIR_1_LANDING_1
  6
CONTINUOUS
 62
    0
370
   -2
100
AcDbMText
 10
103.0470098046512
 20
104.0938799246505
 30
0
 40
0.18
 41
0.38
 71
    5
 72
    1
  1
1.20
  7
Standard
210
0
220
0
230
1
 50
90
 73
    2
 44
1
  0
ENDBLK
  5
86
330
84
100
AcDbEntity
  8
0
100
AcDbBlockEnd
  0
BLOCK
  5
88
330
87
100
AcDbEntity
  8
0
100
AcDbBlockBegin
  2
*D40
 70
    1
 10
0
 20
0
  3
*D40
  1

  0
LINE
  5
10E
100
AcDbEntity
  8
BLK_1_FLR_0_ACROOM_1_MEZ_AREA_1
  6
ByBlock
 62
    0
370
   -2
100
AcDbLine
 10
103.3660248805249
 20
104.2669361446364
 11
103.3660248805249
 21
101.8669361446363
  0
SOLID
  5
10F
100
AcDbEntity
  8
BLK_1_FLR_0_ACROOM_1_MEZ_AREA_1
  6
ByBlock
 62
    0
370
   -2
100
AcDbTrace
 10
103.3660248805249
 20
104.2669361446364
 30
0
 11
103.3959973758845
 21
104.0869361446364
 31
0
 12
103.3360523851653
 22
104.0869361446364
 32
0
 13
103.3360523851653
 23
104.0869361446364
 33
0
  0
SOLID
  5
110
100
AcDbEntity
  8
BLK_1_FLR_0_ACROOM_1_MEZ_AREA_1
  6
ByBlock
 62
    0
370
   -2
100
AcDbTrace
 10
103.3660248805249
 20
101.8669361446363
 30
0
 11
103.3360523851653
 21
102.0469361446363
 31
0
 12
103.3959973758845
 22
102.0469361446363
 32
0
 13
103.3959973758845
 23
102.0469361446363
 33
0
  0
MTEXT
  5
111
100
AcDbEntity
  8
BLK_1_FLR_0_ACROOM_1_MEZ_AREA_1
  6
CONTINUOUS
 62
    0
370
   -2
100
AcDbMText
 10
103.1860248805249
 20
103.0669361446363
 30
0
 40
0.18
 41
0.08000000000001117
 71
    5
 72
    1
  1
3
  7
Standard
210
0
220
0
230
1
 50
90
 73
    2
 44
1
  0
LINE
  5
112
100
AcDbEntity
  8
BLK_1_FLR_0_ACROOM_1_MEZ_AREA_1
  6
ByBlock
 62
    0
370
   -2
100
AcDbLine
 10
103.4091240247713
 20
104.2669361446364
 11
103.5460248805249
 21
104.2669361446364
  0
LINE
  5
113
100
AcDbEntity
  8
BLK_1_FLR_0_ACROOM_1_MEZ_AREA_1
  6
ByBlock
 62
    0
370
   -2
100
AcDbLine
 10
103.4091240247713
 20
101.8669361446363
 11
103.5460248805249
 21
101.8669361446363
  0
ENDBLK
  5
89
330
87
100
AcDbEntity
  8
0
100
AcDbBlockEnd
  0
BLOCK
  5
8B
330
8A
100
AcDbEntity
  8
0
100
AcDbBlockBegin
  2
*D36
 70
    1
 10
0
 20
0
  3
*D36
  1

  0
LINE
  5
114
100
AcDbEntity
  8
BLK_1_FLR_0_GLASS_FACADE_2
  6
ByBlock
 62
    0
370
   -2
100
AcDbLine
 10
103.9854009836778
 20
103.308650161789
 11
103.9854009836778
 21
100.9086501617889
  0
SOLID
  5
115
100
AcDbEntity
  8
BLK_1_FLR_0_GLASS_FACADE_2
  6
ByBlock
 62
    0
370
   -2
100
AcDbTrace
 10
103.9854009836778
 20
103.308650161789
 30
0
 11
104.0153734790375
 21
103.128650161789
 31
0
 12
103.9554284883182
 22
103.128650161789
 32
0
 13
103.9554284883182
 23
103.128650161789
 33
0
  0
SOLID
  5
116
100
AcDbEntity
  8
BLK_1_FLR_0_GLASS_FACADE_2
  6
ByBlock
 62
    0
370
   -2
100
AcDbTrace
 10
103.9854009836778
 20
100.9086501617889
 30
0
 11
103.9554284883182
 21
101.0886501617889
 31
0
 12
104.0153734790375
 22
101.0886501617889
 32
0
 13
104.0153734790375
 23
101.0886501617889
 33
0
  0
MTEXT
  5
117
100
AcDbEntity
  8
BLK_1_FLR_0_GLASS_FACADE_2
  6
CONTINUOUS
 62
    0
370
   -2
100
AcDbMText
 10
103.8054009836778
 20
102.108650161789
 30
0
 40
0.18
 41
0.2800000000000223
 71
    5
 72
    1
  1
5.5
  7
Standard
210
0
220
0
230
1
 50
90
 73
    2
 44
1
  0
LINE
  5
118
100
AcDbEntity
  8
BLK_1_FLR_0_GLASS_FACADE_2
  6
ByBlock
 62
    0
370
   -2
100
AcDbLine
 10
104.0285001279242
 20
103.308650161789
 11
104.1654009836778
 21
103.308650161789
  0
LINE
  5
119
100
AcDbEntity
  8
BLK_1_FLR_0_GLASS_FACADE_2
  6
ByBlock
 62
    0
370
   -2
100
AcDbLine
 10
104.0285001279242
 20
100.9086501617889
 11
104.1654009836778
 21
100.9086501617889
  0
ENDBLK
  5
8C
330
8A
100
AcDbEntity
  8
0
100
AcDbBlockEnd
  0
BLOCK
  5
8E
330
8D
100
AcDbEntity
  8
0
100
AcDbBlockBegin
  2
*D26
 70
    1
 10
0
 20
0
  3
*D26
  1

  0
LINE
  5
11A
100
AcDbEntity
  8
BLK_1_FLR_0_STAIR_1_FLIGHT_2
  6
ByBlock
 62
    0
370
   -2
100
AcDbLine
 10
102.7474550243402
 20
101.9084370839271
 11
102.7474550243402
 21
101.6675182621566
  0
LINE
  5
11B
100
AcDbEntity
  8
BLK_1_FLR_0_STAIR_1_FLIGHT_2
  6
ByBlock
 62
    0
370
   -2
100
AcDbLine
 10
103.9474550243391
 20
101.9084370839271
 11
103.9474550243391
 21
101.6675182621566
  0
LINE
  5
11C
100
AcDbEntity
  8
BLK_1_FLR_0_STAIR_1_FLIGHT_2
  6
ByBlock
 62
    0
370
   -2
100
AcDbLine
 10
102.7474550243402
 20
101.8475182621566
 11
103.9474550243391
 21
101.8475182621566
  0
SOLID
  5
11D
100
AcDbEntity
  8
BLK_1_FLR_0_STAIR_1_FLIGHT_2
  6
ByBlock
 62
    0
370
   -2
100
AcDbTrace
 10
102.7474550243402
 20
101.8475182621566
 30
0
 11
102.9274550243402
 21
101.8774907575162
 31
0
 12
102.9274550243402
 22
101.817545766797
 32
0
 13
102.9274550243402
 23
101.817545766797
 33
0
  0
SOLID
  5
11E
100
AcDbEntity
  8
BLK_1_FLR_0_STAIR_1_FLIGHT_2
  6
ByBlock
 62
    0
370
   -2
100
AcDbTrace
 10
103.9474550243391
 20
101.8475182621566
 30
0
 11
103.7674550243391
 21
101.817545766797
 31
0
 12
103.7674550243391
 22
101.8774907575162
 32
0
 13
103.7674550243391
 23
101.8774907575162
 33
0
  0
MTEXT
  5
11F
100
AcDbEntity
  8
BLK_1_FLR_0_STAIR_1_FLIGHT_2
  6
CONTINUOUS
 62
    0
370
   -2
100
AcDbMText
 10
103.3474550243396
 20
101.8475182621566
 30
0
 40
0.18
 41
0.38
 71
    5
 72
    1
  1
1.20
  7
Standard
210
0
220
0
230
1
 50
0
 73
    2
 44
1
  0
ENDBLK
  5
8F
330
8D
100
AcDbEntity
  8
0
100
AcDbBlockEnd
  0
BLOCK
  5
91
330
90
100
AcDbEntity
  8
0
100
AcDbBlockBegin
  2
*D23
 70
    1
 10
0
 20
0
  3
*D23
  1

  0
LINE
  5
120
100
AcDbEntity
  8
BLK_1_FLR_0_STAIR_1_FLIGHT_1
  6
ByBlock
 62
    0
370
   -2
100
AcDbLine
 10
101.7394162145944
 20
101.0938799246509
 11
101.8569162145944
 21
101.0938799246509
  0
LINE
  5
121
100
AcDbEntity
  8
BLK_1_FLR_0_STAIR_1_FLIGHT_1
  6
ByBlock
 62
    0
370
   -2
100
AcDbLine
 10
101.7394162145944
 20
103.493879924651
 11
101.8569162145944
 21
103.493879924651
  0
LINE
  5
122
100
AcDbEntity
  8
BLK_1_FLR_0_STAIR_1_FLIGHT_1
  6
ByBlock
 62
    0
370
   -2
100
AcDbLine
 10
101.6769162145944
 20
101.0938799246509
 11
101.6769162145944
 21
103.493879924651
  0
SOLID
  5
123
100
AcDbEntity
  8
BLK_1_FLR_0_STAIR_1_FLIGHT_1
  6
ByBlock
 62
    0
370
   -2
100
AcDbTrace
 10
101.6769162145944
 20
101.0938799246509
 30
0
 11
101.6469437192348
 21
101.2738799246509
 31
0
 12
101.706888709954
 22
101.2738799246509
 32
0
 13
101.706888709954
 23
101.2738799246509
 33
0
  0
SOLID
  5
124
100
AcDbEntity
  8
BLK_1_FLR_0_STAIR_1_FLIGHT_1
  6
ByBlock
 62
    0
370
   -2
100
AcDbTrace
 10
101.6769162145944
 20
103.493879924651
 30
0
 11
101.706888709954
 21
103.313879924651
 31
0
 12
101.6469437192348
 22
103.313879924651
 32
0
 13
101.6469437192348
 23
103.313879924651
 33
0
  0
MTEXT
  5
125
100
AcDbEntity
  8
BLK_1_FLR_0_STAIR_1_FLIGHT_1
  6
CONTINUOUS
 62
    0
370
   -2
100
AcDbMText
 10
101.6769162145944
 20
102.293879924651
 30
0
 40
0.18
 41
0.4400000000000001
 71
    5
 72
    1
  1
2.40
  7
Standard
210
0
220
0
230
1
 50
90
 73
    2
 44
1
  0
ENDBLK
  5
92
330
90
100
AcDbEntity
  8
0
100
AcDbBlockEnd
  0
BLOCK
  5
94
330
93
100
AcDbEntity
  8
0
100
AcDbBlockBegin
  2
*D8
 70
    1
 10
0
 20
0
  3
*D8
  1

  0
LINE
  5
126
100
AcDbEntity
  8
0
  6
ByBlock
 62
    0
370
   -2
100
AcDbLine
 10
87.14622387648228
 20
110.3249797890896
 11
85.44622387648224
 21
110.3249797890896
  0
SOLID
  5
127
100
AcDbEntity
  8
0
  6
ByBlock
 62
    0
370
   -2
100
AcDbTrace
 10
87.14622387648228
 20
110.3249797890896
 30
0
 11
86.96622387648227
 21
110.29500729373
 31
0
 12
86.96622387648227
 22
110.3549522844492
 32
0
 13
86.96622387648227
 23
110.3549522844492
 33
0
  0
SOLID
  5
128
100
AcDbEntity
  8
0
  6
ByBlock
 62
    0
370
   -2
100
AcDbTrace
 10
85.44622387648224
 20
110.3249797890896
 30
0
 11
85.62622387648224
 21
110.3549522844492
 31
0
 12
85.62622387648224
 22
110.29500729373
 32
0
 13
85.62622387648224
 23
110.29500729373
 33
0
  0
MTEXT
  5
129
100
AcDbEntity
  8
0
  6
CONTINUOUS
 62
    0
370
   -2
100
AcDbMText
 10
86.29622387648239
 20
110.3249797890896
 30
0
 40
0.18
 41
0.38
 71
    5
 72
    1
  1
1.70
  7
Standard
210
0
220
0
230
1
 50
360
 73
    2
 44
1
  0
LINE
  5
12A
100
AcDbEntity
  8
0
  6
ByBlock
 62
    0
370
   -2
100
AcDbLine
 10
87.14622387648228
 20
111.2234577116671
 11
87.14622387648228
 21
110.1449797890896
  0
LINE
  5
12B
100
AcDbEntity
  8
0
  6
ByBlock
 62
    0
370
   -2
100
AcDbLine
 10
85.44622387648224
 20
111.2234577116671
 11
85.44622387648224
 21
110.1449797890896
  0
ENDBLK
  5
95
330
93
100
AcDbEntity
  8
0
100
AcDbBlockEnd
  0
BLOCK
  5
97
330
96
100
AcDbEntity
  8
0
100
AcDbBlockBegin
  2
*D31
 70
    1
 10
0
 20
0
  3
*D31
  1

  0
LINE
  5
12C
100
AcDbEntity
  8
RWH_2
  6
ByBlock
 62
    0
370
   -2
100
AcDbLine
 10
114.7823333082778
 20
108.8677506919116
 11
114.7823333082778
 21
107.3657506919709
  0
SOLID
  5
12D
100
AcDbEntity
  8
RWH_2
  6
ByBlock
 62
    0
370
   -2
100
AcDbTrace
 10
114.7823333082778
 20
108.8677506919116
 30
0
 11
114.8123058036374
 21
108.6877506919116
 31
0
 12
114.7523608129182
 22
108.6877506919116
 32
0
 13
114.7523608129182
 23
108.6877506919116
 33
0
  0
SOLID
  5
12E
100
AcDbEntity
  8
RWH_2
  6
ByBlock
 62
    0
370
   -2
100
AcDbTrace
 10
114.7823333082778
 20
107.3657506919709
 30
0
 11
114.7523608129182
 21
107.5457506919709
 31
0
 12
114.8123058036374
 22
107.5457506919709
 32
0
 13
114.8123058036374
 23
107.5457506919709
 33
0
  0
MTEXT
  5
12F
100
AcDbEntity
  8
RWH_2
  6
CONTINUOUS
 62
    0
370
   -2
100
AcDbMText
 10
114.6023333082777
 20
108.1167506919413
 30
0
 40
0.18
 41
0.3800000000000112
 71
    5
 72
    1
  1
1.50
  7
Standard
210
0
220
0
230
1
 50
90
 73
    2
 44
1
  0
LINE
  5
130
100
AcDbEntity
  8
RWH_2
  6
ByBlock
 62
    0
370
   -2
100
AcDbLine
 10
114.8448333082777
 20
108.8677506919116
 11
114.9623333082778
 21
108.8677506919116
  0
LINE
  5
131
100
AcDbEntity
  8
RWH_2
  6
ByBlock
 62
    0
370
   -2
100
AcDbLine
 10
114.7202219189394
 20
107.3657506919709
 11
114.9623333082778
 21
107.3657506919709
  0
ENDBLK
  5
98
330
96
100
AcDbEntity
  8
0
100
AcDbBlockEnd
  0
BLOCK
  5
9A
330
99
100
AcDbEntity
  8
0
100
AcDbBlockBegin
  2
*D15
 70
    1
 10
0
 20
0
  3
*D15
  1

  0
LINE
  5
132
100
AcDbEntity
  8
BLK_1_PARAPET_HT
  6
ByBlock
 62
    0
370
   -2
100
AcDbLine
 10
90.30172265611748
 20
116.5859577116677
 11
90.30172265611748
 21
117.7859577116669
  0
SOLID
  5
133
100
AcDbEntity
  8
BLK_1_PARAPET_HT
  6
ByBlock
 62
    0
370
   -2
100
AcDbTrace
 10
90.30172265611748
 20
116.5859577116677
 30
0
 11
90.27175016075783
 21
116.7659577116677
 31
0
 12
90.33169515147712
 22
116.7659577116677
 32
0
 13
90.33169515147712
 23
116.7659577116677
 33
0
  0
SOLID
  5
134
100
AcDbEntity
  8
BLK_1_PARAPET_HT
  6
ByBlock
 62
    0
370
   -2
100
AcDbTrace
 10
90.30172265611748
 20
117.7859577116669
 30
0
 11
90.33169515147712
 21
117.6059577116669
 31
0
 12
90.27175016075783
 22
117.6059577116669
 32
0
 13
90.27175016075783
 23
117.6059577116669
 33
0
  0
MTEXT
  5
135
100
AcDbEntity
  8
BLK_1_PARAPET_HT
  6
CONTINUOUS
 62
    0
370
   -2
100
AcDbMText
 10
90.30172265611746
 20
117.1859577116673
 30
0
 40
0.18
 41
0.38
 71
    5
 72
    1
  1
1.20
  7
Standard
210
0
220
0
230
1
 50
90
 73
    2
 44
1
  0
LINE
  5
136
100
AcDbEntity
  8
BLK_1_PARAPET_HT
  6
ByBlock
 62
    0
370
   -2
100
AcDbLine
 10
89.8478354353804
 20
116.5859577116677
 11
90.48172265611748
 21
116.5859577116677
  0
LINE
  5
137
100
AcDbEntity
  8
BLK_1_PARAPET_HT
  6
ByBlock
 62
    0
370
   -2
100
AcDbLine
 10
89.8478354353804
 20
117.7859577116669
 11
90.48172265611748
 21
117.7859577116669
  0
ENDBLK
  5
9B
330
99
100
AcDbEntity
  8
0
100
AcDbBlockEnd
  0
BLOCK
  5
9D
330
9C
100
AcDbEntity
  8
0
100
AcDbBlockBegin
  2
*D9
 70
    1
 10
0
 20
0
  3
*D9
  1

  0
LINE
  5
138
100
AcDbEntity
  8
0
  6
ByBlock
 62
    0
370
   -2
100
AcDbLine
 10
85.54622387648237
 20
110.8327126804745
 11
87.04622387648146
 21
110.8327126804745
  0
SOLID
  5
139
100
AcDbEntity
  8
0
  6
ByBlock
 62
    0
370
   -2
100
AcDbTrace
 10
85.54622387648237
 20
110.8327126804745
 30
0
 11
85.72622387648238
 21
110.8626851758341
 31
0
 12
85.72622387648238
 22
110.8027401851149
 32
0
 13
85.72622387648238
 23
110.8027401851149
 33
0
  0
SOLID
  5
13A
100
AcDbEntity
  8
0
  6
ByBlock
 62
    0
370
   -2
100
AcDbTrace
 10
87.04622387648146
 20
110.8327126804745
 30
0
 11
86.86622387648146
 21
110.8027401851149
 31
0
 12
86.86622387648146
 22
110.8626851758341
 32
0
 13
86.86622387648146
 23
110.8626851758341
 33
0
  0
MTEXT
  5
13B
100
AcDbEntity
  8
0
  6
CONTINUOUS
 62
    0
370
   -2
100
AcDbMText
 10
86.29622387648145
 20
110.8327126804745
 30
0
 40
0.18
 41
0.3800000000000112
 71
    5
 72
    1
  1
1.50
  7
Standard
210
0
220
0
230
1
 50
0
 73
    2
 44
1
  0
LINE
  5
13C
100
AcDbEntity
  8
0
  6
ByBlock
 62
    0
370
   -2
100
AcDbLine
 10
85.54622387648237
 20
111.3734577116672
 11
85.54622387648237
 21
110.6527126804745
  0
LINE
  5
13D
100
AcDbEntity
  8
0
  6
ByBlock
 62
    0
370
   -2
100
AcDbLine
 10
87.04622387648146
 20
111.3734577116672
 11
87.04622387648146
 21
110.6527126804745
  0
ENDBLK
  5
9E
330
9C
100
AcDbEntity
  8
0
100
AcDbBlockEnd
  0
BLOCK
  5
A0
330
9F
100
AcDbEntity
  8
0
100
AcDbBlockBegin
  2
*D11
 70
    1
 10
0
 20
0
  3
*D11
  1

  0
LINE
  5
13E
100
AcDbEntity
  8
0
  6
ByBlock
 62
    0
370
   -2
100
AcDbLine
 10
87.37732644499852
 20
111.7959577116672
 11
87.37732644499852
 21
110.9259577116671
  0
SOLID
  5
13F
100
AcDbEntity
  8
0
  6
ByBlock
 62
    0
370
   -2
100
AcDbTrace
 10
87.37732644499852
 20
111.4359577116672
 30
0
 11
87.34735394963887
 21
111.6159577116672
 31
0
 12
87.40729894035816
 22
111.6159577116672
 32
0
 13
87.40729894035816
 23
111.6159577116672
 33
0
  0
SOLID
  5
140
100
AcDbEntity
  8
0
  6
ByBlock
 62
    0
370
   -2
100
AcDbTrace
 10
87.37732644499852
 20
111.2859577116671
 30
0
 11
87.40729894035816
 21
111.1059577116671
 31
0
 12
87.34735394963887
 22
111.1059577116671
 32
0
 13
87.34735394963887
 23
111.1059577116671
 33
0
  0
MTEXT
  5
141
100
AcDbEntity
  8
0
  6
CONTINUOUS
 62
    0
370
   -2
100
AcDbMText
 10
87.37732644499847
 20
110.9565034142593
 30
0
 40
0.18
 41
0.3800000000000112
 71
    5
 72
    1
  1
0.15
  7
Standard
210
0
220
0
230
1
 50
90
 73
    2
 44
1
  0
LINE
  5
142
100
AcDbEntity
  8
0
  6
ByBlock
 62
    0
370
   -2
100
AcDbLine
 10
87.20872387648228
 20
111.4359577116672
 11
87.55732644499852
 21
111.4359577116672
  0
LINE
  5
143
100
AcDbEntity
  8
0
  6
ByBlock
 62
    0
370
   -2
100
AcDbLine
 10
87.20872387648228
 20
111.2859577116671
 11
87.55732644499852
 21
111.2859577116671
  0
ENDBLK
  5
A1
330
9F
100
AcDbEntity
  8
0
100
AcDbBlockEnd
  0
BLOCK
  5
A3
330
A2
100
AcDbEntity
  8
0
100
AcDbBlockBegin
  2
*D22
 70
    1
 10
0
 20
0
  3
*D22
  1

  0
LINE
  5
144
100
AcDbEntity
  8
0
  6
ByBlock
 62
    0
370
   -2
100
AcDbLine
 10
125.4299233381337
 20
111.5447779047587
 11
116.3299233381337
 21
111.5447779047587
  0
SOLID
  5
145
100
AcDbEntity
  8
0
  6
ByBlock
 62
    0
370
   -2
100
AcDbTrace
 10
125.4299233381337
 20
111.5447779047587
 30
0
 11
125.2499233381337
 21
111.5148054093991
 31
0
 12
125.2499233381337
 22
111.5747504001183
 32
0
 13
125.2499233381337
 23
111.5747504001183
 33
0
  0
SOLID
  5
146
100
AcDbEntity
  8
0
  6
ByBlock
 62
    0
370
   -2
100
AcDbTrace
 10
116.3299233381337
 20
111.5447779047587
 30
0
 11
116.5099233381337
 21
111.5747504001183
 31
0
 12
116.5099233381337
 22
111.5148054093991
 32
0
 13
116.5099233381337
 23
111.5148054093991
 33
0
  0
MTEXT
  5
147
100
AcDbEntity
  8
0
  6
CONTINUOUS
 62
    0
370
   -2
100
AcDbMText
 10
120.8799233381337
 20
111.5447779047587
 30
0
 40
0.18
 41
0.3800000000000112
 71
    5
 72
    1
  1
9.10
  7
Standard
210
0
220
0
230
1
 50
360
 73
    2
 44
1
  0
LINE
  5
148
100
AcDbEntity
  8
0
  6
ByBlock
 62
    0
370
   -2
100
AcDbLine
 10
125.4299233381337
 20
111.0628918907676
 11
125.4299233381337
 21
111.7247779047587
  0
LINE
  5
149
100
AcDbEntity
  8
0
  6
ByBlock
 62
    0
370
   -2
100
AcDbLine
 10
116.3299233381337
 20
111.0628918907676
 11
116.3299233381337
 21
111.7247779047587
  0
ENDBLK
  5
A4
330
A2
100
AcDbEntity
  8
0
100
AcDbBlockEnd
  0
BLOCK
  5
A6
330
A5
100
AcDbEntity
  8
0
100
AcDbBlockBegin
  2
*D5
 70
    1
 10
0
 20
0
  3
*D5
  1

  0
LINE
  5
14A
100
AcDbEntity
  8
0
  6
CONTINUOUS
 62
    7
370
    0
100
AcDbLine
 10
96.41966041440332
 20
112.2506725416922
 11
97.67788871088328
 21
112.2506725416922
  0
SOLID
  5
14B
100
AcDbEntity
  8
0
  6
CONTINUOUS
 62
    7
370
    0
100
AcDbTrace
 10
96.41966041440332
 20
112.2506725416922
 30
0
 11
96.59966041440333
 21
112.2806450370518
 31
0
 12
96.59966041440333
 22
112.2207000463326
 32
0
 13
96.59966041440333
 23
112.2207000463326
 33
0
  0
ENDBLK
  5
A7
330
A5
100
AcDbEntity
  8
0
100
AcDbBlockEnd
  0
BLOCK
  5
A9
330
A8
100
AcDbEntity
  8
0
100
AcDbBlockBegin
  2
*D20
 70
    1
 10
0
 20
0
  3
*D20
  1

  0
LINE
  5
14C
100
AcDbEntity
  8
0
  6
ByBlock
 62
    0
370
   -2
100
AcDbLine
 10
114.6322768362959
 20
95.80039189076756
 11
114.6322768362959
 21
92.20039189076755
  0
SOLID
  5
14D
100
AcDbEntity
  8
0
  6
ByBlock
 62
    0
370
   -2
100
AcDbTrace
 10
114.6322768362959
 20
95.80039189076756
 30
0
 11
114.6622493316555
 21
95.62039189076755
 31
0
 12
114.6023043409363
 22
95.62039189076755
 32
0
 13
114.6023043409363
 23
95.62039189076755
 33
0
  0
SOLID
  5
14E
100
AcDbEntity
  8
0
  6
ByBlock
 62
    0
370
   -2
100
AcDbTrace
 10
114.6322768362959
 20
92.20039189076755
 30
0
 11
114.6023043409363
 21
92.38039189076756
 31
0
 12
114.6622493316555
 22
92.38039189076756
 32
0
 13
114.6622493316555
 23
92.38039189076756
 33
0
  0
MTEXT
  5
14F
100
AcDbEntity
  8
0
  6
CONTINUOUS
 62
    0
370
   -2
100
AcDbMText
 10
114.6322768362958
 20
94.00039189076759
 30
0
 40
0.18
 41
0.4200000000000224
 71
    5
 72
    1
  1
3.60
  7
Standard
210
0
220
0
230
1
 50
90
 73
    2
 44
1
  0
LINE
  5
150
100
AcDbEntity
  8
0
  6
ByBlock
 62
    0
370
   -2
100
AcDbLine
 10
114.329482197025
 20
95.80039189076756
 11
114.8122768362959
 21
95.80039189076756
  0
LINE
  5
151
100
AcDbEntity
  8
0
  6
ByBlock
 62
    0
370
   -2
100
AcDbLine
 10
114.329482197025
 20
92.20039189076755
 11
114.8122768362959
 21
92.20039189076755
  0
ENDBLK
  5
AA
330
A8
100
AcDbEntity
  8
0
100
AcDbBlockEnd
  0
BLOCK
  5
AC
330
AB
100
AcDbEntity
  8
0
100
AcDbBlockBegin
  2
*D39
 70
    1
 10
0
 20
0
  3
*D39
  1

  0
LINE
  5
152
100
AcDbEntity
  8
BLK_1_FLR_0_ROOM_1_MEZ_AREA_2
  6
ByBlock
 62
    0
370
   -2
100
AcDbLine
 10
106.3534874553752
 20
104.2669361446364
 11
106.3534874553752
 21
101.8669361446363
  0
SOLID
  5
153
100
AcDbEntity
  8
BLK_1_FLR_0_ROOM_1_MEZ_AREA_2
  6
ByBlock
 62
    0
370
   -2
100
AcDbTrace
 10
106.3534874553752
 20
104.2669361446364
 30
0
 11
106.3834599507348
 21
104.0869361446364
 31
0
 12
106.3235149600156
 22
104.0869361446364
 32
0
 13
106.3235149600156
 23
104.0869361446364
 33
0
  0
SOLID
  5
154
100
AcDbEntity
  8
BLK_1_FLR_0_ROOM_1_MEZ_AREA_2
  6
ByBlock
 62
    0
370
   -2
100
AcDbTrace
 10
106.3534874553752
 20
101.8669361446363
 30
0
 11
106.3235149600156
 21
102.0469361446363
 31
0
 12
106.3834599507348
 22
102.0469361446363
 32
0
 13
106.3834599507348
 23
102.0469361446363
 33
0
  0
MTEXT
  5
155
100
AcDbEntity
  8
BLK_1_FLR_0_ROOM_1_MEZ_AREA_2
  6
CONTINUOUS
 62
    0
370
   -2
100
AcDbMText
 10
106.1734874553752
 20
103.0669361446363
 30
0
 40
0.18
 41
0.08000000000001117
 71
    5
 72
    1
  1
3
  7
Standard
210
0
220
0
230
1
 50
90
 73
    2
 44
1
  0
LINE
  5
156
100
AcDbEntity
  8
BLK_1_FLR_0_ROOM_1_MEZ_AREA_2
  6
ByBlock
 62
    0
370
   -2
100
AcDbLine
 10
106.3965865996216
 20
104.2669361446364
 11
106.5334874553752
 21
104.2669361446364
  0
LINE
  5
157
100
AcDbEntity
  8
BLK_1_FLR_0_ROOM_1_MEZ_AREA_2
  6
ByBlock
 62
    0
370
   -2
100
AcDbLine
 10
106.3965865996216
 20
101.8669361446363
 11
106.5334874553752
 21
101.8669361446363
  0
ENDBLK
  5
AD
330
AB
100
AcDbEntity
  8
0
100
AcDbBlockEnd
  0
BLOCK
  5
AF
330
AE
100
AcDbEntity
  8
0
100
AcDbBlockBegin
  2
*D10
 70
    1
 10
0
 20
0
  3
*D10
  1

  0
LINE
  5
158
100
AcDbEntity
  8
BLK_1_PLINTH_HEIGHT
  6
ByBlock
 62
    0
370
   -2
100
AcDbLine
 10
85.17329425605344
 20
113.4859577116671
 11
85.17329425605344
 21
112.6859577116673
  0
SOLID
  5
159
100
AcDbEntity
  8
BLK_1_PLINTH_HEIGHT
  6
ByBlock
 62
    0
370
   -2
100
AcDbTrace
 10
85.17329425605344
 20
113.4859577116671
 30
0
 11
85.20326675141308
 21
113.3059577116671
 31
0
 12
85.14332176069379
 22
113.3059577116671
 32
0
 13
85.14332176069379
 23
113.3059577116671
 33
0
  0
SOLID
  5
15A
100
AcDbEntity
  8
BLK_1_PLINTH_HEIGHT
  6
ByBlock
 62
    0
370
   -2
100
AcDbTrace
 10
85.17329425605344
 20
112.6859577116673
 30
0
 11
85.14332176069379
 21
112.8659577116673
 31
0
 12
85.20326675141308
 22
112.8659577116673
 32
0
 13
85.20326675141308
 23
112.8659577116673
 33
0
  0
MTEXT
  5
15B
100
AcDbEntity
  8
BLK_1_PLINTH_HEIGHT
  6
CONTINUOUS
 62
    0
370
   -2
100
AcDbMText
 10
85.1732942560534
 20
112.9109577116672
 30
0
 40
0.18
 41
0.42
 71
    5
 72
    1
  1
0.80
  7
Standard
210
0
220
0
230
1
 50
90
 73
    2
 44
1
  0
LINE
  5
15C
100
AcDbEntity
  8
BLK_1_PLINTH_HEIGHT
  6
ByBlock
 62
    0
370
   -2
100
AcDbLine
 10
86.12372387648225
 20
113.4859577116671
 11
84.99329425605343
 21
113.4859577116671
  0
LINE
  5
15D
100
AcDbEntity
  8
BLK_1_PLINTH_HEIGHT
  6
ByBlock
 62
    0
370
   -2
100
AcDbLine
 10
86.12372387648225
 20
112.6859577116673
 11
84.99329425605343
 21
112.6859577116673
  0
ENDBLK
  5
B0
330
AE
100
AcDbEntity
  8
0
100
AcDbBlockEnd
  0
BLOCK
  5
B2
330
B1
100
AcDbEntity
  8
0
100
AcDbBlockBegin
  2
*D1
 70
    1
 10
0
 20
0
  3
*D1
  1

  0
LINE
  5
15E
100
AcDbEntity
  8
0
  6
CONTINUOUS
 62
    7
370
    0
100
AcDbLine
 10
96.37675725687836
 20
112.8352428911323
 11
97.16229076064545
 21
113.4672250677462
  0
LINE
  5
15F
100
AcDbEntity
  8
0
  6
CONTINUOUS
 62
    7
370
    0
100
AcDbLine
 10
97.16229076064545
 20
113.4672250677462
 11
97.67788871088328
 21
113.4672250677462
  0
SOLID
  5
160
100
AcDbEntity
  8
0
  6
CONTINUOUS
 62
    7
370
    0
100
AcDbTrace
 10
96.37675725687836
 20
112.8352428911323
 30
0
 11
96.49821542140354
 21
112.9714275626202
 31
0
 12
96.53579151685631
 22
112.9247216854433
 32
0
 13
96.53579151685631
 23
112.9247216854433
 33
0
  0
ENDBLK
  5
B3
330
B1
100
AcDbEntity
  8
0
100
AcDbBlockEnd
  0
BLOCK
  5
B5
330
B4
100
AcDbEntity
  8
0
100
AcDbBlockBegin
  2
*D30
 70
    1
 10
0
 20
0
  3
*D30
  1

  0
LINE
  5
161
100
AcDbEntity
  8
RWH_1
  6
ByBlock
 62
    0
370
   -2
100
AcDbLine
 10
122.2741379556748
 20
109.5380700550998
 11
122.2741379556748
 21
108.0360700551591
  0
SOLID
  5
162
100
AcDbEntity
  8
RWH_1
  6
ByBlock
 62
    0
370
   -2
100
AcDbTrace
 10
122.2741379556748
 20
109.5380700550998
 30
0
 11
122.3041104510344
 21
109.3580700550998
 31
0
 12
122.2441654603152
 22
109.3580700550998
 32
0
 13
122.2441654603152
 23
109.3580700550998
 33
0
  0
SOLID
  5
163
100
AcDbEntity
  8
RWH_1
  6
ByBlock
 62
    0
370
   -2
100
AcDbTrace
 10
122.2741379556748
 20
108.0360700551591
 30
0
 11
122.2441654603152
 21
108.2160700551591
 31
0
 12
122.3041104510344
 22
108.2160700551591
 32
0
 13
122.3041104510344
 23
108.2160700551591
 33
0
  0
MTEXT
  5
164
100
AcDbEntity
  8
RWH_1
  6
CONTINUOUS
 62
    0
370
   -2
100
AcDbMText
 10
122.0941379556748
 20
108.7870700551294
 30
0
 40
0.18
 41
0.3800000000000112
 71
    5
 72
    1
  1
1.50
  7
Standard
210
0
220
0
230
1
 50
90
 73
    2
 44
1
  0
LINE
  5
165
100
AcDbEntity
  8
RWH_1
  6
ByBlock
 62
    0
370
   -2
100
AcDbLine
 10
122.3366379556747
 20
109.5380700550998
 11
122.4541379556748
 21
109.5380700550998
  0
LINE
  5
166
100
AcDbEntity
  8
RWH_1
  6
ByBlock
 62
    0
370
   -2
100
AcDbLine
 10
122.2120265663364
 20
108.0360700551591
 11
122.4541379556748
 21
108.0360700551591
  0
ENDBLK
  5
B6
330
B4
100
AcDbEntity
  8
0
100
AcDbBlockEnd
  0
BLOCK
  5
B8
330
B7
100
AcDbEntity
  8
0
100
AcDbBlockBegin
  2
*D34
 70
    1
 10
0
 20
0
  3
*D34
  1

  0
LINE
  5
167
100
AcDbEntity
  8
BLK_1_FLR_0_GLASS_FACADE_2
  6
ByBlock
 62
    0
370
   -2
100
AcDbLine
 10
103.667864247343
 20
103.2755734184208
 11
103.667864247343
 21
100.8755734184207
  0
SOLID
  5
168
100
AcDbEntity
  8
BLK_1_FLR_0_GLASS_FACADE_2
  6
ByBlock
 62
    0
370
   -2
100
AcDbTrace
 10
103.667864247343
 20
103.2755734184208
 30
0
 11
103.6978367427026
 21
103.0955734184208
 31
0
 12
103.6378917519834
 22
103.0955734184208
 32
0
 13
103.6378917519834
 23
103.0955734184208
 33
0
  0
SOLID
  5
169
100
AcDbEntity
  8
BLK_1_FLR_0_GLASS_FACADE_2
  6
ByBlock
 62
    0
370
   -2
100
AcDbTrace
 10
103.667864247343
 20
100.8755734184207
 30
0
 11
103.6378917519834
 21
101.0555734184207
 31
0
 12
103.6978367427026
 22
101.0555734184207
 32
0
 13
103.6978367427026
 23
101.0555734184207
 33
0
  0
MTEXT
  5
16A
100
AcDbEntity
  8
BLK_1_FLR_0_GLASS_FACADE_2
  6
CONTINUOUS
 62
    0
370
   -2
100
AcDbMText
 10
103.487864247343
 20
102.0755734184208
 30
0
 40
0.18
 41
0.08000000000001117
 71
    5
 72
    1
  1
5
  7
Standard
210
0
220
0
230
1
 50
90
 73
    2
 44
1
  0
LINE
  5
16B
100
AcDbEntity
  8
BLK_1_FLR_0_GLASS_FACADE_2
  6
ByBlock
 62
    0
370
   -2
100
AcDbLine
 10
103.7109633915894
 20
103.2755734184208
 11
103.847864247343
 21
103.2755734184208
  0
LINE
  5
16C
100
AcDbEntity
  8
BLK_1_FLR_0_GLASS_FACADE_2
  6
ByBlock
 62
    0
370
   -2
100
AcDbLine
 10
103.7109633915894
 20
100.8755734184207
 11
103.847864247343
 21
100.8755734184207
  0
ENDBLK
  5
B9
330
B7
100
AcDbEntity
  8
0
100
AcDbBlockEnd
  0
BLOCK
  5
BB
330
BA
100
AcDbEntity
  8
0
100
AcDbBlockBegin
  2
*D17
 70
    1
 10
0
 20
0
  3
*D17
  1

  0
LINE
  5
16D
100
AcDbEntity
  8
BLK_1_FLR_0_REGULAR_ROOM
  6
ByBlock
 62
    0
370
   -2
100
AcDbLine
 10
91.49624486363307
 20
113.4859577116671
 11
91.49624486363307
 21
116.4859577116671
  0
SOLID
  5
16E
100
AcDbEntity
  8
BLK_1_FLR_0_REGULAR_ROOM
  6
ByBlock
 62
    0
370
   -2
100
AcDbTrace
 10
91.49624486363307
 20
113.4859577116671
 30
0
 11
91.46627236827342
 21
113.6659577116671
 31
0
 12
91.52621735899271
 22
113.6659577116671
 32
0
 13
91.52621735899271
 23
113.6659577116671
 33
0
  0
SOLID
  5
16F
100
AcDbEntity
  8
BLK_1_FLR_0_REGULAR_ROOM
  6
ByBlock
 62
    0
370
   -2
100
AcDbTrace
 10
91.49624486363307
 20
116.4859577116671
 30
0
 11
91.52621735899271
 21
116.3059577116671
 31
0
 12
91.46627236827342
 22
116.3059577116671
 32
0
 13
91.46627236827342
 23
116.3059577116671
 33
0
  0
MTEXT
  5
170
100
AcDbEntity
  8
BLK_1_FLR_0_REGULAR_ROOM
  6
CONTINUOUS
 62
    0
370
   -2
100
AcDbMText
 10
91.49624486363302
 20
114.9859577116671
 30
0
 40
0.18
 41
0.4200000000000111
 71
    5
 72
    1
  1
3.00
  7
Standard
210
0
220
0
230
1
 50
90
 73
    2
 44
1
  0
LINE
  5
171
100
AcDbEntity
  8
BLK_1_FLR_0_REGULAR_ROOM
  6
ByBlock
 62
    0
370
   -2
100
AcDbLine
 10
91.80408543537735
 20
113.4859577116671
 11
91.31624486363306
 21
113.4859577116671
  0
LINE
  5
172
100
AcDbEntity
  8
BLK_1_FLR_0_REGULAR_ROOM
  6
ByBlock
 62
    0
370
   -2
100
AcDbLine
 10
91.80408543537735
 20
116.4859577116671
 11
91.31624486363306
 21
116.4859577116671
  0
ENDBLK
  5
BC
330
BA
100
AcDbEntity
  8
0
100
AcDbBlockEnd
  0
BLOCK
  5
BE
330
BD
100
AcDbEntity
  8
0
100
AcDbBlockBegin
  2
*D4
 70
    1
 10
0
 20
0
  3
*D4
  1

  0
LINE
  5
173
100
AcDbEntity
  8
0
  6
CONTINUOUS
 62
    7
370
    0
100
AcDbLine
 10
96.35421137614048
 20
116.7944816611342
 11
97.00876275533231
 21
117.2249098515793
  0
LINE
  5
174
100
AcDbEntity
  8
0
  6
CONTINUOUS
 62
    7
370
    0
100
AcDbLine
 10
97.00876275533231
 20
117.2249098515793
 11
97.51340426982142
 21
117.2249098515793
  0
SOLID
  5
175
100
AcDbEntity
  8
0
  6
CONTINUOUS
 62
    7
370
    0
100
AcDbTrace
 10
96.35421137614048
 20
116.7944816611342
 30
0
 11
96.48813920871261
 21
116.9184239305204
 31
0
 12
96.52107540504875
 22
116.8683379156736
 32
0
 13
96.52107540504875
 23
116.8683379156736
 33
0
  0
ENDBLK
  5
BF
330
BD
100
AcDbEntity
  8
0
100
AcDbBlockEnd
  0
BLOCK
  5
C1
330
C0
100
AcDbEntity
  8
0
100
AcDbBlockBegin
  2
*D37
 70
    1
 10
0
 20
0
  3
*D37
  1

  0
LINE
  5
176
100
AcDbEntity
  8
BLK_1_FLR_0_GLASS_FACADE_2
  6
ByBlock
 62
    0
370
   -2
100
AcDbLine
 10
102.2645345711644
 20
101.3659784926885
 11
102.2645345711644
 21
101.125059670918
  0
LINE
  5
177
100
AcDbEntity
  8
BLK_1_FLR_0_GLASS_FACADE_2
  6
ByBlock
 62
    0
370
   -2
100
AcDbLine
 10
103.4645345711633
 20
101.3659784926885
 11
103.4645345711633
 21
101.125059670918
  0
LINE
  5
178
100
AcDbEntity
  8
BLK_1_FLR_0_GLASS_FACADE_2
  6
ByBlock
 62
    0
370
   -2
100
AcDbLine
 10
102.2645345711644
 20
101.305059670918
 11
103.4645345711633
 21
101.305059670918
  0
SOLID
  5
179
100
AcDbEntity
  8
BLK_1_FLR_0_GLASS_FACADE_2
  6
ByBlock
 62
    0
370
   -2
100
AcDbTrace
 10
102.2645345711644
 20
101.305059670918
 30
0
 11
102.4445345711644
 21
101.3350321662776
 31
0
 12
102.4445345711644
 22
101.2750871755584
 32
0
 13
102.4445345711644
 23
101.2750871755584
 33
0
  0
SOLID
  5
17A
100
AcDbEntity
  8
BLK_1_FLR_0_GLASS_FACADE_2
  6
ByBlock
 62
    0
370
   -2
100
AcDbTrace
 10
103.4645345711633
 20
101.305059670918
 30
0
 11
103.2845345711633
 21
101.2750871755584
 31
0
 12
103.2845345711633
 22
101.3350321662776
 32
0
 13
103.2845345711633
 23
101.3350321662776
 33
0
  0
MTEXT
  5
17B
100
AcDbEntity
  8
BLK_1_FLR_0_GLASS_FACADE_2
  6
CONTINUOUS
 62
    0
370
   -2
100
AcDbMText
 10
102.8645345711638
 20
101.485059670918
 30
0
 40
0.18
 41
0.28
 71
    5
 72
    1
  1
2.2
  7
Standard
210
0
220
0
230
1
 50
0
 73
    2
 44
1
  0
ENDBLK
  5
C2
330
C0
100
AcDbEntity
  8
0
100
AcDbBlockEnd
  0
BLOCK
  5
C4
330
C3
100
AcDbEntity
  8
0
100
AcDbBlockBegin
  2
*D32
 70
    1
 10
0
 20
0
  3
*D32
  1

  0
LINE
  5
17C
100
AcDbEntity
  8
RWH_3
  6
ByBlock
 62
    0
370
   -2
100
AcDbLine
 10
114.1120139450896
 20
108.3551535318266
 11
114.1120139450896
 21
106.8531535318859
  0
SOLID
  5
17D
100
AcDbEntity
  8
RWH_3
  6
ByBlock
 62
    0
370
   -2
100
AcDbTrace
 10
114.1120139450896
 20
108.3551535318266
 30
0
 11
114.1419864404492
 21
108.1751535318266
 31
0
 12
114.08204144973
 22
108.1751535318266
 32
0
 13
114.08204144973
 23
108.1751535318266
 33
0
  0
SOLID
  5
17E
100
AcDbEntity
  8
RWH_3
  6
ByBlock
 62
    0
370
   -2
100
AcDbTrace
 10
114.1120139450896
 20
106.8531535318859
 30
0
 11
114.08204144973
 21
107.0331535318859
 31
0
 12
114.1419864404492
 22
107.0331535318859
 32
0
 13
114.1419864404492
 23
107.0331535318859
 33
0
  0
MTEXT
  5
17F
100
AcDbEntity
  8
RWH_3
  6
CONTINUOUS
 62
    0
370
   -2
100
AcDbMText
 10
113.9320139450896
 20
107.6041535318562
 30
0
 40
0.18
 41
0.3800000000000112
 71
    5
 72
    1
  1
1.50
  7
Standard
210
0
220
0
230
1
 50
90
 73
    2
 44
1
  0
LINE
  5
180
100
AcDbEntity
  8
RWH_3
  6
ByBlock
 62
    0
370
   -2
100
AcDbLine
 10
114.1745139450896
 20
108.3551535318266
 11
114.2920139450896
 21
108.3551535318266
  0
LINE
  5
181
100
AcDbEntity
  8
RWH_3
  6
ByBlock
 62
    0
370
   -2
100
AcDbLine
 10
114.0499025557512
 20
106.8531535318859
 11
114.2920139450896
 21
106.8531535318859
  0
ENDBLK
  5
C5
330
C3
100
AcDbEntity
  8
0
100
AcDbBlockEnd
  0
BLOCK
  5
C7
330
C6
100
AcDbEntity
  8
0
100
AcDbBlockBegin
  2
*D12
 70
    1
 10
0
 20
0
  3
*D12
  1

  0
LINE
  5
182
100
AcDbEntity
  8
0
  6
ByBlock
 62
    0
370
   -2
100
AcDbLine
 10
87.37732644499852
 20
111.9959577116671
 11
87.37732644499852
 21
111.0759577116672
  0
SOLID
  5
183
100
AcDbEntity
  8
0
  6
ByBlock
 62
    0
370
   -2
100
AcDbTrace
 10
87.37732644499852
 20
111.6359577116671
 30
0
 11
87.34735394963887
 21
111.8159577116671
 31
0
 12
87.40729894035816
 22
111.8159577116671
 32
0
 13
87.40729894035816
 23
111.8159577116671
 33
0
  0
SOLID
  5
184
100
AcDbEntity
  8
0
  6
ByBlock
 62
    0
370
   -2
100
AcDbTrace
 10
87.37732644499852
 20
111.4359577116672
 30
0
 11
87.40729894035816
 21
111.2559577116672
 31
0
 12
87.34735394963887
 22
111.2559577116672
 32
0
 13
87.34735394963887
 23
111.2559577116672
 33
0
  0
MTEXT
  5
185
100
AcDbEntity
  8
0
  6
CONTINUOUS
 62
    0
370
   -2
100
AcDbMText
 10
87.68174388947432
 20
111.9359577116666
 30
0
 40
0.18
 41
0.42
 71
    5
 72
    1
  1
0.20
  7
Standard
210
0
220
0
230
1
 50
90
 73
    2
 44
1
  0
LINE
  5
186
100
AcDbEntity
  8
0
  6
ByBlock
 62
    0
370
   -2
100
AcDbLine
 10
87.10872387648146
 20
111.6359577116671
 11
87.55732644499852
 21
111.6359577116671
  0
LINE
  5
187
100
AcDbEntity
  8
0
  6
ByBlock
 62
    0
370
   -2
100
AcDbLine
 10
87.10872387648146
 20
111.4359577116672
 11
87.55732644499852
 21
111.4359577116672
  0
ENDBLK
  5
C8
330
C6
100
AcDbEntity
  8
0
100
AcDbBlockEnd
  0
BLOCK
  5
CA
330
C9
100
AcDbEntity
  8
0
100
AcDbBlockBegin
  2
*D28
 70
    1
 10
0
 20
0
  3
*D28
  1

  0
LINE
  5
188
100
AcDbEntity
  8
BLK_1_FLR_0_STAIR_1_FLIGHT_2
  6
ByBlock
 62
    0
370
   -2
100
AcDbLine
 10
103.760479128774
 20
103.493879924651
 11
103.760479128774
 21
101.0938799246509
  0
SOLID
  5
189
100
AcDbEntity
  8
BLK_1_FLR_0_STAIR_1_FLIGHT_2
  6
ByBlock
 62
    0
370
   -2
100
AcDbTrace
 10
103.760479128774
 20
103.493879924651
 30
0
 11
103.7904516241336
 21
103.313879924651
 31
0
 12
103.7305066334144
 22
103.313879924651
 32
0
 13
103.7305066334144
 23
103.313879924651
 33
0
  0
SOLID
  5
18A
100
AcDbEntity
  8
BLK_1_FLR_0_STAIR_1_FLIGHT_2
  6
ByBlock
 62
    0
370
   -2
100
AcDbTrace
 10
103.760479128774
 20
101.0938799246509
 30
0
 11
103.7305066334144
 21
101.2738799246509
 31
0
 12
103.7904516241336
 22
101.2738799246509
 32
0
 13
103.7904516241336
 23
101.2738799246509
 33
0
  0
MTEXT
  5
18B
100
AcDbEntity
  8
BLK_1_FLR_0_STAIR_1_FLIGHT_2
  6
CONTINUOUS
 62
    0
370
   -2
100
AcDbMText
 10
103.760479128774
 20
102.293879924651
 30
0
 40
0.18
 41
0.4400000000000001
 71
    5
 72
    1
  1
2.40
  7
Standard
210
0
220
0
230
1
 50
90
 73
    2
 44
1
  0
LINE
  5
18C
100
AcDbEntity
  8
BLK_1_FLR_0_STAIR_1_FLIGHT_2
  6
ByBlock
 62
    0
370
   -2
100
AcDbLine
 10
103.8035782730204
 20
103.493879924651
 11
103.940479128774
 21
103.493879924651
  0
LINE
  5
18D
100
AcDbEntity
  8
BLK_1_FLR_0_STAIR_1_FLIGHT_2
  6
ByBlock
 62
    0
370
   -2
100
AcDbLine
 10
103.8035782730204
 20
101.0938799246509
 11
103.940479128774
 21
101.0938799246509
  0
ENDBLK
  5
CB
330
C9
100
AcDbEntity
  8
0
100
AcDbBlockEnd
  0
BLOCK
  5
CD
330
CC
100
AcDbEntity
  8
0
100
AcDbBlockBegin
  2
*D38
 70
    1
 10
0
 20
0
  3
*D38
  1

  0
LINE
  5
18E
100
AcDbEntity
  8
BLK_1_FLR_0_ROOM_1_MEZ_AREA_1
  6
ByBlock
 62
    0
370
   -2
100
AcDbLine
 10
100.2500692917026
 20
104.1384431306643
 11
100.2500692917026
 21
101.7384431306642
  0
SOLID
  5
18F
100
AcDbEntity
  8
BLK_1_FLR_0_ROOM_1_MEZ_AREA_1
  6
ByBlock
 62
    0
370
   -2
100
AcDbTrace
 10
100.2500692917026
 20
104.1384431306643
 30
0
 11
100.2800417870622
 21
103.9584431306643
 31
0
 12
100.220096796343
 22
103.9584431306643
 32
0
 13
100.220096796343
 23
103.9584431306643
 33
0
  0
SOLID
  5
190
100
AcDbEntity
  8
BLK_1_FLR_0_ROOM_1_MEZ_AREA_1
  6
ByBlock
 62
    0
370
   -2
100
AcDbTrace
 10
100.2500692917026
 20
101.7384431306642
 30
0
 11
100.220096796343
 21
101.9184431306642
 31
0
 12
100.2800417870622
 22
101.9184431306642
 32
0
 13
100.2800417870622
 23
101.9184431306642
 33
0
  0
MTEXT
  5
191
100
AcDbEntity
  8
BLK_1_FLR_0_ROOM_1_MEZ_AREA_1
  6
CONTINUOUS
 62
    0
370
   -2
100
AcDbMText
 10
100.0700692917026
 20
102.9384431306643
 30
0
 40
0.18
 41
0.08000000000001117
 71
    5
 72
    1
  1
3
  7
Standard
210
0
220
0
230
1
 50
90
 73
    2
 44
1
  0
LINE
  5
192
100
AcDbEntity
  8
BLK_1_FLR_0_ROOM_1_MEZ_AREA_1
  6
ByBlock
 62
    0
370
   -2
100
AcDbLine
 10
100.293168435949
 20
104.1384431306643
 11
100.4300692917026
 21
104.1384431306643
  0
LINE
  5
193
100
AcDbEntity
  8
BLK_1_FLR_0_ROOM_1_MEZ_AREA_1
  6
ByBlock
 62
    0
370
   -2
100
AcDbLine
 10
100.293168435949
 20
101.7384431306642
 11
100.4300692917026
 21
101.7384431306642
  0
ENDBLK
  5
CE
330
CC
100
AcDbEntity
  8
0
100
AcDbBlockEnd
  0
BLOCK
  5
D0
330
CF
100
AcDbEntity
  8
0
100
AcDbBlockBegin
  2
*D18
 70
    1
 10
0
 20
0
  3
*D18
  1

  0
LINE
  5
194
100
AcDbEntity
  8
LOCATION_PLAN
  6
CONTINUOUS
 62
    7
370
    0
100
AcDbLine
 10
137.7317117977691
 20
104.1534823802504
 11
137.7317117977691
 21
105.269533877939
  0
LINE
  5
195
100
AcDbEntity
  8
LOCATION_PLAN
  6
CONTINUOUS
 62
    7
370
    0
100
AcDbLine
 10
137.7317117977691
 20
105.269533877939
 11
135.5379616840873
 21
105.269533877939
  0
SOLID
  5
196
100
AcDbEntity
  8
LOCATION_PLAN
  6
CONTINUOUS
 62
    7
370
    0
100
AcDbTrace
 10
137.7317117977691
 20
104.1534823802504
 30
0
 11
137.7017393024094
 21
104.3334823802504
 31
0
 12
137.7616842931288
 22
104.3334823802504
 32
0
 13
137.7616842931288
 23
104.3334823802504
 33
0
  0
ENDBLK
  5
D1
330
CF
100
AcDbEntity
  8
0
100
AcDbBlockEnd
  0
BLOCK
  5
D3
330
D2
100
AcDbEntity
  8
0
100
AcDbBlockBegin
  2
*D21
 70
    1
 10
0
 20
0
  3
*D21
  1

  0
LINE
  5
197
100
AcDbEntity
  8
0
  6
ByBlock
 62
    0
370
   -2
100
AcDbLine
 10
126.0873631736776
 20
95.80039189076756
 11
126.0873631736776
 21
111.0003918907676
  0
SOLID
  5
198
100
AcDbEntity
  8
0
  6
ByBlock
 62
    0
370
   -2
100
AcDbTrace
 10
126.0873631736776
 20
95.80039189076756
 30
0
 11
126.057390678318
 21
95.98039189076756
 31
0
 12
126.1173356690372
 22
95.98039189076756
 32
0
 13
126.1173356690372
 23
95.98039189076756
 33
0
  0
SOLID
  5
199
100
AcDbEntity
  8
0
  6
ByBlock
 62
    0
370
   -2
100
AcDbTrace
 10
126.0873631736776
 20
111.0003918907676
 30
0
 11
126.1173356690372
 21
110.8203918907676
 31
0
 12
126.057390678318
 22
110.8203918907676
 32
0
 13
126.057390678318
 23
110.8203918907676
 33
0
  0
MTEXT
  5
19A
100
AcDbEntity
  8
0
  6
CONTINUOUS
 62
    0
370
   -2
100
AcDbMText
 10
126.0873631736776
 20
103.4003918907675
 30
0
 40
0.18
 41
0.5200000000000111
 71
    5
 72
    1
  1
15.20
  7
Standard
210
0
220
0
230
1
 50
90
 73
    2
 44
1
  0
LINE
  5
19B
100
AcDbEntity
  8
0
  6
ByBlock
 62
    0
370
   -2
100
AcDbLine
 10
125.4924233381337
 20
95.80039189076756
 11
126.2673631736776
 21
95.80039189076756
  0
LINE
  5
19C
100
AcDbEntity
  8
0
  6
ByBlock
 62
    0
370
   -2
100
AcDbLine
 10
125.4924233381337
 20
111.0003918907676
 11
126.2673631736776
 21
111.0003918907676
  0
ENDBLK
  5
D4
330
D2
100
AcDbEntity
  8
0
100
AcDbBlockEnd
  0
BLOCK
  5
D6
330
D5
100
AcDbEntity
  8
0
100
AcDbBlockBegin
  2
*D33
 70
    1
 10
0
 20
0
  3
*D33
  1

  0
LINE
  5
19D
100
AcDbEntity
  8
BLK_1_FLR_0_GLASS_FACADE_2
  6
ByBlock
 62
    0
370
   -2
100
AcDbLine
 10
102.3505341039217
 20
101.7496687157597
 11
102.3505341039217
 21
101.5087498939892
  0
LINE
  5
19E
100
AcDbEntity
  8
BLK_1_FLR_0_GLASS_FACADE_2
  6
ByBlock
 62
    0
370
   -2
100
AcDbLine
 10
103.5505341039206
 20
101.7496687157597
 11
103.5505341039206
 21
101.5087498939892
  0
LINE
  5
19F
100
AcDbEntity
  8
BLK_1_FLR_0_GLASS_FACADE_2
  6
ByBlock
 62
    0
370
   -2
100
AcDbLine
 10
102.3505341039217
 20
101.6887498939892
 11
103.5505341039206
 21
101.6887498939892
  0
SOLID
  5
1A0
100
AcDbEntity
  8
BLK_1_FLR_0_GLASS_FACADE_2
  6
ByBlock
 62
    0
370
   -2
100
AcDbTrace
 10
102.3505341039217
 20
101.6887498939892
 30
0
 11
102.5305341039217
 21
101.7187223893488
 31
0
 12
102.5305341039217
 22
101.6587773986296
 32
0
 13
102.5305341039217
 23
101.6587773986296
 33
0
  0
SOLID
  5
1A1
100
AcDbEntity
  8
BLK_1_FLR_0_GLASS_FACADE_2
  6
ByBlock
 62
    0
370
   -2
100
AcDbTrace
 10
103.5505341039206
 20
101.6887498939892
 30
0
 11
103.3705341039206
 21
101.6587773986296
 31
0
 12
103.3705341039206
 22
101.7187223893488
 32
0
 13
103.3705341039206
 23
101.7187223893488
 33
0
  0
MTEXT
  5
1A2
100
AcDbEntity
  8
BLK_1_FLR_0_GLASS_FACADE_2
  6
CONTINUOUS
 62
    0
370
   -2
100
AcDbMText
 10
102.9505341039212
 20
101.8687498939892
 30
0
 40
0.18
 41
0.08
 71
    5
 72
    1
  1
2
  7
Standard
210
0
220
0
230
1
 50
0
 73
    2
 44
1
  0
ENDBLK
  5
D7
330
D5
100
AcDbEntity
  8
0
100
AcDbBlockEnd
  0
BLOCK
  5
D9
330
D8
100
AcDbEntity
  8
0
100
AcDbBlockBegin
  2
*D27
 70
    1
 10
0
 20
0
  3
*D27
  1

  0
LINE
  5
1A3
100
AcDbEntity
  8
BLK_1_FLR_0_STAIR_1_LANDING_1
  6
ByBlock
 62
    0
370
   -2
100
AcDbLine
 10
101.4474550243411
 20
104.4964159231336
 11
103.9474550243391
 21
104.4964159231336
  0
SOLID
  5
1A4
100
AcDbEntity
  8
BLK_1_FLR_0_STAIR_1_LANDING_1
  6
ByBlock
 62
    0
370
   -2
100
AcDbTrace
 10
101.4474550243411
 20
104.4964159231336
 30
0
 11
101.6274550243411
 21
104.5263884184932
 31
0
 12
101.6274550243411
 22
104.466443427774
 32
0
 13
101.6274550243411
 23
104.466443427774
 33
0
  0
SOLID
  5
1A5
100
AcDbEntity
  8
BLK_1_FLR_0_STAIR_1_LANDING_1
  6
ByBlock
 62
    0
370
   -2
100
AcDbTrace
 10
103.9474550243391
 20
104.4964159231336
 30
0
 11
103.7674550243391
 21
104.466443427774
 31
0
 12
103.7674550243391
 22
104.5263884184932
 32
0
 13
103.7674550243391
 23
104.5263884184932
 33
0
  0
MTEXT
  5
1A6
100
AcDbEntity
  8
BLK_1_FLR_0_STAIR_1_LANDING_1
  6
CONTINUOUS
 62
    0
370
   -2
100
AcDbMText
 10
102.1969035970623
 20
104.4964159231336
 30
0
 40
0.18
 41
0.4200000000000113
 71
    5
 72
    1
  1
2.50
  7
Standard
210
0
220
0
230
1
 50
0
 73
    2
 44
1
  0
LINE
  5
1A7
100
AcDbEntity
  8
BLK_1_FLR_0_STAIR_1_LANDING_1
  6
ByBlock
 62
    0
370
   -2
100
AcDbLine
 10
101.4474550243411
 20
104.1563799246505
 11
101.4474550243411
 21
104.6764159231336
  0
LINE
  5
1A8
100
AcDbEntity
  8
BLK_1_FLR_0_STAIR_1_LANDING_1
  6
ByBlock
 62
    0
370
   -2
100
AcDbLine
 10
103.9474550243391
 20
104.1563799246505
 11
103.9474550243391
 21
104.6764159231336
  0
ENDBLK
  5
DA
330
D8
100
AcDbEntity
  8
0
100
AcDbBlockEnd
  0
BLOCK
  5
DC
330
DB
100
AcDbEntity
  8
0
100
AcDbBlockBegin
  2
*D29
 70
    1
 10
0
 20
0
  3
*D29
  1

  0
LINE
  5
1A9
100
AcDbEntity
  8
BLK_1_STAIR_HEADROOM
  6
ByBlock
 62
    0
370
   -2
100
AcDbLine
 10
88.22851590055961
 20
116.4859577116671
 11
88.22851590055961
 21
113.4859577116671
  0
SOLID
  5
1AA
100
AcDbEntity
  8
BLK_1_STAIR_HEADROOM
  6
ByBlock
 62
    0
370
   -2
100
AcDbTrace
 10
88.22851590055961
 20
116.4859577116671
 30
0
 11
88.25848839591926
 21
116.3059577116671
 31
0
 12
88.19854340519997
 22
116.3059577116671
 32
0
 13
88.19854340519997
 23
116.3059577116671
 33
0
  0
SOLID
  5
1AB
100
AcDbEntity
  8
BLK_1_STAIR_HEADROOM
  6
ByBlock
 62
    0
370
   -2
100
AcDbTrace
 10
88.22851590055961
 20
113.4859577116671
 30
0
 11
88.19854340519997
 21
113.6659577116671
 31
0
 12
88.25848839591926
 22
113.6659577116671
 32
0
 13
88.25848839591926
 23
113.6659577116671
 33
0
  0
MTEXT
  5
1AC
100
AcDbEntity
  8
BLK_1_STAIR_HEADROOM
  6
CONTINUOUS
 62
    0
370
   -2
100
AcDbMText
 10
88.22851590055961
 20
114.3088138042622
 30
0
 40
0.18
 41
0.4200000000000111
 71
    5
 72
    1
  1
3.00
  7
Standard
210
0
220
0
230
1
 50
90
 73
    2
 44
1
  0
LINE
  5
1AD
100
AcDbEntity
  8
BLK_1_STAIR_HEADROOM
  6
ByBlock
 62
    0
370
   -2
100
AcDbLine
 10
88.28765229799183
 20
116.4859577116671
 11
88.40851590055962
 21
116.4859577116671
  0
LINE
  5
1AE
100
AcDbEntity
  8
BLK_1_STAIR_HEADROOM
  6
ByBlock
 62
    0
370
   -2
100
AcDbLine
 10
88.39828673971694
 20
113.4859577116671
 11
88.04851590055961
 21
113.4859577116671
  0
ENDBLK
  5
DD
330
DB
100
AcDbEntity
  8
0
100
AcDbBlockEnd
  0
BLOCK
  5
DF
330
DE
100
AcDbEntity
  8
0
100
AcDbBlockBegin
  2
*D14
 70
    1
 10
0
 20
0
  3
*D14
  1

  0
LINE
  5
1AF
100
AcDbEntity
  8
0
  6
CONTINUOUS
 62
    7
370
    0
100
AcDbLine
 10
96.41966041440332
 20
111.3367883149142
 11
97.67788871088328
 21
111.3367883149142
  0
SOLID
  5
1B0
100
AcDbEntity
  8
0
  6
CONTINUOUS
 62
    7
370
    0
100
AcDbTrace
 10
96.41966041440332
 20
111.3367883149142
 30
0
 11
96.59966041440333
 21
111.3667608102738
 31
0
 12
96.59966041440333
 22
111.3068158195546
 32
0
 13
96.59966041440333
 23
111.3068158195546
 33
0
  0
ENDBLK
  5
E0
330
DE
100
AcDbEntity
  8
0
100
AcDbBlockEnd
  0
BLOCK
  5
E2
330
E1
100
AcDbEntity
  8
0
100
AcDbBlockBegin
  2
*D6
 70
    1
 10
0
 20
0
  3
*D6
  1

  0
LINE
  5
1B1
100
AcDbEntity
  8
BLK_1_HT_OF_BLDG
  6
ByBlock
 62
    0
370
   -2
100
AcDbLine
 10
84.30365495742242
 20
113.4859577116671
 11
84.30365495742242
 21
116.5859577116674
  0
SOLID
  5
1B2
100
AcDbEntity
  8
BLK_1_HT_OF_BLDG
  6
ByBlock
 62
    0
370
   -2
100
AcDbTrace
 10
84.30365495742242
 20
113.4859577116671
 30
0
 11
84.27368246206278
 21
113.6659577116671
 31
0
 12
84.33362745278207
 22
113.6659577116671
 32
0
 13
84.33362745278207
 23
113.6659577116671
 33
0
  0
SOLID
  5
1B3
100
AcDbEntity
  8
BLK_1_HT_OF_BLDG
  6
ByBlock
 62
    0
370
   -2
100
AcDbTrace
 10
84.30365495742242
 20
116.5859577116674
 30
0
 11
84.33362745278207
 21
116.4059577116674
 31
0
 12
84.27368246206278
 22
116.4059577116674
 32
0
 13
84.27368246206278
 23
116.4059577116674
 33
0
  0
MTEXT
  5
1B4
100
AcDbEntity
  8
BLK_1_HT_OF_BLDG
  6
CONTINUOUS
 62
    0
370
   -2
100
AcDbMText
 10
84.30365495742237
 20
115.0359577116672
 30
0
 40
0.18
 41
0.3800000000000112
 71
    5
 72
    1
  1
3.10
  7
Standard
210
0
220
0
230
1
 50
90
 73
    2
 44
1
  0
LINE
  5
1B5
100
AcDbEntity
  8
BLK_1_HT_OF_BLDG
  6
ByBlock
 62
    0
370
   -2
100
AcDbLine
 10
86.12372387648225
 20
113.4859577116671
 11
84.12365495742242
 21
113.4859577116671
  0
LINE
  5
1B6
100
AcDbEntity
  8
BLK_1_HT_OF_BLDG
  6
ByBlock
 62
    0
370
   -2
100
AcDbLine
 10
86.12372387648225
 20
116.5859577116674
 11
84.12365495742242
 21
116.5859577116674
  0
ENDBLK
  5
E3
330
E1
100
AcDbEntity
  8
0
100
AcDbBlockEnd
  0
BLOCK
  5
E5
330
E4
100
AcDbEntity
  8
0
100
AcDbBlockBegin
  2
*D16
 70
    1
 10
0
 20
0
  3
*D16
  1

  0
LINE
  5
1B7
100
AcDbEntity
  8
BLK_1_MUMTY_HT
  6
ByBlock
 62
    0
370
   -2
100
AcDbLine
 10
84.30365495742242
 20
116.5859577116677
 11
84.30365495742242
 21
119.0859577116677
  0
SOLID
  5
1B8
100
AcDbEntity
  8
BLK_1_MUMTY_HT
  6
ByBlock
 62
    0
370
   -2
100
AcDbTrace
 10
84.30365495742242
 20
116.5859577116677
 30
0
 11
84.27368246206278
 21
116.7659577116677
 31
0
 12
84.33362745278207
 22
116.7659577116677
 32
0
 13
84.33362745278207
 23
116.7659577116677
 33
0
  0
SOLID
  5
1B9
100
AcDbEntity
  8
BLK_1_MUMTY_HT
  6
ByBlock
 62
    0
370
   -2
100
AcDbTrace
 10
84.30365495742242
 20
119.0859577116677
 30
0
 11
84.33362745278207
 21
118.9059577116677
 31
0
 12
84.27368246206278
 22
118.9059577116677
 32
0
 13
84.27368246206278
 23
118.9059577116677
 33
0
  0
MTEXT
  5
1BA
100
AcDbEntity
  8
BLK_1_MUMTY_HT
  6
CONTINUOUS
 62
    0
370
   -2
100
AcDbMText
 10
84.30365495742242
 20
117.8359577116678
 30
0
 40
0.18
 41
0.4200000000000113
 71
    5
 72
    1
  1
2.50
  7
Standard
210
0
220
0
230
1
 50
90
 73
    2
 44
1
  0
LINE
  5
1BB
100
AcDbEntity
  8
BLK_1_MUMTY_HT
  6
ByBlock
 62
    0
370
   -2
100
AcDbLine
 10
85.92372387648243
 20
116.5859577116677
 11
84.12365495742242
 21
116.5859577116677
  0
LINE
  5
1BC
100
AcDbEntity
  8
BLK_1_MUMTY_HT
  6
ByBlock
 62
    0
370
   -2
100
AcDbLine
 10
85.92372387648243
 20
119.0859577116677
 11
84.12365495742242
 21
119.0859577116677
  0
ENDBLK
  5
E6
330
E4
100
AcDbEntity
  8
0
100
AcDbBlockEnd
  0
BLOCK
  5
E8
330
E7
100
AcDbEntity
  8
0
100
AcDbBlockBegin
  2
*D13
 70
    1
 10
0
 20
0
  3
*D13
  1

  0
LINE
  5
1BD
100
AcDbEntity
  8
0
  6
ByBlock
 62
    0
370
   -2
100
AcDbLine
 10
85.17329425605431
 20
111.2859577116671
 11
85.17329425605431
 21
112.6859577116673
  0
SOLID
  5
1BE
100
AcDbEntity
  8
0
  6
ByBlock
 62
    0
370
   -2
100
AcDbTrace
 10
85.17329425605431
 20
111.2859577116671
 30
0
 11
85.14332176069466
 21
111.4659577116671
 31
0
 12
85.20326675141395
 22
111.4659577116671
 32
0
 13
85.20326675141395
 23
111.4659577116671
 33
0
  0
SOLID
  5
1BF
100
AcDbEntity
  8
0
  6
ByBlock
 62
    0
370
   -2
100
AcDbTrace
 10
85.17329425605431
 20
112.6859577116673
 30
0
 11
85.20326675141395
 21
112.5059577116673
 31
0
 12
85.14332176069466
 22
112.5059577116673
 32
0
 13
85.14332176069466
 23
112.5059577116673
 33
0
  0
MTEXT
  5
1C0
100
AcDbEntity
  8
0
  6
CONTINUOUS
 62
    0
370
   -2
100
AcDbMText
 10
85.17329425605428
 20
111.9859577116672
 30
0
 40
0.18
 41
0.4
 71
    5
 72
    1
  1
1.40
  7
Standard
210
0
220
0
230
1
 50
90
 73
    2
 44
1
  0
LINE
  5
1C1
100
AcDbEntity
  8
0
  6
ByBlock
 62
    0
370
   -2
100
AcDbLine
 10
85.38372387648224
 20
111.2859577116671
 11
84.9932942560543
 21
111.2859577116671
  0
LINE
  5
1C2
100
AcDbEntity
  8
0
  6
ByBlock
 62
    0
370
   -2
100
AcDbLine
 10
85.38372387648224
 20
112.6859577116673
 11
84.9932942560543
 21
112.6859577116673
  0
ENDBLK
  5
E9
330
E7
100
AcDbEntity
  8
0
100
AcDbBlockEnd
  0
BLOCK
  5
EB
330
EA
100
AcDbEntity
  8
0
100
AcDbBlockBegin
  2
_ArchTick
 70
    0
 10
0
 20
0
  3
_ArchTick
  1

  0
LWPOLYLINE
  5
1C3
100
AcDbEntity
  8
0
  6
ByBlock
 62
    0
370
   -1
100
AcDbPolyline
 90
    2
 70
    0
 43
0
 10
-0.5
 20
-0.5
 10
0.5
 20
0.5
  0
ENDBLK
  5
EC
330
EA
100
AcDbEntity
  8
0
100
AcDbBlockEnd
  0
ENDSEC
  0
SECTION
  2
ENTITIES
  0
MTEXT
  5
1C4
100
AcDbEntity
  8
0
  6
ByLayer
 62
  256
370
   -1
100
AcDbMText
 10
156.5772063516076
 20
60.03060820895799
 30
0
 40
0.000875
 41
0.01451041666666678
 71
    1
 72
    5
  1
\pi273.76;EXI:\P\pi273.75;NMCK COMPLEX\P\pi273.75;-KSFE OFFICE
  7
standard
210
0
220
0
230
1
 50
0
 73
    1
 44
1
  0
LWPOLYLINE
  5
1C5
100
AcDbEntity
  8
SOLAR_PANEL
  6
ByLayer
 62
  256
370
   -1
100
AcDbPolyline
 90
    4
 70
    1
 43
0
 10
106.777904537929
 20
108.8307043717677
 10
107.5254157032808
 20
108.8307043717677
 10
107.5254157032808
 20
107.1910545029186
 10
106.777904537929
 20
107.1910545029186
  0
LWPOLYLINE
  5
1C6
100
AcDbEntity
  8
SOLAR_WATER_HEATER
  6
ByLayer
 62
  256
370
   -1
100
AcDbPolyline
 90
    4
 70
    1
 43
0
 10
106.8546125137478
 20
108.7883474505015
 10
107.4411481666658
 20
108.7883474505015
 10
107.4411481666658
 20
108.6094604265385
 10
106.8546125137478
 20
108.6094604265385
  0
MTEXT
  5
1C7
100
AcDbEntity
  8
0
  6
ByLayer
 62
  256
370
   -1
100
AcDbMText
 10
106.861004107038
 20
108.2820842007381
 30
0
 40
0.2
 41
0.6222984166271541
 71
    1
 72
    5
  1
solar
  7
standard
210
0
220
0
230
1
 50
0
 73
    1
 44
1
  0
LINE
  5
1C8
100
AcDbEntity
  8
0
  6
ByLayer
 62
  252
370
    0
100
AcDbLine
 10
88.04783543538041
 20
113.6859584035872
 11
87.58622387648236
 21
113.6859586113272
  0
LINE
  5
1C9
100
AcDbEntity
  8
0
  6
ByLayer
 62
  252
370
    0
100
AcDbLine
 10
87.99783543538022
 20
113.7359577341698
 11
87.58622387648236
 21
113.7359577341698
  0
LINE
  5
1CA
100
AcDbEntity
  8
0
  6
ByLayer
 62
  252
370
    0
100
AcDbLine
 10
86.38622737597325
 20
118.9859577116679
 11
86.3862270584434
 21
116.5859577116677
  0
LINE
  5
1CB
100
AcDbEntity
  8
0
  6
ByLayer
 62
  252
370
    0
100
AcDbLine
 10
86.38622622492539
 20
116.4859577116671
 11
86.38622582801258
 21
113.4859581487466
  0
LINE
  5
1CC
100
AcDbEntity
  8
0
  6
ByLayer
 62
  252
370
    0
100
AcDbLine
 10
86.58622511376846
 20
115.5359576441636
 11
86.58622499879039
 21
114.6669114423092
  0
LINE
  5
1CD
100
AcDbEntity
  8
0
  6
ByLayer
 62
  252
370
    0
100
AcDbLine
 10
88.38533543538028
 20
115.5859577116674
 11
88.36577972236931
 21
115.5859577116674
  0
LINE
  5
1CE
100
AcDbEntity
  8
0
  6
ByLayer
 62
  252
370
    0
100
AcDbLine
 10
88.01577972236849
 20
115.5859577116674
 11
87.76577972236417
 21
115.5859577116674
  0
LINE
  5
1CF
100
AcDbEntity
  8
0
  6
ByLayer
 62
  252
370
    0
100
AcDbLine
 10
87.71577972236423
 20
115.5859577116674
 11
87.69522552543731
 21
115.5859577116674
  0
LINE
  5
1D0
100
AcDbEntity
  8
0
  6
ByLayer
 62
  252
370
    0
100
AcDbLine
 10
87.59104183928547
 20
115.5859577116674
 11
86.58622487562046
 21
115.5859577116674
  0
LINE
  5
1D1
100
AcDbEntity
  8
0
  6
ByLayer
 62
  252
370
    0
100
AcDbLine
 10
88.38533543538028
 20
115.5359577116672
 11
88.36577972236931
 21
115.5359577116672
  0
LINE
  5
1D2
100
AcDbEntity
  8
0
  6
ByLayer
 62
  252
370
    0
100
AcDbLine
 10
88.01577972236849
 20
115.5359577116672
 11
87.76577972236417
 21
115.5359577116672
  0
LINE
  5
1D3
100
AcDbEntity
  8
0
  6
ByLayer
 62
  252
370
    0
100
AcDbLine
 10
87.71577972236423
 20
115.5359577116672
 11
87.6038239912034
 21
115.5359577116672
  0
LINE
  5
1D4
100
AcDbEntity
  8
0
  6
ByLayer
 62
  252
370
    0
100
AcDbLine
 10
87.50622386255233
 20
115.5359577116672
 11
86.63622487562134
 21
115.5359577116672
  0
LINE
  5
1D5
100
AcDbEntity
  8
0
  6
ByLayer
 62
  256
370
   -1
100
AcDbLine
 10
86.38622810615038
 20
113.4859577116671
 11
86.38622945624026
 21
116.4859577116671
  0
LINE
  5
1D6
100
AcDbEntity
  8
0
  6
ByLayer
 62
  256
370
   -1
100
AcDbLine
 10
89.58533543537916
 20
113.4859577116671
 11
89.5853354353783
 21
116.4859577116671
  0
LINE
  5
1D7
100
AcDbEntity
  8
0
  6
ByLayer
 62
  256
370
   -1
100
AcDbLine
 10
89.7853354353804
 20
113.4859577116671
 11
89.7853354353804
 21
116.4859577116671
  0
LINE
  5
1D8
100
AcDbEntity
  8
0
  6
ByLayer
 62
  256
370
   -1
100
AcDbLine
 10
91.86658543537735
 20
113.4859577116671
 11
91.86658543537735
 21
116.4859577116671
  0
LINE
  5
1D9
100
AcDbEntity
  8
0
  6
ByLayer
 62
  256
370
   -1
100
AcDbLine
 10
91.96658543537635
 20
113.4859577116671
 11
91.96658543537635
 21
116.4859577116671
  0
LINE
  5
1DA
100
AcDbEntity
  8
0
  6
ByLayer
 62
  256
370
   -1
100
AcDbLine
 10
93.06658543537721
 20
113.4859577116671
 11
93.06658543537721
 21
116.4859577116671
  0
LINE
  5
1DB
100
AcDbEntity
  8
0
  6
ByLayer
 62
  256
370
   -1
100
AcDbLine
 10
93.16658543537731
 20
113.4859577116671
 11
93.16658543537731
 21
116.4859577116671
  0
LINE
  5
1DC
100
AcDbEntity
  8
0
  6
ByLayer
 62
  256
370
   -1
100
AcDbLine
 10
96.16658543537731
 20
113.4859577116671
 11
96.16658543537731
 21
116.4859577116671
  0
HATCH
  5
1DD
100
AcDbEntity
  8
0
  6
ByLayer
 62
  256
370
   -1
100
AcDbHatch
 10
0
 20
0
 30
0
210
0
220
0
230
1
  2
AR-CONC
 70
    0
 71
    0
 91
    1
 92
    0
 93
    4
 72
    1
 10
96.36658543574435
 20
115.7359577116671
 11
96.16658543537731
 21
115.7359577116671
 72
    1
 10
96.16658543537731
 20
115.7359577116671
 11
96.16658543537731
 21
115.5859577116674
 72
    1
 10
96.16658543537731
 20
115.5859577116674
 11
96.36658543573937
 21
115.5859577116674
 72
    1
 10
96.36658543573937
 20
115.5859577116674
 11
96.36658543574435
 21
115.7359577116671
 97
    0
 75
    0
 76
    1
 52
0
 41
0.02
 77
    0
 78
    0
 98
    0
  0
HATCH
  5
1DE
100
AcDbEntity
  8
0
  6
ByLayer
 62
  256
370
   -1
100
AcDbHatch
 10
0
 20
0
 30
0
210
0
220
0
230
1
  2
AR-CONC
 70
    0
 71
    0
 91
    1
 92
    0
 93
    4
 72
    1
 10
93.16658543537731
 20
115.7359577116671
 11
93.06658543537721
 21
115.7359577116671
 72
    1
 10
93.06658543537721
 20
115.7359577116671
 11
93.06658543537721
 21
115.5859577116674
 72
    1
 10
93.06658543537721
 20
115.5859577116674
 11
93.16658543537731
 21
115.5859577116674
 72
    1
 10
93.16658543537731
 20
115.5859577116674
 11
93.16658543537731
 21
115.7359577116671
 97
    0
 75
    0
 76
    1
 52
0
 41
0.02
 77
    0
 78
    0
 98
    0
  0
HATCH
  5
1DF
100
AcDbEntity
  8
0
  6
ByLayer
 62
  256
370
   -1
100
AcDbHatch
 10
0
 20
0
 30
0
210
0
220
0
230
1
  2
AR-CONC
 70
    0
 71
    0
 91
    1
 92
    0
 93
    4
 72
    1
 10
91.96658543537635
 20
115.7359577116671
 11
91.86658543537735
 21
115.7359577116671
 72
    1
 10
91.86658543537735
 20
115.7359577116671
 11
91.86658543537735
 21
115.5859577116674
 72
    1
 10
91.86658543537735
 20
115.5859577116674
 11
91.96658543537635
 21
115.5859577116674
 72
    1
 10
91.96658543537635
 20
115.5859577116674
 11
91.96658543537635
 21
115.7359577116671
 97
    0
 75
    0
 76
    1
 52
0
 41
0.02
 77
    0
 78
    0
 98
    0
  0
HATCH
  5
1E0
100
AcDbEntity
  8
0
  6
ByLayer
 62
  256
370
   -1
100
AcDbHatch
 10
0
 20
0
 30
0
210
0
220
0
230
1
  2
AR-CONC
 70
    0
 71
    0
 91
    1
 92
    0
 93
    4
 72
    1
 10
89.7853354353804
 20
115.7359577116671
 11
89.5853354353783
 21
115.7359577116671
 72
    1
 10
89.5853354353783
 20
115.7359577116671
 11
89.5853354353783
 21
115.5859577116674
 72
    1
 10
89.5853354353783
 20
115.5859577116674
 11
89.7853354353804
 21
115.5859577116674
 72
    1
 10
89.7853354353804
 20
115.5859577116674
 11
89.7853354353804
 21
115.7359577116671
 97
    0
 75
    0
 76
    1
 52
0
 41
0.02
 77
    0
 78
    0
 98
    0
  0
HATCH
  5
1E1
100
AcDbEntity
  8
0
  6
ByLayer
 62
  256
370
   -1
100
AcDbHatch
 10
0
 20
0
 30
0
210
0
220
0
230
1
  2
AR-CONC
 70
    0
 71
    0
 91
    2
 92
    0
 93
    4
 72
    1
 10
88.38533543538141
 20
116.4859577116671
 11
88.38533543538141
 21
116.5859577116674
 72
    1
 10
88.38533543538141
 20
116.5859577116674
 11
85.98624265101738
 21
116.5859577116674
 72
    1
 10
85.98624265101738
 20
116.5859577116674
 11
85.98620510194748
 21
116.4859577116671
 72
    1
 10
85.98620510194633
 20
116.4859577116671
 11
88.38533543538141
 21
116.4859577116671
 97
    0
 92
    0
 93
    4
 72
    1
 10
89.5853354353783
 20
116.5859577116674
 11
89.5853354353783
 21
116.4859577116671
 72
    1
 10
89.5853354353783
 20
116.4859577116671
 11
96.56658543577032
 21
116.4859577116589
 72
    1
 10
96.56658543577123
 20
116.4859577116589
 11
96.56658543577441
 21
116.5859577116592
 72
    1
 10
96.56658543577441
 20
116.5859577116592
 11
89.5853354353783
 21
116.5859577116674
 97
    0
 75
    0
 76
    1
 52
0
 41
0.02
 77
    0
 78
    0
 98
    0
  0
HATCH
  5
1E2
100
AcDbEntity
  8
0
  6
ByLayer
 62
  256
370
   -1
100
AcDbHatch
 10
0
 20
0
 30
0
210
0
220
0
230
1
  2
AR-CONC
 70
    0
 71
    0
 91
    1
 92
    0
 93
    4
 72
    1
 10
86.3862291187172
 20
115.7359577116671
 11
86.18625203828537
 21
115.7359577116671
 72
    1
 10
86.18625203828537
 20
115.7359577116671
 11
86.18619571467821
 21
115.5859577116674
 72
    1
 10
86.18619571467821
 20
115.5859577116674
 11
86.38622905121247
 21
115.5859577116674
 72
    1
 10
86.38622905121338
 20
115.5859577116674
 11
86.3862291187172
 21
115.7359577116671
 97
    0
 75
    0
 76
    1
 52
0
 41
0.02
 77
    0
 78
    0
 98
    0
  0
LINE
  5
1E3
100
AcDbEntity
  8
0
  6
ByLayer
 62
  256
370
   -1
100
AcDbLine
 10
96.36658543566431
 20
113.4859577116671
 11
96.36658543577029
 21
116.4859577116671
  0
LINE
  5
1E4
100
AcDbEntity
  8
0
  6
ByLayer
 62
  256
370
   -1
100
AcDbLine
 10
96.56658543577123
 20
116.4859577116671
 11
96.56658543577441
 21
116.5859577116674
  0
LINE
  5
1E5
100
AcDbEntity
  8
0
  6
ByLayer
 62
  256
370
   -1
100
AcDbLine
 10
85.48657812617832
 20
112.6859577116673
 11
97.41070503610329
 21
112.6859577116673
  0
HATCH
  5
1E6
100
AcDbEntity
  8
0
  6
ByLayer
 62
  256
370
   -1
100
AcDbHatch
 10
0
 20
0
 30
0
210
0
220
0
230
1
  2
AR-CONC
 70
    0
 71
    0
 91
    1
 92
    0
 93
    4
 72
    1
 10
89.46033543537921
 20
113.4859577116671
 11
86.40622387648136
 21
113.4859577116671
 72
    1
 10
86.40622387648226
 20
113.4859577116671
 11
86.40622387648226
 21
113.3859577116671
 72
    1
 10
86.40622387648226
 20
113.3859577116671
 11
89.46033543537921
 21
113.3859577116671
 72
    1
 10
89.46033543537921
 20
113.3859577116671
 11
89.46033543537921
 21
113.4859577116671
 97
    0
 75
    0
 76
    1
 52
0
 41
0.02
 77
    0
 78
    0
 98
    0
  0
HATCH
  5
1E7
100
AcDbEntity
  8
0
  6
ByLayer
 62
  256
370
   -1
100
AcDbHatch
 10
0
 20
0
 30
0
210
0
220
0
230
1
  2
AR-CONC
 70
    0
 71
    0
 91
    1
 92
    0
 93
    4
 72
    1
 10
96.04158543551331
 20
113.4859577116671
 11
92.14158543537724
 21
113.4859577116671
 72
    1
 10
92.14158543537724
 20
113.4859577116671
 11
92.14158543537724
 21
113.3859577116671
 72
    1
 10
92.14158543537724
 20
113.3859577116671
 11
96.04158543551331
 21
113.3859577116671
 72
    1
 10
96.04158543551331
 20
113.3859577116671
 11
96.04158543551331
 21
113.4859577116671
 97
    0
 75
    0
 76
    1
 52
0
 41
0.02
 77
    0
 78
    0
 98
    0
  0
HATCH
  5
1E8
100
AcDbEntity
  8
0
  6
ByLayer
 62
  256
370
   -1
100
AcDbHatch
 10
0
 20
0
 30
0
210
0
220
0
230
1
  2
AR-CONC
 70
    0
 71
    0
 91
    1
 92
    0
 93
    4
 72
    1
 10
91.69158543537719
 20
113.4859577116671
 11
89.91033543537922
 21
113.4859577116671
 72
    1
 10
89.91033543537922
 20
113.4859577116671
 11
89.91033543537922
 21
113.3859577116671
 72
    1
 10
89.91033543537922
 20
113.3859577116671
 11
91.69158543537719
 21
113.3859577116671
 72
    1
 10
91.69158543537719
 20
113.3859577116671
 11
91.69158543537719
 21
113.4859577116671
 97
    0
 75
    0
 76
    1
 52
0
 41
0.02
 77
    0
 78
    0
 98
    0
  0
LINE
  5
1E9
100
AcDbEntity
  8
0
  6
ByLayer
 62
  256
370
   -1
100
AcDbLine
 10
86.16928482758337
 20
113.4859577116671
 11
96.49158543551243
 21
113.4859577116671
  0
LINE
  5
1EA
100
AcDbEntity
  8
0
  6
ByLayer
 62
  256
370
   -1
100
AcDbLine
 10
86.16928482758337
 20
113.4559577116664
 11
89.46033543537921
 21
113.4559577116664
  0
LINE
  5
1EB
100
AcDbEntity
  8
0
  6
ByLayer
 62
  256
370
   -1
100
AcDbLine
 10
89.91033543537922
 20
113.4559577116664
 11
91.69158543537719
 21
113.4559577116664
  0
LINE
  5
1EC
100
AcDbEntity
  8
0
  6
ByLayer
 62
  256
370
   -1
100
AcDbLine
 10
92.14158543537724
 20
113.4559577116664
 11
96.04158543551331
 21
113.4559577116664
  0
LINE
  5
1ED
100
AcDbEntity
  8
0
  6
ByLayer
 62
  256
370
   -1
100
AcDbLine
 10
96.16658543537731
 20
114.0859577116674
 11
96.36658543568549
 21
114.0859577116674
  0
LINE
  5
1EE
100
AcDbEntity
  8
0
  6
ByLayer
 62
  256
370
   -1
100
AcDbLine
 10
85.98622387648243
 20
116.5859577116674
 11
88.38533543538028
 21
116.5859577116674
  0
LINE
  5
1EF
100
AcDbEntity
  8
0
  6
ByLayer
 62
  256
370
   -1
100
AcDbLine
 10
89.58533543537916
 20
116.5859577116674
 11
96.56658543577441
 21
116.5859577116674
  0
LINE
  5
1F0
100
AcDbEntity
  8
0
  6
ByLayer
 62
  256
370
   -1
100
AcDbLine
 10
86.18622387648134
 20
115.5859577116674
 11
86.38622905121338
 21
115.5859577116674
  0
LINE
  5
1F1
100
AcDbEntity
  8
0
  6
ByLayer
 62
  256
370
   -1
100
AcDbLine
 10
89.5853354353783
 20
115.5859577116674
 11
89.7853354353804
 21
115.5859577116674
  0
LINE
  5
1F2
100
AcDbEntity
  8
0
  6
ByLayer
 62
  256
370
   -1
100
AcDbLine
 10
91.86658543537735
 20
115.5859577116674
 11
91.96658543537635
 21
115.5859577116674
  0
LINE
  5
1F3
100
AcDbEntity
  8
0
  6
ByLayer
 62
  256
370
   -1
100
AcDbLine
 10
93.06658543537721
 20
115.5859577116674
 11
93.16658543537731
 21
115.5859577116674
  0
LINE
  5
1F4
100
AcDbEntity
  8
0
  6
ByLayer
 62
  256
370
   -1
100
AcDbLine
 10
96.16658543537731
 20
115.5859577116674
 11
96.36658543573937
 21
115.5859577116674
  0
LINE
  5
1F5
100
AcDbEntity
  8
0
  6
ByLayer
 62
  256
370
   -1
100
AcDbLine
 10
86.18622387648225
 20
115.7359577116671
 11
86.3862291187172
 21
115.7359577116671
  0
LINE
  5
1F6
100
AcDbEntity
  8
0
  6
ByLayer
 62
  256
370
   -1
100
AcDbLine
 10
89.5853354353783
 20
115.7359577116671
 11
89.7853354353804
 21
115.7359577116671
  0
LINE
  5
1F7
100
AcDbEntity
  8
0
  6
ByLayer
 62
  256
370
   -1
100
AcDbLine
 10
91.86658543537735
 20
115.7359577116671
 11
91.96658543537635
 21
115.7359577116671
  0
LINE
  5
1F8
100
AcDbEntity
  8
0
  6
ByLayer
 62
  256
370
   -1
100
AcDbLine
 10
93.06658543537721
 20
115.7359577116671
 11
93.16658543537731
 21
115.7359577116671
  0
LINE
  5
1F9
100
AcDbEntity
  8
0
  6
ByLayer
 62
  256
370
   -1
100
AcDbLine
 10
96.16658543537731
 20
115.7359577116671
 11
96.36658543574435
 21
115.7359577116671
  0
LINE
  5
1FA
100
AcDbEntity
  8
0
  6
ByLayer
 62
  256
370
   -1
100
AcDbLine
 10
94.06658543579827
 20
114.0859577116674
 11
95.06658543579829
 21
114.0859577116674
  0
LINE
  5
1FB
100
AcDbEntity
  8
0
  6
ByLayer
 62
  256
370
   -1
100
AcDbLine
 10
94.1165854357973
 20
114.1359577116671
 11
94.51658543579924
 21
114.1359577116671
  0
LINE
  5
1FC
100
AcDbEntity
  8
0
  6
ByLayer
 62
  256
370
   -1
100
AcDbLine
 10
94.61658543579821
 20
114.1359577116671
 11
95.01658543579833
 21
114.1359577116671
  0
LINE
  5
1FD
100
AcDbEntity
  8
0
  6
ByLayer
 62
  256
370
   -1
100
AcDbLine
 10
94.06658543579827
 20
115.5859577116674
 11
95.06658543579829
 21
115.5859577116674
  0
LINE
  5
1FE
100
AcDbEntity
  8
0
  6
ByLayer
 62
  256
370
   -1
100
AcDbLine
 10
94.11658543579823
 20
115.5359577116672
 11
94.51658543579924
 21
115.5359577116672
  0
LINE
  5
1FF
100
AcDbEntity
  8
0
  6
ByLayer
 62
  256
370
   -1
100
AcDbLine
 10
94.61658543579821
 20
115.5359577116672
 11
95.01658543579924
 21
115.5359577116672
  0
LINE
  5
200
100
AcDbEntity
  8
0
  6
ByLayer
 62
  256
370
   -1
100
AcDbLine
 10
86.40622387648226
 20
113.3859577116671
 11
89.46033543537921
 21
113.3859577116671
  0
LINE
  5
201
100
AcDbEntity
  8
0
  6
ByLayer
 62
  256
370
   -1
100
AcDbLine
 10
89.91033543537922
 20
113.3859577116671
 11
91.07768476859225
 21
113.3859577116671
  0
LINE
  5
202
100
AcDbEntity
  8
0
  6
ByLayer
 62
  256
370
   -1
100
AcDbLine
 10
91.29768476859341
 20
113.3859577116671
 11
91.69158543537719
 21
113.3859577116671
  0
LINE
  5
203
100
AcDbEntity
  8
0
  6
ByLayer
 62
  256
370
   -1
100
AcDbLine
 10
92.14158543537724
 20
113.3859577116671
 11
96.04158543551331
 21
113.3859577116671
  0
LINE
  5
204
100
AcDbEntity
  8
0
  6
ByLayer
 62
  256
370
   -1
100
AcDbLine
 10
85.98622387648243
 20
116.4859577116671
 11
88.38533543538028
 21
116.4859577116671
  0
LINE
  5
205
100
AcDbEntity
  8
0
  6
ByLayer
 62
  256
370
   -1
100
AcDbLine
 10
89.58533543537916
 20
116.4859577116671
 11
96.56658543577123
 21
116.4859577116671
  0
HATCH
  5
206
100
AcDbEntity
  8
0
  6
ByLayer
 62
  256
370
    5
100
AcDbHatch
 10
0
 20
0
 30
0
210
0
220
0
230
1
  2
AR-CONC
 70
    0
 71
    0
 91
    1
 92
    0
 93
    4
 72
    1
 10
90.13533543537935
 20
112.0859577116673
 11
89.23533543538042
 21
112.0859577116673
 72
    1
 10
89.23533543538042
 20
112.0859577116673
 11
89.23533543538042
 21
111.9359577116672
 72
    1
 10
89.23533543538042
 20
111.9359577116672
 11
90.13533543537935
 21
111.9359577116672
 72
    1
 10
90.13533543537935
 20
111.9359577116672
 11
90.13533543537935
 21
112.0859577116673
 97
    0
 75
    0
 76
    1
 52
0
 41
0.02
 77
    0
 78
    0
 98
    0
  0
LWPOLYLINE
  5
207
100
AcDbEntity
  8
0
  6
ByLayer
 62
  256
370
    5
100
AcDbPolyline
 90
    4
 70
    1
 43
0
 10
89.46033543537921
 20
113.4859577116671
 10
89.91033543537922
 20
113.4859577116671
 10
89.91033543537922
 20
112.6859577116673
 10
89.46033543537921
 20
112.6859577116673
  0
LWPOLYLINE
  5
208
100
AcDbEntity
  8
0
  6
ByLayer
 62
  256
370
    5
100
AcDbPolyline
 90
    4
 70
    1
 43
0
 10
89.38533543537937
 20
112.6859577116673
 10
89.98533543537928
 20
112.6859577116673
 10
89.98533543537928
 20
112.0859577116673
 10
89.38533543537937
 20
112.0859577116673
  0
LWPOLYLINE
  5
209
100
AcDbEntity
  8
0
  6
ByLayer
 62
  256
370
    5
100
AcDbPolyline
 90
    4
 70
    1
 43
0
 10
90.13533543537935
 20
112.0859577116673
 10
90.13533543537935
 20
111.9359577116672
 10
89.23533543538042
 20
111.9359577116672
 10
89.23533543538042
 20
112.0859577116673
  0
HATCH
  5
20A
100
AcDbEntity
  8
0
  6
ByLayer
 62
  256
370
    5
100
AcDbHatch
 10
0
 20
0
 30
0
210
0
220
0
230
1
  2
AR-CONC
 70
    0
 71
    0
 91
    1
 92
    0
 93
    4
 72
    1
 10
92.36658543537735
 20
112.0859577116673
 11
91.46658543537727
 21
112.0859577116673
 72
    1
 10
91.46658543537727
 20
112.0859577116673
 11
91.46658543537727
 21
111.9359577116672
 72
    1
 10
91.46658543537727
 20
111.9359577116672
 11
92.36658543537735
 21
111.9359577116672
 72
    1
 10
92.36658543537735
 20
111.9359577116672
 11
92.36658543537735
 21
112.0859577116673
 97
    0
 75
    0
 76
    1
 52
0
 41
0.02
 77
    0
 78
    0
 98
    0
  0
LWPOLYLINE
  5
20B
100
AcDbEntity
  8
0
  6
ByLayer
 62
  256
370
    5
100
AcDbPolyline
 90
    4
 70
    1
 43
0
 10
91.69158543537719
 20
113.4859577116671
 10
92.14158543537724
 20
113.4859577116671
 10
92.14158543537724
 20
112.6859577116673
 10
91.69158543537719
 20
112.6859577116673
  0
LWPOLYLINE
  5
20C
100
AcDbEntity
  8
0
  6
ByLayer
 62
  256
370
    5
100
AcDbPolyline
 90
    4
 70
    1
 43
0
 10
91.61658543537737
 20
112.6859577116673
 10
92.21658543537725
 20
112.6859577116673
 10
92.21658543537725
 20
112.0859577116673
 10
91.61658543537737
 20
112.0859577116673
  0
LWPOLYLINE
  5
20D
100
AcDbEntity
  8
0
  6
ByLayer
 62
  256
370
    5
100
AcDbPolyline
 90
    4
 70
    1
 43
0
 10
92.36658543537735
 20
112.0859577116673
 10
92.36658543537735
 20
111.9359577116672
 10
91.46658543537727
 20
111.9359577116672
 10
91.46658543537727
 20
112.0859577116673
  0
HATCH
  5
20E
100
AcDbEntity
  8
0
  6
ByLayer
 62
  256
370
    5
100
AcDbHatch
 10
0
 20
0
 30
0
210
0
220
0
230
1
  2
AR-CONC
 70
    0
 71
    0
 91
    1
 92
    0
 93
    4
 72
    1
 10
96.71658543551445
 20
112.0859577116673
 11
95.81658543551247
 21
112.0859577116673
 72
    1
 10
95.81658543551247
 20
112.0859577116673
 11
95.81658543551247
 21
111.9359577116672
 72
    1
 10
95.81658543551247
 20
111.9359577116672
 11
96.71658543551445
 21
111.9359577116672
 72
    1
 10
96.71658543551445
 20
111.9359577116672
 11
96.71658543551445
 21
112.0859577116673
 97
    0
 75
    0
 76
    1
 52
0
 41
0.02
 77
    0
 78
    0
 98
    0
  0
LWPOLYLINE
  5
20F
100
AcDbEntity
  8
0
  6
ByLayer
 62
  256
370
    5
100
AcDbPolyline
 90
    4
 70
    1
 43
0
 10
96.04158543551331
 20
113.4859577116671
 10
96.49158543551243
 20
113.4859577116671
 10
96.49158543551243
 20
112.6859577116673
 10
96.04158543551331
 20
112.6859577116673
  0
LWPOLYLINE
  5
210
100
AcDbEntity
  8
0
  6
ByLayer
 62
  256
370
    5
100
AcDbPolyline
 90
    4
 70
    1
 43
0
 10
95.96658543551347
 20
112.6859577116673
 10
96.56658543551248
 20
112.6859577116673
 10
96.56658543551248
 20
112.0859577116673
 10
95.96658543551347
 20
112.0859577116673
  0
LWPOLYLINE
  5
211
100
AcDbEntity
  8
0
  6
ByLayer
 62
  256
370
    5
100
AcDbPolyline
 90
    4
 70
    1
 43
0
 10
96.71658543551445
 20
112.0859577116673
 10
96.71658543551445
 20
111.9359577116672
 10
95.81658543551247
 20
111.9359577116672
 10
95.81658543551247
 20
112.0859577116673
  0
LINE
  5
212
100
AcDbEntity
  8
0
  6
ByLayer
 62
  256
370
   -1
100
AcDbLine
 10
94.06658543579827
 20
114.0859577116674
 11
94.06658543579827
 21
115.5859577116674
  0
LINE
  5
213
100
AcDbEntity
  8
0
  6
ByLayer
 62
  256
370
   -1
100
AcDbLine
 10
94.11658543579823
 20
114.1359577116671
 11
94.11658543579823
 21
115.5359577116672
  0
LINE
  5
214
100
AcDbEntity
  8
0
  6
ByLayer
 62
  256
370
   -1
100
AcDbLine
 10
95.06658543579829
 20
115.5859577116674
 11
95.06658543579829
 21
114.0859577116674
  0
LINE
  5
215
100
AcDbEntity
  8
0
  6
ByLayer
 62
  256
370
   -1
100
AcDbLine
 10
95.01658543579924
 20
115.5359577116672
 11
95.01658543579924
 21
114.1359577116671
  0
LINE
  5
216
100
AcDbEntity
  8
0
  6
ByLayer
 62
  256
370
   -1
100
AcDbLine
 10
94.56658543579829
 20
115.5859577116674
 11
94.56658543579829
 21
114.0859577116674
  0
LINE
  5
217
100
AcDbEntity
  8
0
  6
ByLayer
 62
  256
370
   -1
100
AcDbLine
 10
94.61658543579821
 20
115.5359577116672
 11
94.61658543579821
 21
114.1359577116671
  0
LINE
  5
218
100
AcDbEntity
  8
0
  6
ByLayer
 62
  256
370
   -1
100
AcDbLine
 10
94.51658543579924
 20
115.5359577116672
 11
94.51658543579924
 21
114.1359577116671
  0
LINE
  5
219
100
AcDbEntity
  8
0
  6
ByLayer
 62
  256
370
   -1
100
AcDbLine
 10
89.58533543537916
 20
113.4859577116671
 11
86.38622810615038
 21
113.4859577116671
  0
LINE
  5
21A
100
AcDbEntity
  8
0
  6
ByLayer
 62
  256
370
   -1
100
AcDbLine
 10
89.46033543537921
 20
113.4559577116664
 11
86.38622810615038
 21
113.4559577116664
  0
HATCH
  5
21B
100
AcDbEntity
  8
0
  6
ByLayer
 62
  256
370
   -1
100
AcDbHatch
 10
0
 20
0
 30
0
210
0
220
0
230
1
  2
AR-CONC
 70
    0
 71
    0
 91
    3
 92
    0
 93
    4
 72
    1
 10
86.38623051380932
 20
118.8359577116677
 11
86.18625203828537
 21
118.8359577116677
 72
    1
 10
86.18625203828537
 20
118.8359577116677
 11
86.18619571467821
 21
118.6859577116678
 72
    1
 10
86.18619571467821
 20
118.6859577116678
 11
86.38623044630432
 21
118.6859577116678
 72
    1
 10
86.38623044630525
 20
118.6859577116672
 11
86.38623051380932
 21
118.8359577116674
 97
    0
 92
    0
 93
    4
 72
    1
 10
89.7853354353804
 20
118.8359577116677
 11
89.58533543537737
 21
118.8359577116677
 72
    1
 10
89.58533543537737
 20
118.8359577116677
 11
89.58533543537737
 21
118.6859577116678
 72
    1
 10
89.58533543537737
 20
118.6859577116672
 11
89.78533543537924
 21
118.6859577116672
 72
    1
 10
89.7853354353804
 20
118.6859577116672
 11
89.7853354353804
 21
118.8359577116674
 97
    0
 92
    0
 93
    4
 72
    1
 10
90.38533543538028
 20
119.0859577116677
 11
85.58626142329241
 21
119.0859516895809
 72
    1
 10
85.58626142329149
 20
119.0859516895809
 11
85.58622387422042
 21
118.9859516895811
 72
    1
 10
85.5862238742213
 20
118.9859516895811
 11
90.38533543538028
 21
118.9859577116679
 72
    1
 10
90.38533543538028
 20
118.9859577116679
 11
90.38533543538028
 21
119.0859577116677
 97
    0
 75
    0
 76
    1
 52
0
 41
0.02
 77
    0
 78
    0
 98
    0
  0
LINE
  5
21C
100
AcDbEntity
  8
0
  6
ByLayer
 62
  256
370
   -1
100
AcDbLine
 10
85.5862238764814
 20
118.9859577116679
 11
85.58635529823118
 21
119.4359577116677
  0
LINE
  5
21D
100
AcDbEntity
  8
0
  6
ByLayer
 62
  256
370
   -1
100
AcDbLine
 10
85.68622386943343
 20
118.9859201625994
 11
85.68622388353242
 21
118.9859577116679
  0
LINE
  5
21E
100
AcDbEntity
  8
0
  6
ByLayer
 62
  256
370
   -1
100
AcDbLine
 10
85.68626143260349
 20
119.0859577116677
 11
85.68635529118228
 21
119.4359201625992
  0
LINE
  5
21F
100
AcDbEntity
  8
0
  6
ByLayer
 62
  256
370
   -1
100
AcDbLine
 10
86.38622950124341
 20
116.5859577116677
 11
86.38623058131429
 21
118.9859577116679
  0
LINE
  5
220
100
AcDbEntity
  8
0
  6
ByLayer
 62
  256
370
   -1
100
AcDbLine
 10
89.58533543537916
 20
116.485957711667
 11
89.58533543537737
 21
118.9859577116679
  0
LINE
  5
221
100
AcDbEntity
  8
0
  6
ByLayer
 62
  256
370
   -1
100
AcDbLine
 10
89.7853354353804
 20
116.5859577116677
 11
89.7853354353804
 21
118.9859577116679
  0
LINE
  5
222
100
AcDbEntity
  8
0
  6
ByLayer
 62
  256
370
   -1
100
AcDbLine
 10
90.38533543538028
 20
118.9859577116679
 11
90.38533543538028
 21
119.4359577116677
  0
LINE
  5
223
100
AcDbEntity
  8
0
  6
ByLayer
 62
  256
370
   -1
100
AcDbLine
 10
90.28533543538038
 20
119.0859577116677
 11
90.28533543538038
 21
119.4359577116677
  0
LINE
  5
224
100
AcDbEntity
  8
0
  6
ByLayer
 62
  256
370
   -1
100
AcDbLine
 10
96.56658543577123
 20
116.485957711667
 11
96.5665854357915
 21
117.7859577116669
  0
LINE
  5
225
100
AcDbEntity
  8
0
  6
ByLayer
 62
  256
370
   -1
100
AcDbLine
 10
96.46658543577541
 20
116.585957711671
 11
96.46658543579045
 21
117.7859577116701
  0
LINE
  5
226
100
AcDbEntity
  8
0
  6
DASHED
 62
  256
370
   -1
100
AcDbLine
 10
89.7853354353804
 20
117.7859577116669
 11
96.5665854357915
 21
117.7859577116669
  0
LINE
  5
227
100
AcDbEntity
  8
0
  6
ByLayer
 62
  256
370
   -1
100
AcDbLine
 10
86.18622387648225
 20
118.6859577116678
 11
86.38623044630432
 21
118.6859577116672
  0
LINE
  5
228
100
AcDbEntity
  8
0
  6
ByLayer
 62
  256
370
   -1
100
AcDbLine
 10
89.58533543537737
 20
118.6859577116672
 11
89.7853354353804
 21
118.6859577116672
  0
LINE
  5
229
100
AcDbEntity
  8
0
  6
ByLayer
 62
  256
370
   -1
100
AcDbLine
 10
86.18622387648225
 20
118.8359577116677
 11
86.38623051380839
 21
118.8359577116677
  0
LINE
  5
22A
100
AcDbEntity
  8
0
  6
ByLayer
 62
  256
370
   -1
100
AcDbLine
 10
89.58533543537737
 20
118.8359577116677
 11
89.7853354353804
 21
118.8359577116677
  0
LINE
  5
22B
100
AcDbEntity
  8
0
  6
ByLayer
 62
  256
370
   -1
100
AcDbLine
 10
85.5862238764814
 20
118.9859577116679
 11
90.38533543538028
 21
118.9859577116679
  0
LINE
  5
22C
100
AcDbEntity
  8
0
  6
ByLayer
 62
  256
370
   -1
100
AcDbLine
 10
85.5862238764814
 20
119.0859577116677
 11
85.58626142555227
 21
119.0859577116677
  0
LINE
  5
22D
100
AcDbEntity
  8
0
  6
ByLayer
 62
  256
370
   -1
100
AcDbLine
 10
85.58626142555227
 20
119.0859577116677
 11
90.38533543538028
 21
119.0859577116677
  0
LINE
  5
22E
100
AcDbEntity
  8
0
  6
DASHED
 62
  256
370
   -1
100
AcDbLine
 10
85.58635529823118
 20
119.4359577116677
 11
90.38533543538028
 21
119.4359577116677
  0
LINE
  5
22F
100
AcDbEntity
  8
0
  6
ByLayer
 62
  256
370
   -1
100
AcDbLine
 10
88.38533543538028
 20
115.1097677755123
 11
88.38533543538028
 21
116.5859582517045
  0
LINE
  5
230
100
AcDbEntity
  8
0
  6
ByLayer
 62
  256
370
   -1
100
AcDbLine
 10
87.58622387648236
 20
113.6335776589457
 11
87.55622387648235
 21
113.6335776724467
  0
LINE
  5
231
100
AcDbEntity
  8
0
  6
ByLayer
 62
  256
370
   -1
100
AcDbLine
 10
87.50622387648239
 20
113.6335776949471
 11
86.38622817258533
 21
113.6335781989791
  0
LINE
  5
232
100
AcDbEntity
  8
0
  6
ByLayer
 62
  256
370
   -1
100
AcDbLine
 10
87.58622387648236
 20
113.7811967065653
 11
87.55622387648235
 21
113.7811967200658
  0
LINE
  5
233
100
AcDbEntity
  8
0
  6
ByLayer
 62
  256
370
   -1
100
AcDbLine
 10
87.50622387648239
 20
113.7811967425663
 11
86.38622823901824
 21
113.7811972465982
  0
LINE
  5
234
100
AcDbEntity
  8
0
  6
ByLayer
 62
  256
370
   -1
100
AcDbLine
 10
87.58622387648236
 20
113.9288157541836
 11
87.55622387648145
 21
113.9288157676854
  0
LINE
  5
235
100
AcDbEntity
  8
0
  6
ByLayer
 62
  256
370
   -1
100
AcDbLine
 10
87.50622387648239
 20
113.9288157901863
 11
86.38622830545044
 21
113.9288162942174
  0
HATCH
  5
236
100
AcDbEntity
  8
0
  6
ByLayer
 62
  256
370
   -1
100
AcDbHatch
 10
0
 20
0
 30
0
210
0
220
0
230
1
  2
AR-CONC
 70
    0
 71
    0
 91
    2
 92
    0
 93
    4
 72
    1
 10
87.50622387648239
 20
114.2240538854247
 11
86.38622843831627
 21
114.2240543894553
 72
    1
 10
86.38622843831627
 20
114.2240543894553
 11
86.38622837188333
 21
114.0764353418375
 72
    1
 10
86.38622837188333
 20
114.0764353418375
 11
87.50622387648239
 21
114.0764348378055
 72
    1
 10
87.50622387648239
 20
114.0764348378055
 11
87.50622387648239
 21
114.2240538854247
 97
    0
 92
    0
 93
    4
 72
    1
 10
87.58622387648236
 20
114.2240538494223
 11
87.55622387648235
 21
114.2240538629233
 72
    1
 10
87.55622387648235
 20
114.2240538629233
 11
87.55622387648235
 21
114.0764348153042
 72
    1
 10
87.55622387648235
 20
114.0764348153042
 11
87.58622387648236
 21
114.0764348018032
 72
    1
 10
87.58622387648236
 20
114.0764348018032
 11
87.58622387648236
 21
114.2240538494223
 97
    0
 75
    0
 76
    1
 52
0
 41
0.02
 77
    0
 78
    0
 98
    0
  0
LINE
  5
237
100
AcDbEntity
  8
0
  6
ByLayer
 62
  256
370
   -1
100
AcDbLine
 10
87.58622387648236
 20
114.0764348018032
 11
87.55622387648145
 21
114.0764348153042
  0
LINE
  5
238
100
AcDbEntity
  8
0
  6
ByLayer
 62
  256
370
   -1
100
AcDbLine
 10
87.50622387648239
 20
114.0764348378055
 11
86.38622837188333
 21
114.0764353418375
  0
LINE
  5
239
100
AcDbEntity
  8
0
  6
ByLayer
 62
  256
370
   -1
100
AcDbLine
 10
87.58622387648236
 20
114.2240538494223
 11
87.55622387648235
 21
114.2240538629233
  0
LINE
  5
23A
100
AcDbEntity
  8
0
  6
ByLayer
 62
  256
370
   -1
100
AcDbLine
 10
87.50622387648239
 20
114.2240538854247
 11
86.38622843831627
 21
114.2240543894553
  0
LINE
  5
23B
100
AcDbEntity
  8
0
  6
ByLayer
 62
  256
370
   -1
100
AcDbLine
 10
87.58622387648236
 20
114.3716728970415
 11
87.55622387648346
 21
114.3716729105425
  0
LINE
  5
23C
100
AcDbEntity
  8
0
  6
ByLayer
 62
  256
370
   -1
100
AcDbLine
 10
87.50622387648239
 20
114.3716729330425
 11
86.38622850474941
 21
114.3716734370754
  0
LINE
  5
23D
100
AcDbEntity
  8
0
  6
ByLayer
 62
  256
370
   -1
100
AcDbLine
 10
87.58622387648236
 20
114.5192919446598
 11
87.55622387648235
 21
114.5192919581612
  0
LINE
  5
23E
100
AcDbEntity
  8
0
  6
ByLayer
 62
  256
370
   -1
100
AcDbLine
 10
87.50622387648239
 20
114.5192919806626
 11
86.38622857118229
 21
114.5192924846932
  0
LINE
  5
23F
100
AcDbEntity
  8
0
  6
ByLayer
 62
  256
370
   -1
100
AcDbLine
 10
87.68577965593251
 20
114.6669109474763
 11
87.55622387648235
 21
114.6669110057804
  0
LINE
  5
240
100
AcDbEntity
  8
0
  6
ByLayer
 62
  256
370
   -1
100
AcDbLine
 10
87.55622387648235
 20
114.6669110057804
 11
86.3862286376152
 21
114.6669115323123
  0
LINE
  5
241
100
AcDbEntity
  8
0
  6
ByLayer
 62
  256
370
   -1
100
AcDbLine
 10
89.58533616614136
 20
115.1097672354775
 11
88.38533543538028
 21
115.1097677755123
  0
LINE
  5
242
100
AcDbEntity
  8
0
  6
ByLayer
 62
  256
370
   -1
100
AcDbLine
 10
89.5853362325754
 20
115.2573862830967
 11
88.38533543538028
 21
115.2573868231314
  0
LINE
  5
243
100
AcDbEntity
  8
0
  6
ByLayer
 62
  256
370
   -1
100
AcDbLine
 10
89.58533629900832
 20
115.4050053307163
 11
88.38533543538028
 21
115.4050058707515
  0
LINE
  5
244
100
AcDbEntity
  8
0
  6
ByLayer
 62
  256
370
   -1
100
AcDbLine
 10
89.58533636544144
 20
115.5526243783346
 11
88.38533543538028
 21
115.5526249183707
  0
LINE
  5
245
100
AcDbEntity
  8
0
  6
ByLayer
 62
  256
370
   -1
100
AcDbLine
 10
89.58533643187342
 20
115.7002434259537
 11
88.38533543538028
 21
115.7002439659903
  0
LINE
  5
246
100
AcDbEntity
  8
0
  6
ByLayer
 62
  256
370
   -1
100
AcDbLine
 10
89.58533649830632
 20
115.8478624735734
 11
88.38533543538028
 21
115.8478630136086
  0
LINE
  5
247
100
AcDbEntity
  8
0
  6
ByLayer
 62
  256
370
   -1
100
AcDbLine
 10
89.58533656473924
 20
115.9954815211916
 11
88.38533543538028
 21
115.9954820612282
  0
LINE
  5
248
100
AcDbEntity
  8
0
  6
ByLayer
 62
  256
370
   -1
100
AcDbLine
 10
89.58533663117328
 20
116.1431005688113
 11
88.38533543538028
 21
116.143101108846
  0
LINE
  5
249
100
AcDbEntity
  8
0
  6
ByLayer
 62
  256
370
   -1
100
AcDbLine
 10
89.58533669760617
 20
116.29071961643
 11
88.38533543538028
 21
116.2907201564652
  0
LINE
  5
24A
100
AcDbEntity
  8
0
  6
ByLayer
 62
  256
370
   -1
100
AcDbLine
 10
89.58533676403931
 20
116.4383386640483
 11
88.38533543538028
 21
116.4383392040844
  0
LINE
  5
24B
100
AcDbEntity
  8
0
  6
ByLayer
 62
  256
370
   -1
100
AcDbLine
 10
88.38533543538028
 20
116.5859582517045
 11
86.38622950124432
 21
116.5859591513616
  0
LINE
  5
24C
100
AcDbEntity
  8
0
  6
ByLayer
 62
  256
370
   -1
100
AcDbLine
 10
86.18622387648225
 20
118.9859577116679
 11
86.18622387648225
 21
116.5859577116677
  0
LINE
  5
24D
100
AcDbEntity
  8
0
  6
ByLayer
 62
  256
370
   -1
100
AcDbLine
 10
86.18622387648134
 20
116.4859577116671
 11
86.18622387648225
 21
113.4859577116671
  0
LINE
  5
24E
100
AcDbEntity
  8
0
  6
ByLayer
 62
  256
370
   -1
100
AcDbLine
 10
85.98622387648243
 20
116.5859577116674
 11
85.98622387648243
 21
116.4859577116671
  0
MTEXT
  5
24F
100
AcDbEntity
  8
0
  6
ByLayer
 62
  256
370
   -1
100
AcDbMText
 10
97.70834536582832
 20
112.3257745007006
 30
0
 40
0.2
 41
1.600000000000013
 71
    4
 72
    1
  1
FOUNDATION
  7
123
210
0
220
0
230
1
 50
0
 73
    1
 44
1
  0
MTEXT
  5
250
100
AcDbEntity
  8
0
  6
ByLayer
 62
  256
370
   -1
100
AcDbMText
 10
97.72475612165226
 20
114.2219364894516
 30
0
 40
0.2
 41
2.172222179821793
 71
    1
 72
    1
  1
FLOOR FINISHING
  7
123
210
0
220
0
230
1
 50
0
 73
    1
 44
1
  0
MTEXT
  5
251
100
AcDbEntity
  8
0
  6
ByLayer
 62
  256
370
   -1
100
AcDbMText
 10
97.73093174915334
 20
113.8898192519517
 30
0
 40
0.2
 41
1.927777777777778
 71
    1
 72
    1
  1
EARTH FILLING
  7
123
210
0
220
0
230
1
 50
0
 73
    1
 44
1
  0
MTEXT
  5
252
100
AcDbEntity
  8
0
  6
ByLayer
 62
  256
370
   -1
100
AcDbMText
 10
97.72818606265831
 20
113.5195074295187
 30
0
 40
0.2
 41
1.816666624266237
 71
    4
 72
    1
  1
R.R MASONRY
  7
123
210
0
220
0
230
1
 50
0
 73
    1
 44
1
  0
LEADER
  5
253
100
AcDbEntity
  8
0
  6
ByLayer
 62
    8
370
    0
100
AcDbLeader
  3
Standard
 71
    1
 72
    0
 73
    3
 74
    0
 75
    0
 40
1
 41
10
 76
3
 76
3
 10
96.37675725687836
 20
112.8352428911323
 30
0
 10
97.16229076064545
 20
113.4672250677462
 30
0
 10
97.67788871088328
 20
113.4672250677462
 30
0
  0
LEADER
  5
254
100
AcDbEntity
  8
0
  6
ByLayer
 62
    8
370
    0
100
AcDbLeader
  3
Standard
 71
    1
 72
    0
 73
    3
 74
    0
 75
    0
 40
1
 41
10
 76
3
 76
3
 10
95.89035429487942
 20
112.9075475349253
 30
0
 10
97.16229076064545
 20
113.7839139349279
 30
0
 10
97.67788871088328
 20
113.7839139349279
 30
0
  0
LEADER
  5
255
100
AcDbEntity
  8
0
  6
ByLayer
 62
    8
370
    0
100
AcDbLeader
  3
Standard
 71
    1
 72
    0
 73
    3
 74
    0
 75
    0
 40
1
 41
10
 76
3
 76
3
 10
95.72343549330843
 20
113.4284722390056
 30
0
 10
97.16229076064545
 20
114.1210978081234
 30
0
 10
97.67534273462253
 20
114.1210978081234
 30
0
  0
LINE
  5
256
100
AcDbEntity
  8
0
  6
ByLayer
 62
  251
370
    0
100
AcDbLine
 10
85.86059592646824
 20
112.6859577116673
 11
85.69700744764032
 21
112.3711882748073
  0
LINE
  5
257
100
AcDbEntity
  8
0
  6
ByLayer
 62
  251
370
    0
100
AcDbLine
 10
85.69559592646532
 20
112.6859577116673
 11
85.93185038624142
 21
112.3873280452456
  0
LINE
  5
258
100
AcDbEntity
  8
0
  6
ByLayer
 62
  251
370
    0
100
AcDbLine
 10
86.02632563436737
 20
112.6859577116673
 11
85.89107095406418
 21
112.3778234139543
  0
LINE
  5
259
100
AcDbEntity
  8
0
  6
ByLayer
 62
  251
370
    0
100
AcDbLine
 10
85.94211179829541
 20
112.6859577116673
 11
85.80685711799333
 21
112.3778234139543
  0
LINE
  5
25A
100
AcDbEntity
  8
0
  6
ByLayer
 62
  251
370
    0
100
AcDbLine
 10
85.7736530666343
 20
112.6859577116673
 11
85.99892311300437
 21
112.3778234139557
  0
LINE
  5
25B
100
AcDbEntity
  8
0
  6
ByLayer
 62
  251
370
    0
100
AcDbLine
 10
85.86018725160123
 20
112.6861701036344
 11
86.04972263473337
 21
112.3976763774752
  0
MTEXT
  5
25C
100
AcDbEntity
  8
0
  6
ByLayer
 62
  256
370
    0
100
AcDbMText
 10
85.33685931699324
 20
112.8901825482223
 30
0
 40
0.1500000000003488
 41
0.2000000000004651
 71
    1
 72
    5
  1
RL
  7
standard
210
0
220
0
230
1
 50
0
 73
    1
 44
1
  0
LINE
  5
25D
100
AcDbEntity
  8
0
  6
ByLayer
 62
  251
370
    0
100
AcDbLine
 10
96.94928950949226
 20
112.6857453197006
 11
96.78570103066431
 21
112.3709758828397
  0
LINE
  5
25E
100
AcDbEntity
  8
0
  6
ByLayer
 62
  251
370
    0
100
AcDbLine
 10
96.78428950948934
 20
112.6857453197006
 11
97.0205439692654
 21
112.3871156532798
  0
LINE
  5
25F
100
AcDbEntity
  8
0
  6
ByLayer
 62
  251
370
    0
100
AcDbLine
 10
97.11501921739136
 20
112.6857453197006
 11
96.97976453708841
 21
112.3776110219881
  0
LINE
  5
260
100
AcDbEntity
  8
0
  6
ByLayer
 62
  251
370
    0
100
AcDbLine
 10
97.03080538131942
 20
112.6857453197006
 11
96.89555070101731
 21
112.3776110219881
  0
LINE
  5
261
100
AcDbEntity
  8
0
  6
ByLayer
 62
  251
370
    0
100
AcDbLine
 10
96.86234664965832
 20
112.6857453197006
 11
97.08761669602836
 21
112.3776110219881
  0
LINE
  5
262
100
AcDbEntity
  8
0
  6
ByLayer
 62
  251
370
    0
100
AcDbLine
 10
96.94888083462521
 20
112.6859577116673
 11
97.13841621775738
 21
112.3974639855075
  0
MTEXT
  5
263
100
AcDbEntity
  8
0
  6
ByLayer
 62
  256
370
    0
100
AcDbMText
 10
96.60853002591537
 20
112.9135731560075
 30
0
 40
0.1500000000003488
 41
0.2000000000004744
 71
    1
 72
    5
  1
GL
  7
standard
210
0
220
0
230
1
 50
0
 73
    1
 44
1
  0
MTEXT
  5
264
100
AcDbEntity
  8
0
  6
ByLayer
 62
  256
370
   -1
100
AcDbMText
 10
97.52715632672243
 20
117.3043903709501
 30
0
 40
0.2
 41
1.2
 71
    1
 72
    1
  1
PARAPET
  7
123
210
0
220
0
230
1
 50
0
 73
    1
 44
1
  0
LEADER
  5
265
100
AcDbEntity
  8
0
  6
ByLayer
 62
    8
370
    0
100
AcDbLeader
  3
Standard
 71
    1
 72
    0
 73
    3
 74
    0
 75
    0
 40
1
 41
10
 76
3
 76
3
 10
96.35421137614048
 20
116.7944816611342
 30
0
 10
97.00876275533231
 20
117.2249098515793
 30
0
 10
97.51340426982142
 20
117.2249098515793
 30
0
  0
LINE
  5
266
100
AcDbEntity
  8
0
  6
ByLayer
 62
  256
370
   -1
100
AcDbLine
 10
87.58622387648236
 20
113.4859586113265
 11
87.58622387648236
 21
114.6669109922794
  0
LINE
  5
267
100
AcDbEntity
  8
0
  6
ByLayer
 62
  256
370
   -1
100
AcDbLine
 10
87.55622387648235
 20
113.4859586113265
 11
87.55622387648235
 21
114.6669109922794
  0
LINE
  5
268
100
AcDbEntity
  8
0
  6
ByLayer
 62
  256
370
   -1
100
AcDbLine
 10
87.50622387648239
 20
113.4859586113265
 11
87.50622387648239
 21
114.6669109922794
  0
LWPOLYLINE
  5
269
100
AcDbEntity
  8
0
  6
ByLayer
 62
  256
370
   -1
100
AcDbPolyline
 90
    7
 70
    0
 43
0
 10
87.68577965593136
 20
114.6669109474763
 10
87.68577972236426
 20
114.8145299950955
 10
87.9857796559354
 20
114.8145299950955
 10
87.98577972236833
 20
114.9621489077056
 10
88.28577965593627
 20
114.9621489077056
 10
88.2857797223694
 20
115.1097678203176
 10
89.58533543537916
 20
115.1097678203176
  0
LWPOLYLINE
  5
26A
100
AcDbEntity
  8
0
  6
ByLayer
 62
  256
370
   -1
100
AcDbPolyline
 90
    9
 70
    0
 43
0
 10
87.58622387648236
 20
114.5869109922795
 10
87.7657796199294
 20
114.5869109114745
 10
87.76577968636229
 20
114.7345299950956
 10
88.06577961993229
 20
114.7345299950956
 10
88.06577968636635
 20
114.8821489077053
 10
88.36577961993429
 20
114.8821489077053
 10
88.3657796863663
 20
115.0297678203163
 10
88.48533543538042
 20
115.0297678203163
 10
88.4853354353793
 20
115.1097678203176
  0
LINE
  5
26B
100
AcDbEntity
  8
0
  6
ByLayer
 62
  256
370
   -1
100
AcDbLine
 10
87.55622387648235
 20
114.6669110057804
 11
87.55622387648235
 21
115.5099186986893
  0
LINE
  5
26C
100
AcDbEntity
  8
0
  6
ByLayer
 62
  256
370
   -1
100
AcDbLine
 10
87.55622387648235
 20
115.5669110057805
 11
87.50622387648239
 21
115.5669110057805
  0
LINE
  5
26D
100
AcDbEntity
  8
0
  6
ByLayer
 62
  256
370
   -1
100
AcDbLine
 10
87.50622387648239
 20
115.5669110057805
 11
87.5062234714544
 21
114.6669110282818
  0
LINE
  5
26E
100
AcDbEntity
  8
0
  6
ByLayer
 62
  256
370
   -1
100
AcDbLine
 10
88.38533543538028
 20
116.5859577116674
 11
89.58533543537916
 21
116.5859577116674
  0
LINE
  5
26F
100
AcDbEntity
  8
0
  6
ByLayer
 62
  256
370
   -1
100
AcDbLine
 10
87.71577972236423
 20
114.8145299950955
 11
87.71577972236423
 21
115.5972016131503
  0
LINE
  5
270
100
AcDbEntity
  8
0
  6
ByLayer
 62
  256
370
   -1
100
AcDbLine
 10
87.76577972236417
 20
114.8145299950955
 11
87.76577972236417
 21
115.6245534516177
  0
LINE
  5
271
100
AcDbEntity
  8
0
  6
ByLayer
 62
  256
370
   -1
100
AcDbLine
 10
88.01577972236849
 20
114.9621489077056
 11
88.01577972236849
 21
115.7613126439554
  0
LINE
  5
272
100
AcDbEntity
  8
0
  6
ByLayer
 62
  256
370
   -1
100
AcDbLine
 10
88.06577972236842
 20
114.9621489077056
 11
88.06577972236937
 21
115.7886644824224
  0
LINE
  5
273
100
AcDbEntity
  8
0
  6
ByLayer
 62
  256
370
   -1
100
AcDbLine
 10
88.31577972236937
 20
115.1097678203176
 11
88.31577972236937
 21
115.9254236747587
  0
LINE
  5
274
100
AcDbEntity
  8
0
  6
ByLayer
 62
  256
370
   -1
100
AcDbLine
 10
88.36577972236931
 20
115.1097678203176
 11
88.36577972236931
 21
115.9527755132257
  0
LINE
  5
275
100
AcDbEntity
  8
0
  6
ByLayer
 62
  256
370
   -1
100
AcDbLine
 10
87.55622387648235
 20
115.5669110057805
 11
88.38533543538028
 21
116.0204655143833
  0
LINE
  5
276
100
AcDbEntity
  8
0
  6
ByLayer
 62
  256
370
   -1
100
AcDbLine
 10
87.55622387648235
 20
115.5099186986893
 11
88.38533543538028
 21
115.9634732072935
  0
LINE
  5
277
100
AcDbEntity
  8
0
  6
ByLayer
 62
  256
370
   -1
100
AcDbLine
 10
88.46533584552435
 20
116.5859577116677
 11
88.46533584552435
 21
117.485957711667
  0
LINE
  5
278
100
AcDbEntity
  8
0
  6
ByLayer
 62
  256
370
   -1
100
AcDbLine
 10
88.41533584552442
 20
117.4359577341691
 11
88.41533584552442
 21
116.5859577116677
  0
LINE
  5
279
100
AcDbEntity
  8
0
  6
ByLayer
 62
  256
370
   -1
100
AcDbLine
 10
88.46533584552435
 20
117.485957711667
 11
88.41533584552442
 21
117.485957711667
  0
LINE
  5
27A
100
AcDbEntity
  8
0
  6
ByLayer
 62
  256
370
   -1
100
AcDbLine
 10
88.16533584552435
 20
116.5859577116677
 11
88.16533584552435
 21
117.4359578466768
  0
LINE
  5
27B
100
AcDbEntity
  8
0
  6
ByLayer
 62
  256
370
   -1
100
AcDbLine
 10
88.1153358455233
 20
117.4359578691781
 11
88.1153358455233
 21
116.5859577116677
  0
LINE
  5
27C
100
AcDbEntity
  8
0
  6
ByLayer
 62
  256
370
   -1
100
AcDbLine
 10
88.16533584552435
 20
117.485957711667
 11
88.1153358455233
 21
117.485957711667
  0
LINE
  5
27D
100
AcDbEntity
  8
0
  6
ByLayer
 62
  256
370
   -1
100
AcDbLine
 10
88.16533584552435
 20
116.5859577116677
 11
88.16533584552435
 21
117.4359578466768
  0
LINE
  5
27E
100
AcDbEntity
  8
0
  6
ByLayer
 62
  256
370
   -1
100
AcDbLine
 10
88.1153358455233
 20
117.4359578691781
 11
88.1153358455233
 21
116.5859577116677
  0
LINE
  5
27F
100
AcDbEntity
  8
0
  6
ByLayer
 62
  256
370
   -1
100
AcDbLine
 10
88.16533584552435
 20
117.485957711667
 11
88.1153358455233
 21
117.485957711667
  0
LINE
  5
280
100
AcDbEntity
  8
0
  6
ByLayer
 62
  256
370
   -1
100
AcDbLine
 10
87.8653358455233
 20
116.5859577116677
 11
87.8653358455233
 21
117.4359579816849
  0
LINE
  5
281
100
AcDbEntity
  8
0
  6
ByLayer
 62
  256
370
   -1
100
AcDbLine
 10
87.81533584552334
 20
117.4359580041872
 11
87.81533584552334
 21
116.5859577116677
  0
LINE
  5
282
100
AcDbEntity
  8
0
  6
ByLayer
 62
  256
370
   -1
100
AcDbLine
 10
87.8653358455233
 20
117.485957711667
 11
87.81533584552449
 21
117.485957711667
  0
LINE
  5
283
100
AcDbEntity
  8
0
  6
ByLayer
 62
  256
370
   -1
100
AcDbLine
 10
87.8653358455233
 20
116.5859577116677
 11
87.8653358455233
 21
117.4359579816849
  0
LINE
  5
284
100
AcDbEntity
  8
0
  6
ByLayer
 62
  256
370
   -1
100
AcDbLine
 10
87.81533584552334
 20
117.4359580041872
 11
87.81533584552334
 21
116.5859577116677
  0
LINE
  5
285
100
AcDbEntity
  8
0
  6
ByLayer
 62
  256
370
   -1
100
AcDbLine
 10
87.8653358455233
 20
117.485957711667
 11
87.81533584552449
 21
117.485957711667
  0
LINE
  5
286
100
AcDbEntity
  8
0
  6
ByLayer
 62
  256
370
   -1
100
AcDbLine
 10
87.8653358455233
 20
116.5859577116677
 11
87.8653358455233
 21
117.4359579816849
  0
LINE
  5
287
100
AcDbEntity
  8
0
  6
ByLayer
 62
  256
370
   -1
100
AcDbLine
 10
87.81533584552334
 20
117.4359580041872
 11
87.81533584552334
 21
116.5859577116677
  0
LINE
  5
288
100
AcDbEntity
  8
0
  6
ByLayer
 62
  256
370
   -1
100
AcDbLine
 10
87.8653358455233
 20
117.485957711667
 11
87.81533584552449
 21
117.485957711667
  0
LINE
  5
289
100
AcDbEntity
  8
0
  6
ByLayer
 62
  256
370
   -1
100
AcDbLine
 10
87.8653358455233
 20
116.5859577116677
 11
87.8653358455233
 21
117.4359579816849
  0
LINE
  5
28A
100
AcDbEntity
  8
0
  6
ByLayer
 62
  256
370
   -1
100
AcDbLine
 10
87.81533584552334
 20
117.4359580041872
 11
87.81533584552334
 21
116.5859577116677
  0
LINE
  5
28B
100
AcDbEntity
  8
0
  6
ByLayer
 62
  256
370
   -1
100
AcDbLine
 10
87.8653358455233
 20
117.485957711667
 11
87.81533584552449
 21
117.485957711667
  0
LINE
  5
28C
100
AcDbEntity
  8
0
  6
ByLayer
 62
  256
370
   -1
100
AcDbLine
 10
87.56533584552449
 20
116.5859577116677
 11
87.56533584552449
 21
117.4359581166939
  0
LINE
  5
28D
100
AcDbEntity
  8
0
  6
ByLayer
 62
  256
370
   -1
100
AcDbLine
 10
87.5153358455234
 20
117.4359581391957
 11
87.5153358455234
 21
116.5859577116677
  0
LINE
  5
28E
100
AcDbEntity
  8
0
  6
ByLayer
 62
  256
370
   -1
100
AcDbLine
 10
87.56533584552449
 20
117.485957711667
 11
87.51533584552431
 21
117.485957711667
  0
LINE
  5
28F
100
AcDbEntity
  8
0
  6
ByLayer
 62
  256
370
   -1
100
AcDbLine
 10
87.56533584552449
 20
116.5859577116677
 11
87.56533584552449
 21
117.4359581166939
  0
LINE
  5
290
100
AcDbEntity
  8
0
  6
ByLayer
 62
  256
370
   -1
100
AcDbLine
 10
87.5153358455234
 20
117.4359581391957
 11
87.5153358455234
 21
116.5859577116677
  0
LINE
  5
291
100
AcDbEntity
  8
0
  6
ByLayer
 62
  256
370
   -1
100
AcDbLine
 10
87.56533584552449
 20
117.485957711667
 11
87.51533584552431
 21
117.485957711667
  0
LINE
  5
292
100
AcDbEntity
  8
0
  6
ByLayer
 62
  256
370
   -1
100
AcDbLine
 10
87.26533584552431
 20
116.5859577116677
 11
87.26533584552431
 21
117.4359582517038
  0
LINE
  5
293
100
AcDbEntity
  8
0
  6
ByLayer
 62
  256
370
   -1
100
AcDbLine
 10
87.21533584552435
 20
117.4359582742052
 11
87.21533584552323
 21
116.5859577116677
  0
LINE
  5
294
100
AcDbEntity
  8
0
  6
ByLayer
 62
  256
370
   -1
100
AcDbLine
 10
87.26533584552431
 20
117.485957711667
 11
87.21533584552435
 21
117.485957711667
  0
LINE
  5
295
100
AcDbEntity
  8
0
  6
ByLayer
 62
  256
370
   -1
100
AcDbLine
 10
87.26533584552431
 20
116.5859577116677
 11
87.26533584552431
 21
117.4359582517038
  0
LINE
  5
296
100
AcDbEntity
  8
0
  6
ByLayer
 62
  256
370
   -1
100
AcDbLine
 10
87.21533584552435
 20
117.4359582742052
 11
87.21533584552323
 21
116.5859577116677
  0
LINE
  5
297
100
AcDbEntity
  8
0
  6
ByLayer
 62
  256
370
   -1
100
AcDbLine
 10
87.26533584552431
 20
117.485957711667
 11
87.21533584552435
 21
117.485957711667
  0
LINE
  5
298
100
AcDbEntity
  8
0
  6
ByLayer
 62
  256
370
   -1
100
AcDbLine
 10
86.96533584552435
 20
116.5859577116677
 11
86.96533584552435
 21
117.4359583867124
  0
LINE
  5
299
100
AcDbEntity
  8
0
  6
ByLayer
 62
  256
370
   -1
100
AcDbLine
 10
86.91533584552435
 20
117.4359584092142
 11
86.91533584552435
 21
116.5859577116677
  0
LINE
  5
29A
100
AcDbEntity
  8
0
  6
ByLayer
 62
  256
370
   -1
100
AcDbLine
 10
86.96533584552435
 20
117.485957711667
 11
86.91533584552435
 21
117.485957711667
  0
LINE
  5
29B
100
AcDbEntity
  8
0
  6
ByLayer
 62
  256
370
   -1
100
AcDbLine
 10
86.96533584552435
 20
116.5859577116677
 11
86.96533584552435
 21
117.4359583867124
  0
LINE
  5
29C
100
AcDbEntity
  8
0
  6
ByLayer
 62
  256
370
   -1
100
AcDbLine
 10
86.91533584552435
 20
117.4359584092142
 11
86.91533584552435
 21
116.5859577116677
  0
LINE
  5
29D
100
AcDbEntity
  8
0
  6
ByLayer
 62
  256
370
   -1
100
AcDbLine
 10
86.96533584552435
 20
117.485957711667
 11
86.91533584552435
 21
117.485957711667
  0
LINE
  5
29E
100
AcDbEntity
  8
0
  6
ByLayer
 62
  256
370
   -1
100
AcDbLine
 10
86.66533584552324
 20
116.5859577116677
 11
86.66533584552324
 21
117.4359585217209
  0
LINE
  5
29F
100
AcDbEntity
  8
0
  6
ByLayer
 62
  256
370
   -1
100
AcDbLine
 10
86.6153358455233
 20
117.4359585442219
 11
86.6153358455233
 21
116.5859577116677
  0
LINE
  5
2A0
100
AcDbEntity
  8
0
  6
ByLayer
 62
  256
370
   -1
100
AcDbLine
 10
86.66533584552324
 20
117.485957711667
 11
86.6153358455233
 21
117.485957711667
  0
LINE
  5
2A1
100
AcDbEntity
  8
0
  6
ByLayer
 62
  256
370
   -1
100
AcDbLine
 10
86.66533584552324
 20
116.5859577116677
 11
86.66533584552324
 21
117.4359585217209
  0
LINE
  5
2A2
100
AcDbEntity
  8
0
  6
ByLayer
 62
  256
370
   -1
100
AcDbLine
 10
86.6153358455233
 20
117.4359585442219
 11
86.6153358455233
 21
116.5859577116677
  0
LINE
  5
2A3
100
AcDbEntity
  8
0
  6
ByLayer
 62
  256
370
   -1
100
AcDbLine
 10
86.66533584552324
 20
117.485957711667
 11
86.6153358455233
 21
117.485957711667
  0
LINE
  5
2A4
100
AcDbEntity
  8
0
  6
ByLayer
 62
  256
370
   -1
100
AcDbLine
 10
88.46533584552435
 20
117.485957711667
 11
86.38622990627027
 21
117.485958647327
  0
LINE
  5
2A5
100
AcDbEntity
  8
0
  6
ByLayer
 62
  256
370
   -1
100
AcDbLine
 10
88.41533584552442
 20
117.4359577341691
 11
86.38622988376845
 21
117.4359586473268
  0
LINE
  5
2A6
100
AcDbEntity
  8
0
  6
ByLayer
 62
  252
370
    0
100
AcDbLine
 10
86.58622487562046
 20
115.5859577116674
 11
86.58622487562046
 21
114.6669114423092
  0
LINE
  5
2A7
100
AcDbEntity
  8
0
  6
ByLayer
 62
  252
370
    0
100
AcDbLine
 10
86.63622487562134
 20
115.5359577116672
 11
86.63622487562225
 21
114.6669114198069
  0
MTEXT
  5
2A8
100
AcDbEntity
  8
0
  6
ByLayer
 62
  256
370
   -1
100
AcDbMText
 10
86.56295290775823
 20
116.1817103402903
 30
0
 40
0.096
 41
3.34933331298115
 71
    1
 72
    5
  1
RISE =14.76 CM  TREAD = 30 CM   WIDTH = 120CM 
  7
123
210
0
220
0
230
1
 50
0
 73
    1
 44
1
  0
LINE
  5
2A9
100
AcDbEntity
  8
0
  6
ByLayer
 62
  256
370
   -1
100
AcDbLine
 10
93.11658543537735
 20
115.5859577116674
 11
93.11658543537735
 21
113.4859577116671
  0
LINE
  5
2AA
100
AcDbEntity
  8
0
  6
ByLayer
 62
  256
370
   -1
100
AcDbLine
 10
96.26658543553141
 20
114.0859577116674
 11
96.26658543553141
 21
115.5859577116674
  0
LINE
  5
2AB
100
AcDbEntity
  8
0
  6
ByLayer
 62
  256
370
   -1
100
AcDbLine
 10
96.21658543553146
 20
114.0859577116674
 11
96.21658543553146
 21
115.5859577116674
  0
LINE
  5
2AC
100
AcDbEntity
  8
0
  6
ByLayer
 62
  252
370
    0
100
AcDbLine
 10
86.77424961607632
 20
115.2724957858457
 11
86.92496803253218
 21
115.3976331516686
  0
LINE
  5
2AD
100
AcDbEntity
  8
0
  6
ByLayer
 62
  252
370
    0
100
AcDbLine
 10
86.68328377047123
 20
115.2791527349144
 11
86.9431961603284
 21
115.4884491358037
  0
LINE
  5
2AE
100
AcDbEntity
  8
0
  6
ByLayer
 62
  252
370
    0
100
AcDbLine
 10
86.68682060435734
 20
115.3604239113077
 11
86.83582390251649
 21
115.4740749811407
  0
LINE
  5
2AF
100
AcDbEntity
  8
0
  6
ByLayer
 62
  252
370
    0
100
AcDbLine
 10
87.32609062368736
 20
114.8218091136062
 11
87.47680904014236
 21
114.9469464794296
  0
LINE
  5
2B0
100
AcDbEntity
  8
0
  6
ByLayer
 62
  252
370
    0
100
AcDbLine
 10
87.2351247780814
 20
114.8284660626753
 11
87.49503716793947
 21
115.0377624635642
  0
LINE
  5
2B1
100
AcDbEntity
  8
0
  6
ByLayer
 62
  252
370
    0
100
AcDbLine
 10
87.23866161196928
 20
114.9097372390682
 11
87.38766491012734
 21
115.0233883089016
  0
LINE
  5
2B2
100
AcDbEntity
  8
0
  6
ByLayer
 62
  256
370
   -1
100
AcDbLine
 10
89.99169800270121
 20
114.4859577116671
 11
90.9916980027003
 21
114.4859577116671
  0
LINE
  5
2B3
100
AcDbEntity
  8
0
  6
ByLayer
 62
  256
370
   -1
100
AcDbLine
 10
90.04169800270029
 20
114.5359577116672
 11
90.44169800270129
 21
114.5359577116672
  0
LINE
  5
2B4
100
AcDbEntity
  8
0
  6
ByLayer
 62
  256
370
   -1
100
AcDbLine
 10
90.54169800270142
 20
114.5359577116672
 11
90.94169800270035
 21
114.5359577116672
  0
LINE
  5
2B5
100
AcDbEntity
  8
0
  6
ByLayer
 62
  256
370
   -1
100
AcDbLine
 10
89.99169800270121
 20
115.5859577116674
 11
90.9916980027003
 21
115.5859577116674
  0
LINE
  5
2B6
100
AcDbEntity
  8
0
  6
ByLayer
 62
  256
370
   -1
100
AcDbLine
 10
90.04169800270139
 20
115.5359577116672
 11
90.44169800270129
 21
115.5359577116672
  0
LINE
  5
2B7
100
AcDbEntity
  8
0
  6
ByLayer
 62
  256
370
   -1
100
AcDbLine
 10
90.54169800270142
 20
115.5359577116672
 11
90.94169800270129
 21
115.5359577116672
  0
LINE
  5
2B8
100
AcDbEntity
  8
0
  6
ByLayer
 62
  256
370
   -1
100
AcDbLine
 10
89.99169800270121
 20
114.4859577116671
 11
89.99169800270121
 21
115.5859577116674
  0
LINE
  5
2B9
100
AcDbEntity
  8
0
  6
ByLayer
 62
  256
370
   -1
100
AcDbLine
 10
90.04169800270139
 20
114.5359577116672
 11
90.04169800270139
 21
115.5359577116672
  0
LINE
  5
2BA
100
AcDbEntity
  8
0
  6
ByLayer
 62
  256
370
   -1
100
AcDbLine
 10
90.9916980027003
 20
115.5859577116674
 11
90.9916980027003
 21
114.4859577116671
  0
LINE
  5
2BB
100
AcDbEntity
  8
0
  6
ByLayer
 62
  256
370
   -1
100
AcDbLine
 10
90.94169800270129
 20
115.5359577116672
 11
90.94169800270129
 21
114.5359577116672
  0
LINE
  5
2BC
100
AcDbEntity
  8
0
  6
ByLayer
 62
  256
370
   -1
100
AcDbLine
 10
90.49169800270035
 20
115.5859577116674
 11
90.49169800270035
 21
114.4859577116671
  0
LINE
  5
2BD
100
AcDbEntity
  8
0
  6
ByLayer
 62
  256
370
   -1
100
AcDbLine
 10
90.54169800270142
 20
115.5359577116672
 11
90.54169800270142
 21
114.5359577116672
  0
LINE
  5
2BE
100
AcDbEntity
  8
0
  6
ByLayer
 62
  256
370
   -1
100
AcDbLine
 10
90.44169800270129
 20
115.5359577116672
 11
90.44169800270129
 21
114.5359577116672
  0
HATCH
  5
2BF
100
AcDbEntity
  8
0
  6
ByLayer
 62
  256
370
   -1
100
AcDbHatch
 10
0
 20
0
 30
0
210
0
220
0
230
1
  2
AR-CONC
 70
    0
 71
    0
 91
    1
 92
    0
 93
    4
 72
    1
 10
86.18623889611148
 20
115.6659577116674
 11
85.58623889367232
 21
115.6659512158434
 72
    1
 10
85.58623889367232
 20
115.6659512158425
 11
85.58620885441428
 21
115.5859512158425
 72
    1
 10
85.58620885441428
 20
115.5859512158425
 11
86.18620885685321
 21
115.5859577116674
 72
    1
 10
86.18620885685436
 20
115.5859577116674
 11
86.18623889611148
 21
115.6659577116674
 97
    0
 75
    0
 76
    1
 52
0
 41
0.02
 77
    0
 78
    0
 98
    0
  0
LINE
  5
2C0
100
AcDbEntity
  8
0
  6
ByLayer
 62
  256
370
   -1
100
AcDbLine
 10
85.58620885685332
 20
115.5859577116674
 11
85.58623889611133
 21
115.6659577116674
  0
LINE
  5
2C1
100
AcDbEntity
  8
0
  6
ByLayer
 62
  256
370
   -1
100
AcDbLine
 10
85.58620885685332
 20
115.5859577116674
 11
86.38622905121338
 21
115.5859577116674
  0
LINE
  5
2C2
100
AcDbEntity
  8
0
  6
ByLayer
 62
  256
370
   -1
100
AcDbLine
 10
85.58623889611133
 20
115.6659577116674
 11
86.18622387648225
 21
115.6659577116664
  0
HATCH
  5
2C3
100
AcDbEntity
  8
0
  6
ByLayer
 62
  256
370
   -1
100
AcDbHatch
 10
0
 20
0
 30
0
210
0
220
0
230
1
  2
AR-CONC
 70
    0
 71
    0
 91
    1
 92
    0
 93
    4
 72
    1
 10
96.96658543574223
 20
115.6659577116674
 11
96.36658543574234
 21
115.6659577116674
 72
    1
 10
96.36658543574234
 20
115.6659577116674
 11
96.36658543573937
 21
115.5859577116674
 72
    1
 10
96.36658543573937
 20
115.5859577116674
 11
96.96658543573947
 21
115.5859577116674
 72
    1
 10
96.96658543573947
 20
115.5859577116674
 11
96.96658543574223
 21
115.6659577116674
 97
    0
 75
    0
 76
    1
 52
0
 41
0.02
 77
    0
 78
    0
 98
    0
  0
LINE
  5
2C4
100
AcDbEntity
  8
0
  6
ByLayer
 62
  256
370
   -1
100
AcDbLine
 10
96.96658543573947
 20
115.5859577116674
 11
96.96658543574223
 21
115.6659577116674
  0
LINE
  5
2C5
100
AcDbEntity
  8
0
  6
ByLayer
 62
  256
370
   -1
100
AcDbLine
 10
96.16658543537731
 20
115.5859577116674
 11
96.96658543573947
 21
115.5859577116674
  0
LINE
  5
2C6
100
AcDbEntity
  8
0
  6
ByLayer
 62
  256
370
   -1
100
AcDbLine
 10
96.36658543574234
 20
115.6659577116674
 11
96.96658543574223
 21
115.6659577116674
  0
HATCH
  5
2C7
100
AcDbEntity
  8
0
  6
ByLayer
 62
    0
370
    9
100
AcDbHatch
 10
0
 20
0
 30
0
210
0
220
0
230
1
  2
AR-CONC
 70
    0
 71
    0
 91
    1
 92
    0
 93
    4
 72
    1
 10
86.18622387648225
 20
112.6859577116673
 11
86.18622387648225
 21
111.8859577116666
 72
    1
 10
86.18622387648225
 20
111.8859577116666
 11
86.38564309062942
 21
111.8859577116666
 72
    1
 10
86.38564309062942
 20
111.8859577116666
 11
86.38564309062942
 21
112.6859577116673
 72
    1
 10
86.38564309062942
 20
112.6859577116673
 11
86.18622387648134
 21
112.6859577116673
 97
    0
 75
    0
 76
    1
 52
0
 41
0.03
 77
    0
 78
    0
 98
    0
  0
LINE
  5
2C8
100
AcDbEntity
  8
0
  6
ByLayer
 62
  256
370
   -1
100
AcDbLine
 10
86.18622387648225
 20
111.8859577116666
 11
86.18622387648225
 21
112.6859577116673
  0
HATCH
  5
2C9
100
AcDbEntity
  8
0
  6
ByLayer
 62
    0
370
    9
100
AcDbHatch
 10
0
 20
0
 30
0
210
0
220
0
230
1
  2
AR-CONC
 70
    0
 71
    0
 91
    1
 92
    0
 93
    4
 72
    1
 10
86.40622387648226
 20
113.1359577116671
 11
86.18622387648225
 21
113.1359577116671
 72
    1
 10
86.18622387648225
 20
113.1359577116671
 11
86.18622387648225
 21
112.6859577116673
 72
    1
 10
86.18622387648225
 20
112.6859577116673
 11
86.40622387648226
 21
112.6859577116673
 72
    1
 10
86.40622387648226
 20
112.6859577116673
 11
86.40622387648226
 21
113.1359577116671
 97
    0
 75
    0
 76
    1
 52
0
 41
0.03
 77
    0
 78
    0
 98
    0
  0
LWPOLYLINE
  5
2CA
100
AcDbEntity
  8
0
  6
ByLayer
 62
  256
370
   -1
100
AcDbPolyline
 90
    4
 70
    1
 43
0
 10
85.44622387648224
 20
111.4359577116672
 10
87.14622387648228
 20
111.4359577116672
 10
87.14622387648228
 20
111.2859577116671
 10
85.44622387648224
 20
111.2859577116671
  0
LINE
  5
2CB
100
AcDbEntity
  8
0
  6
ByLayer
 62
  256
370
   -1
100
AcDbLine
 10
86.40622387648226
 20
111.8859577116666
 11
86.40622387648226
 21
112.6859577116673
  0
LINE
  5
2CC
100
AcDbEntity
  8
0
  6
ByLayer
 62
  256
370
   -1
100
AcDbLine
 10
86.18622387648225
 20
111.8859577116666
 11
86.18622387648225
 21
112.6859577116673
  0
LWPOLYLINE
  5
2CD
100
AcDbEntity
  8
0
  6
ByLayer
 62
  256
370
   -1
100
AcDbPolyline
 90
    6
 70
    0
 43
0
 10
85.54622387648237
 20
111.4359577116672
 10
85.54622387648237
 20
111.6359577116671
 10
86.13622387648138
 20
111.8859577116666
 10
86.45622387648129
 20
111.8859577116666
 10
87.04622387648146
 20
111.6359577116671
 10
87.04622387648146
 20
111.4359577116672
  0
HATCH
  5
2CE
100
AcDbEntity
  8
0
  6
ByLayer
 62
    0
370
    9
100
AcDbHatch
 10
0
 20
0
 30
0
210
0
220
0
230
1
  2
AR-CONC
 70
    0
 71
    0
 91
    1
 92
    0
 93
    4
 72
    1
 10
85.44622387648224
 20
111.4359577116672
 11
87.14622387648228
 21
111.4359577116672
 72
    1
 10
87.14622387648228
 20
111.4359577116672
 11
87.14622387648228
 21
111.2859577116671
 72
    1
 10
87.14622387648228
 20
111.2859577116671
 11
85.44622387648224
 21
111.2859577116671
 72
    1
 10
85.44622387648224
 20
111.2859577116671
 11
85.44622387648224
 21
111.4359577116672
 97
    0
 75
    0
 76
    1
 52
0
 41
0.03
 77
    0
 78
    0
 98
    0
  0
HATCH
  5
2CF
100
AcDbEntity
  8
0
  6
ByLayer
 62
    0
370
    9
100
AcDbHatch
 10
0
 20
0
 30
0
210
0
220
0
230
1
  2
AR-CONC
 70
    0
 71
    0
 91
    1
 92
    0
 93
   38
 72
    1
 10
86.2062238764813
 20
111.8859577116666
 11
86.13622387648229
 21
111.8859577116666
 72
    1
 10
86.13622387648229
 20
111.8859577116666
 11
85.54622387648237
 21
111.6359577116671
 72
    1
 10
85.54622387648237
 20
111.6359577116671
 11
85.54622387648237
 21
111.4359577116672
 72
    1
 10
85.54622387648237
 20
111.4359577116672
 11
87.04622387648237
 21
111.4359577116672
 72
    1
 10
87.04622387648237
 20
111.4359577116672
 11
87.04622387648146
 21
111.6359577116671
 72
    1
 10
87.04622387648146
 20
111.6359577116671
 11
86.45622387648129
 21
111.8859577116666
 72
    1
 10
86.45622387648129
 20
111.8859577116666
 11
86.38622387648229
 21
111.8859577116666
 72
    1
 10
86.38622387648229
 20
111.8859577116666
 11
86.38622387648229
 21
111.4759577116672
 72
    1
 10
86.38622387648229
 20
111.4759577116672
 11
86.9562238764813
 21
111.4759577116672
 72
    1
 10
86.9562238764813
 20
111.4759577116672
 11
86.71622387648131
 21
111.4759577116672
 72
    1
 10
86.71622387648131
 20
111.4759577116672
 11
86.47622387648244
 21
111.4759577116672
 72
    1
 10
86.47622387648244
 20
111.4759577116672
 11
86.38622387648229
 21
111.4759577116672
 72
    1
 10
86.38622387648229
 20
111.4759577116672
 11
86.38622387648229
 21
111.8859577116666
 72
    1
 10
86.38622387648229
 20
111.8859577116666
 11
86.2062238764813
 21
111.8859577116666
 72
    1
 10
86.2062238764813
 20
111.8859577116666
 11
86.2062238764813
 21
111.4759577116672
 72
    1
 10
86.2062238764813
 20
111.4759577116672
 11
86.11622387648229
 21
111.4759577116672
 72
    1
 10
86.11622387648229
 20
111.4759577116672
 11
85.87622387648139
 21
111.4759577116672
 72
    1
 10
85.87622387648139
 20
111.4759577116672
 11
85.63622387648137
 21
111.4759577116672
 72
    1
 10
85.63622387648137
 20
111.4759577116672
 11
86.2062238764813
 21
111.4759577116672
 72
    1
 10
86.2062238764813
 20
111.4759577116672
 11
86.2062238764813
 21
111.8859577116666
 72
    2
 10
86.95622387648174
 20
111.4599577116667
 40
0.01600000000054535
 50
269.9999999984224
 51
359.9999999984224
 73
    0
 72
    2
 10
86.95622387648233
 20
111.4599577116671
 40
0.01599999999996271
 50
360
 51
180
 73
    0
 72
    2
 10
86.95622387648189
 20
111.4599577116677
 40
0.01599999999952217
 50
179.9999999979136
 51
269.9999999979136
 73
    0
 72
    2
 10
86.71622387648129
 20
111.4599577116671
 40
0.01600000000009061
 50
270.0000000000509
 51
5.088887490341627e-11
 73
    0
 72
    2
 10
86.71622387648142
 20
111.4599577116671
 40
0.01599999999996982
 50
360
 51
180
 73
    0
 72
    2
 10
86.71622387648144
 20
111.4599577116672
 40
0.01599999999998403
 50
179.9999999995929
 51
269.999999999542
 73
    0
 72
    2
 10
86.47622387648185
 20
111.4599577116677
 40
0.01599999999952217
 50
270.0000000020864
 51
2.086443871040067e-09
 73
    0
 72
    2
 10
86.47622387648141
 20
111.4599577116671
 40
0.01599999999996271
 50
360
 51
180
 73
    0
 72
    2
 10
86.476223876482
 20
111.4599577116667
 40
0.01600000000054535
 50
180.0000000015775
 51
270.0000000015776
 73
    0
 72
    2
 10
86.11622387648229
 20
111.4599577116671
 40
0.01600000000009589
 50
270
 51
5.088887490341627e-11
 73
    0
 72
    2
 10
86.11622387648231
 20
111.4599577116671
 40
0.0160000000000764
 50
360
 51
180
 73
    0
 72
    2
 10
86.11622387648232
 20
111.4599577116671
 40
0.0160000000000835
 50
179.9999999998982
 51
269.9999999998982
 73
    0
 72
    2
 10
85.87622387648138
 20
111.4599577116671
 40
0.01600000000009061
 50
270.0000000000509
 51
5.088887490341627e-11
 73
    0
 72
    2
 10
85.87622387648184
 20
111.4599577116671
 40
0.01599999999962165
 50
360
 51
180
 73
    0
 72
    2
 10
85.87622387648186
 20
111.4599577116676
 40
0.01599999999963586
 50
179.9999999983207
 51
269.9999999983207
 73
    0
 72
    2
 10
85.6362238764808
 20
111.4599577116677
 40
0.01599999999953639
 50
270.0000000020356
 51
2.035554996136651e-09
 73
    0
 72
    2
 10
85.63622387648083
 20
111.4599577116671
 40
0.01599999999950796
 50
360
 51
180
 73
    0
 72
    2
 10
85.6362238764814
 20
111.4599577116671
 40
0.0160000000000764
 50
179.9999999998982
 51
269.9999999998982
 73
    0
 97
    0
 75
    0
 76
    1
 52
0
 41
0.03
 77
    0
 78
    0
 98
    0
  0
LWPOLYLINE
  5
2D0
100
AcDbEntity
  8
0
  6
ByLayer
 62
  256
370
   -1
100
AcDbPolyline
 90
    4
 70
    1
 43
0
 10
86.40622387648226
 20
112.6859577116673
 10
86.18622387648225
 20
112.6859577116673
 10
86.18622387648225
 20
113.4859577116671
 10
86.40622387648226
 20
113.4859577116671
  0
LWPOLYLINE
  5
2D1
100
AcDbEntity
  8
0
  6
DASHED2
 62
    0
370
   13
100
AcDbPolyline
 90
    4
 70
    1
 43
0
 10
95.53158543551241
 20
111.4359577116672
 10
97.23158543551241
 20
111.4359577116672
 10
97.23158543551241
 20
111.2859577116671
 10
95.53158543551241
 20
111.2859577116671
  0
LINE
  5
2D2
100
AcDbEntity
  8
0
  6
DASHED2
 62
    0
370
   13
100
AcDbLine
 10
96.27158543551241
 20
111.8859577116666
 11
96.27158543551241
 21
112.6859577116673
  0
LINE
  5
2D3
100
AcDbEntity
  8
0
  6
DASHED2
 62
    0
370
   13
100
AcDbLine
 10
96.49158543551243
 20
111.8859577116666
 11
96.49158543551243
 21
112.6859577116673
  0
LWPOLYLINE
  5
2D4
100
AcDbEntity
  8
0
  6
DASHED2
 62
    0
370
   13
100
AcDbPolyline
 90
    6
 70
    0
 43
0
 10
95.63158543551251
 20
111.4359577116672
 10
95.63158543551251
 20
111.6359577116671
 10
96.22158543551132
 20
111.8859577116666
 10
96.5415854355124
 20
111.8859577116666
 10
97.1315854355114
 20
111.6359577116671
 10
97.1315854355114
 20
111.4359577116672
  0
HATCH
  5
2D5
100
AcDbEntity
  8
0
  6
ByLayer
 62
    0
370
    9
100
AcDbHatch
 10
0
 20
0
 30
0
210
0
220
0
230
1
  2
AR-CONC
 70
    0
 71
    0
 91
    1
 92
    0
 93
    4
 72
    1
 10
91.29768476859341
 20
113.1359577116671
 11
91.07768476859225
 21
113.1359577116671
 72
    1
 10
91.07768476859225
 20
113.1359577116671
 11
91.07768476859225
 21
112.6859577116673
 72
    1
 10
91.07768476859225
 20
112.6859577116673
 11
91.29768476859341
 21
112.6859577116673
 72
    1
 10
91.29768476859341
 20
112.6859577116673
 11
91.29768476859341
 21
113.1359577116671
 97
    0
 75
    0
 76
    1
 52
0
 41
0.03
 77
    0
 78
    0
 98
    0
  0
LWPOLYLINE
  5
2D6
100
AcDbEntity
  8
0
  6
ByLayer
 62
  256
370
   -1
100
AcDbPolyline
 90
    4
 70
    1
 43
0
 10
91.07768476859225
 20
113.4859577116671
 10
91.29768476859341
 20
113.4859577116671
 10
91.29768476859341
 20
112.6859577116673
 10
91.07768476859225
 20
112.6859577116673
  0
MTEXT
  5
2D7
100
AcDbEntity
  8
0
  6
ByLayer
 62
  256
370
   -1
100
AcDbMText
 10
97.70834536582832
 20
111.4003546977044
 30
0
 40
0.2
 41
2.238888888888901
 71
    4
 72
    1
  1
COLUMN FOOTING
  7
123
210
0
220
0
230
1
 50
0
 73
    1
 44
1
  0
LEADER
  5
2D8
100
AcDbEntity
  8
0
  6
ByLayer
 62
  256
370
   -1
100
AcDbLeader
  3
Standard
 71
    1
 72
    0
 73
    3
 74
    0
 75
    0
 40
1
 41
10
 76
2
 76
2
 10
96.41966041440332
 20
112.2506725416922
 30
0
 10
97.67788871088328
 20
112.2506725416922
 30
0
  0
MTEXT
  5
2D9
100
AcDbEntity
  8
0
  6
ByLayer
 62
  256
370
    0
100
AcDbMText
 10
85.88008072964134
 20
112.8901825482223
 30
0
 40
0.1500000000003488
 41
0.2000000000004744
 71
    1
 72
    5
  1
GL
  7
standard
210
0
220
0
230
1
 50
0
 73
    1
 44
1
  0
MTEXT
  5
2DA
100
AcDbEntity
  8
0
  6
ByLayer
 62
  256
370
    0
100
AcDbMText
 10
97.11431843966329
 20
112.9135731560075
 30
0
 40
0.1500000000003488
 41
0.2000000000004651
 71
    1
 72
    5
  1
RL
  7
standard
210
0
220
0
230
1
 50
0
 73
    1
 44
1
  0
DIMENSION
  5
2DB
100
AcDbEntity
  8
BLK_1_HT_OF_BLDG
  6
ByLayer
 62
  256
370
   -1
100
AcDbDimension
  2
*D6
 10
84.30365495742242
 20
116.5859577116674
 30
0
 11
84.30365495742237
 21
115.0359577116672
 31
0
 70
   32
 71
    5
  3
Standard
 53
0
210
0
220
0
230
1
100
AcDbAlignedDimension
 13
86.18622387648225
 23
113.4859577116671
 33
0
 14
86.18622387648225
 24
116.5859577116674
 34
0
 50
90
100
AcDbRotatedDimension
  0
DIMENSION
  5
2DC
100
AcDbEntity
  8
0
  6
ByLayer
 62
  256
370
   -1
100
AcDbDimension
  2
*D7
 10
96.96658543573947
 20
115.4308899844435
 30
0
 11
97.47005746848166
 21
115.4308899844435
 31
0
 70
   32
 71
    5
  3
Standard
 53
0
210
0
220
0
230
1
100
AcDbAlignedDimension
 13
96.36658543573937
 23
115.5859577116674
 33
0
 14
96.96658543573947
 24
115.5859577116465
 34
0
100
AcDbRotatedDimension
  0
MTEXT
  5
2DD
100
AcDbEntity
  8
NORTH_DIRECTION
  6
ByLayer
 62
  256
370
   -1
100
AcDbMText
 10
133.0164825858933
 20
112.6656246896423
 30
0
 40
1
 41
0.5555555555555556
 71
    1
 72
    5
  1
N
  7
standard
210
0
220
0
230
1
 50
0
 73
    1
 44
1
  0
LINE
  5
2DE
100
AcDbEntity
  8
0
  6
ByLayer
 62
  252
370
    0
100
AcDbLine
 10
88.04783543538041
 20
113.4859577116671
 11
88.04783543538041
 21
115.5859577116674
  0
LINE
  5
2DF
100
AcDbEntity
  8
0
  6
ByLayer
 62
  252
370
    0
100
AcDbLine
 10
87.99783543538022
 20
113.7359577341698
 11
87.99783543538022
 21
115.5859577116674
  0
DIMENSION
  5
2E0
100
AcDbEntity
  8
0
  6
ByLayer
 62
  256
370
   -1
100
AcDbDimension
  2
*D8
 10
85.44622387648224
 20
110.3249797890896
 30
0
 11
86.29622387648239
 21
110.3249797890896
 31
0
 70
   32
 71
    5
  3
Standard
 53
0
210
0
220
0
230
1
100
AcDbAlignedDimension
 13
87.14622387648228
 23
111.2859577116671
 33
0
 14
85.44622387648224
 24
111.2859577116671
 34
0
100
AcDbRotatedDimension
  0
DIMENSION
  5
2E1
100
AcDbEntity
  8
0
  6
ByLayer
 62
  256
370
   -1
100
AcDbDimension
  2
*D9
 10
87.04622387648146
 20
110.8327126804745
 30
0
 11
86.29622387648145
 21
110.8327126804745
 31
0
 70
   32
 71
    5
  3
Standard
 53
0
210
0
220
0
230
1
100
AcDbAlignedDimension
 13
85.54622387648237
 23
111.4359577116672
 33
0
 14
87.04622387648146
 24
111.4359577116672
 34
0
100
AcDbRotatedDimension
  0
DIMENSION
  5
2E2
100
AcDbEntity
  8
BLK_1_PLINTH_HEIGHT
  6
ByLayer
 62
  256
370
   -1
100
AcDbDimension
  2
*D10
 10
85.17329425605344
 20
112.6859577116673
 30
0
 11
85.1732942560534
 21
112.9109577116672
 31
0
 70
   32
 71
    5
  3
Standard
 53
0
210
0
220
0
230
1
100
AcDbAlignedDimension
 13
86.18622387648225
 23
113.4859577116671
 33
0
 14
86.18622387648225
 24
112.6859577116673
 34
0
 50
90
100
AcDbRotatedDimension
  0
DIMENSION
  5
2E3
100
AcDbEntity
  8
0
  6
ByLayer
 62
  256
370
   -1
100
AcDbDimension
  2
*D11
 10
87.37732644499852
 20
111.2859577116671
 30
0
 11
87.37732644499847
 21
110.6015034142592
 31
0
 70
   32
 71
    5
  3
Standard
 53
0
210
0
220
0
230
1
100
AcDbAlignedDimension
 13
87.14622387648228
 23
111.4359577116672
 33
0
 14
87.14622387648228
 24
111.2859577116671
 34
0
 50
90
100
AcDbRotatedDimension
  0
DIMENSION
  5
2E4
100
AcDbEntity
  8
0
  6
ByLayer
 62
  256
370
   -1
100
AcDbDimension
  2
*D12
 10
87.37732644499852
 20
111.4359577116672
 30
0
 11
87.68174388947432
 21
111.5359577116667
 31
0
 70
   32
 71
    5
  3
Standard
 53
0
210
0
220
0
230
1
100
AcDbAlignedDimension
 13
87.04622387648146
 23
111.6359577116671
 33
0
 14
87.04622387648146
 24
111.4359577116672
 34
0
 50
90
100
AcDbRotatedDimension
  0
DIMENSION
  5
2E5
100
AcDbEntity
  8
0
  6
ByLayer
 62
  256
370
   -1
100
AcDbDimension
  2
*D13
 10
85.17329425605431
 20
112.6859577116673
 30
0
 11
85.17329425605428
 21
111.9859577116672
 31
0
 70
   32
 71
    5
  3
Standard
 53
0
210
0
220
0
230
1
100
AcDbAlignedDimension
 13
85.44622387648224
 23
111.2859577116671
 33
0
 14
85.44622387648224
 24
112.6859577116673
 34
0
 50
90
100
AcDbRotatedDimension
  0
LWPOLYLINE
  5
2E6
100
AcDbEntity
  8
0
  6
DASHED2
 62
    0
370
   13
100
AcDbPolyline
 90
    4
 70
    1
 43
0
 10
90.33768476859223
 20
111.4359577116672
 10
92.03768476859229
 20
111.4359577116672
 10
92.03768476859229
 20
111.2859577116671
 10
90.33768476859223
 20
111.2859577116671
  0
LINE
  5
2E7
100
AcDbEntity
  8
0
  6
DASHED2
 62
    0
370
   13
100
AcDbLine
 10
91.07768476859225
 20
111.8859577116666
 11
91.07768476859225
 21
112.6859577116673
  0
LINE
  5
2E8
100
AcDbEntity
  8
0
  6
DASHED2
 62
    0
370
   13
100
AcDbLine
 10
91.29768476859341
 20
111.8859577116666
 11
91.29768476859341
 21
112.6859577116673
  0
LWPOLYLINE
  5
2E9
100
AcDbEntity
  8
0
  6
DASHED2
 62
    0
370
   13
100
AcDbPolyline
 90
    6
 70
    0
 43
0
 10
90.43768476859236
 20
111.4359577116672
 10
90.43768476859236
 20
111.6359577116671
 10
91.02768476859139
 20
111.8859577116666
 10
91.34768476859219
 20
111.8859577116666
 10
91.93768476859147
 20
111.6359577116671
 10
91.93768476859147
 20
111.4359577116672
  0
LEADER
  5
2EA
100
AcDbEntity
  8
0
  6
ByLayer
 62
  256
370
   -1
100
AcDbLeader
  3
Standard
 71
    1
 72
    0
 73
    3
 74
    0
 75
    0
 40
1
 41
10
 76
2
 76
2
 10
96.41966041440332
 20
111.3367883149142
 30
0
 10
97.67788871088328
 20
111.3367883149142
 30
0
  0
MTEXT
  5
2EB
100
AcDbEntity
  8
PLAN_INFO
  6
ByLayer
 62
  256
370
   -1
100
AcDbMText
 10
112.5163738749113
 20
120.3900685993387
 30
0
 40
0.2280405
 41
11.37668702163145
 71
    4
 72
    5
  3
PLAN INFO\P\PPLOT_NO=82/1\PKHATA_NO=34(PART)\PMAUZA=SAGUNA\PDISTRICT=DANAPUR\PPLOT_AREA_M2=139.23\PAVG_PLOT_DEPTH= 15.20\PAVG_PLOT_WIDTH= 9.10\PAREA_TYPE=OLD\PROAD_WIDTH=3.6\PLAND_USE_ZONE = RESIDENTIAL\PBUILDING_NEAR_MONUMENT = NO\PBUILDING_NEAR_GOV
  3
T_BLDG = NO \PBUILDING_NEAR_TO_RIVER = NO\PLEASEHOLD_LAND= NO\PNOC_FOR_CONSTRUCTION_NEAR_DEFENCE_AERODOMES= NO\PNOC_FOR_CONSTRUCTION_NEAR_AIRPORT= NO\PNOC_STATE_ENV_IMPACT= NO\PNOC_RAILWAY= NO\PNOC_COLLECTOR_GVT_LAND= NO\PNOC_IRRIGATION_DEPT= NO\PNOC
  1
_FOR_CONSTRUCTION_NEAR_MONUMENT= NO\PNOC_FIRE_DEPT= NO\PEXISTING_FLOOR_AREA_TO_BE_DEMOLISHED_M2 = 0\PBARRIER_FREE_ACCESS_FOR_PHYSICALLY_CHALLENGED_PEOPLE=NO\PPROVISION_FOR_GREEN_BUILDINGS_AND_SUSTAINABILITY=YES\PRWH_DECLARED=YES
  7
standard
210
0
220
0
230
1
 50
0
 73
    1
 44
1
  0
DIMENSION
  5
2EC
100
AcDbEntity
  8
BLK_1_PARAPET_HT
  6
ByLayer
 62
  256
370
   -1
100
AcDbDimension
  2
*D15
 10
90.30172265611748
 20
117.7859577116669
 30
0
 11
90.30172265611746
 21
117.1859577116673
 31
0
 70
   32
 71
    5
  3
Standard
 53
0
210
0
220
0
230
1
100
AcDbAlignedDimension
 13
89.7853354353804
 23
116.5859577116677
 33
0
 14
89.7853354353804
 24
117.7859577116669
 34
0
 50
90
100
AcDbRotatedDimension
  0
DIMENSION
  5
2ED
100
AcDbEntity
  8
BLK_1_MUMTY_HT
  6
ByLayer
 62
  256
370
   -1
100
AcDbDimension
  2
*D16
 10
84.30365495742242
 20
119.0859577116677
 30
0
 11
84.30365495742242
 21
117.8359577116678
 31
0
 70
   32
 71
    5
  3
Standard
 53
0
210
0
220
0
230
1
100
AcDbAlignedDimension
 13
85.98622387648243
 23
116.5859577116677
 33
0
 14
85.98622387648243
 24
119.0859577116677
 34
0
 50
90
100
AcDbRotatedDimension
  0
DIMENSION
  5
2EE
100
AcDbEntity
  8
BLK_1_FLR_0_REGULAR_ROOM
  6
ByLayer
 62
  256
370
   -1
100
AcDbDimension
  2
*D17
 10
91.49624486363307
 20
116.4859577116671
 30
0
 11
91.49624486363302
 21
114.9859577116671
 31
0
 70
   32
 71
    5
  3
Standard
 53
0
210
0
220
0
230
1
100
AcDbAlignedDimension
 13
91.86658543537735
 23
113.4859577116671
 33
0
 14
91.86658543537735
 24
116.4859577116671
 34
0
 50
90
100
AcDbRotatedDimension
  0
LWPOLYLINE
  5
2EF
100
AcDbEntity
  8
NORTH_DIRECTION
  6
ByLayer
 62
  256
370
   -1
100
AcDbPolyline
 90
    7
 70
    1
 43
0
 10
133.2868550252616
 20
109.6621544302497
 10
133.4757406132639
 20
109.6621544302497
 10
133.4757406132639
 20
110.9910238109672
 10
133.9274241507305
 20
110.9910238109672
 10
133.3854044666348
 20
111.7867047368491
 10
132.9172960222727
 20
110.9828209778854
 10
133.2868550252616
 20
110.9910238109672
  0
MTEXT
  5
2F0
100
AcDbEntity
  8
LOCATION_PLAN
  6
ByLayer
 62
  256
370
   -1
100
AcDbMText
 10
136.4428378675475
 20
98.77444309245348
 30
0
 40
0.4
 41
5.4
 71
    1
 72
    5
  1
\LLOCATION - PLAN
  7
standard
210
0
220
0
230
1
 50
0
 73
    1
 44
1
  0
LWPOLYLINE
  5
2F1
100
AcDbEntity
  8
LOCATION_PLAN
  6
ByLayer
 62
  256
370
   -1
100
AcDbPolyline
 90
   12
 70
    1
 43
0
 10
140.1770048718529
 20
103.473110375457
 10
140.1770048718529
 20
103.473110375457
 10
141.8955741597913
 20
103.473110375457
 10
141.8955741597913
 20
103.473110375457
 10
141.8955741597913
 20
103.473110375457
 10
141.911342377715
 20
101.2882041794232
 10
141.8955741597913
 20
101.2882041794232
 10
141.8955741597913
 20
99.88974668072387
 10
140.1770048718529
 20
99.88974668072387
 10
140.1770048718529
 20
101.2882041794232
 10
134.4261023454736
 20
101.2882041794232
 10
134.4261023454736
 20
103.473110375457
  0
HATCH
  5
2F2
100
AcDbEntity
  8
LOCATION_PLAN
  6
ByLayer
 62
  256
370
   -1
100
AcDbHatch
 10
0
 20
0
 30
0
210
0
220
0
230
1
  2
SOLID
 70
    1
 71
    0
 91
    1
 92
    0
 93
    4
 72
    1
 10
137.295075400908
 20
103.473110375457
 11
138.2684847239169
 21
103.473110375457
 72
    1
 10
138.2684847239169
 20
103.473110375457
 11
138.2684847239169
 21
104.5859516842784
 72
    1
 10
138.2684847239169
 20
104.5859516842784
 11
137.295075400908
 21
104.5859516842784
 72
    1
 10
137.295075400908
 20
104.5859516842784
 11
137.295075400908
 21
103.473110375457
 97
    0
 75
    0
 76
    1
 98
    0
  0
LWPOLYLINE
  5
2F3
100
AcDbEntity
  8
LOCATION_PLAN
  6
ByLayer
 62
  256
370
   -1
100
AcDbPolyline
 90
    4
 70
    1
 43
0
 10
137.295075400908
 20
104.5859516842784
 10
138.2684847239169
 20
104.5859516842784
 10
138.2684847239169
 20
103.473110375457
 10
137.295075400908
 20
103.473110375457
  0
MTEXT
  5
2F4
100
AcDbEntity
  8
LOCATION_PLAN
  6
ByLayer
 62
  256
370
   -1
100
AcDbMText
 10
132.7159132310944
 20
105.3750594731619
 30
0
 40
0.2
 41
2.677777735377348
 71
    1
 72
    5
  1
APPLICANT'S  PLOT
  7
standard
210
0
220
0
230
1
 50
0
 73
    1
 44
1
  0
LEADER
  5
2F5
100
AcDbEntity
  8
LOCATION_PLAN
  6
ByLayer
 62
  256
370
   -1
100
AcDbLeader
  3
Standard
 71
    1
 72
    0
 73
    3
 74
    0
 75
    0
 40
1
 41
10
 76
3
 76
3
 10
137.7317117977691
 20
104.1534823802504
 30
0
 10
137.7317117977691
 20
105.269533877939
 30
0
 10
135.5379616840873
 20
105.269533877939
 30
0
  0
LEADER
  5
2F6
100
AcDbEntity
  8
LOCATION_PLAN
  6
ByLayer
 62
  256
370
   -1
100
AcDbLeader
  3
Standard
 71
    1
 72
    0
 73
    3
 74
    0
 75
    0
 40
1
 41
10
 76
3
 76
3
 10
140.9850507246145
 20
102.2886616921009
 30
0
 10
142.163231519552
 20
101.0161469030036
 30
0
 10
143.150355263072
 20
101.0161469030036
 30
0
  0
MTEXT
  5
2F7
100
AcDbEntity
  8
LOCATION_PLAN
  6
ByLayer
 62
  256
370
   -1
100
AcDbMText
 10
143.222587535782
 20
101.142873386673
 30
0
 40
0.2
 41
1.74999995759957
 71
    1
 72
    5
  1
SAGUNA MOR
  7
standard
210
0
220
0
230
1
 50
0
 73
    1
 44
1
  0
LWPOLYLINE
  5
2F8
100
AcDbEntity
  8
PLOT_BOUNDARY
  6
ByLayer
 62
  256
370
   -1
100
AcDbPolyline
 90
    4
 70
    1
 43
0
 10
125.4299233381337
 20
111.0003918907676
 10
116.3299233381337
 20
111.0003918907676
 10
116.3299233381337
 20
95.80039189076756
 10
125.4299233381337
 20
95.80039189076756
  0
LWPOLYLINE
  5
2F9
100
AcDbEntity
  8
BLK_1_COVERED_AREA
  6
ByLayer
 62
  256
370
   -1
100
AcDbPolyline
 90
    4
 70
    1
 43
0
 10
116.3299233381337
 20
109.1003918907675
 10
122.9299233381337
 20
109.1003918907675
 10
122.9299233381337
 20
98.80039189076756
 10
116.3299233381337
 20
98.80039189076756
  0
LWPOLYLINE
  5
2FA
100
AcDbEntity
  8
BLK_1_LVL_0_BLDG_FOOT_PRINT
  6
CONTINUOUS
 62
  256
370
   -1
100
AcDbPolyline
 90
    4
 70
    1
 43
0
 10
116.3299233381337
 20
109.1003918907675
 10
122.9299233381337
 20
109.1003918907675
 10
122.9299233381337
 20
98.80039189076756
 10
116.3299233381337
 20
98.80039189076756
  0
LWPOLYLINE
  5
2FB
100
AcDbEntity
  8
BLK_1_LVL_0_FRONT_SETBACK
  6
ByLayer
 62
  256
370
   -1
100
AcDbPolyline
 90
    4
 70
    1
 43
0
 10
122.9299233381337
 20
98.80039189076756
 10
116.3299233381337
 20
98.80039189076756
 10
116.3299233381337
 20
95.80039189076756
 10
122.9299233381337
 20
95.80039189076756
  0
LWPOLYLINE
  5
2FC
100
AcDbEntity
  8
BLK_1_LVL_0_REAR_SETBACK
  6
ByLayer
 62
  256
370
   -1
100
AcDbPolyline
 90
    4
 70
    1
 43
0
 10
122.9299233381337
 20
109.1003918907675
 10
116.3299233381337
 20
109.1003918907675
 10
116.3299233381337
 20
111.0003918907676
 10
122.9299233381337
 20
111.0003918907676
  0
LWPOLYLINE
  5
2FD
100
AcDbEntity
  8
BLK_1_LVL_0_SIDE_SETBACK1
  6
ByLayer
 62
  256
370
   -1
100
AcDbPolyline
 90
    4
 70
    1
 43
0
 10
122.9299233381337
 20
109.1003918907675
 10
125.4299233381337
 20
109.1003918907675
 10
125.4299233381337
 20
98.80039189076756
 10
122.9299233381337
 20
98.80039189076756
  0
LWPOLYLINE
  5
2FE
100
AcDbEntity
  8
RWH_1
  6
ByLayer
 62
  256
370
   -1
100
AcDbPolyline
 90
    4
 70
    1
 43
0
 10
123.3375814087626
 20
110.6517652445764
 10
124.8747750497743
 20
110.6517652445764
 10
124.8747750497743
 20
109.4446706372514
 10
123.3375814087626
 20
109.4446706372514
  0
MTEXT
  5
2FF
100
AcDbEntity
  8
RWH_1
  6
ByLayer
 62
  256
370
   -1
100
AcDbMText
 10
122.9880552598383
 20
110.0596452261335
 30
0
 40
0.125
 41
2.243055555555562
 71
    1
 72
    1
  1
 'RWH_CAPACITY_L=6000' 
  7
standard
210
0
220
0
230
1
 50
0
 73
    1
 44
1
  0
LINE
  5
300
100
AcDbEntity
  8
0
  6
ByLayer
 62
  256
370
   -1
100
AcDbLine
 10
130.0678072436578
 20
95.80039189076756
 11
111.2455790427309
 21
95.80039189076756
  0
LINE
  5
301
100
AcDbEntity
  8
0
  6
ByLayer
 62
  256
370
   -1
100
AcDbLine
 10
130.0678072436578
 20
92.20039189076755
 11
111.2455790427309
 21
92.20039189076755
  0
DIMENSION
  5
302
100
AcDbEntity
  8
0
  6
ByLayer
 62
  256
370
   -1
100
AcDbDimension
  2
*D20
 10
114.6322768362959
 20
92.20039189076755
 30
0
 11
114.6322768362958
 21
94.00039189076759
 31
0
 70
   32
 71
    5
  3
Standard
 53
0
210
0
220
0
230
1
100
AcDbAlignedDimension
 13
114.266982197025
 23
95.80039189076756
 33
0
 14
114.266982197025
 24
92.20039189076755
 34
0
 50
90
100
AcDbRotatedDimension
  0
LWPOLYLINE
  5
303
100
AcDbEntity
  8
0
  6
ByLayer
 62
  256
370
   -1
100
AcDbPolyline
 90
    6
 70
    0
 43
0
 10
111.2455790427309
 20
96.93237177777479
 10
111.2455790427309
 20
94.47388112640628
 10
110.4855242237386
 20
94.61540249535373
 10
111.8981334578666
 20
94.04884228530676
 10
111.2455790427309
 20
94.04884228530676
 10
111.2455790427309
 20
90.59843219038922
  0
LWPOLYLINE
  5
304
100
AcDbEntity
  8
0
  6
ByLayer
 62
  256
370
   -1
100
AcDbPolyline
 90
    6
 70
    0
 43
0
 10
130.0678072436578
 20
96.93237177777479
 10
130.0678072436578
 20
94.47388112640628
 10
129.3077524246655
 20
94.61540249535373
 10
130.7203616587935
 20
94.04884228530676
 10
130.0678072436578
 20
94.04884228530676
 10
130.0678072436578
 20
90.59843219038922
  0
LWPOLYLINE
  5
305
100
AcDbEntity
  8
SEPTIC_TANK
  6
ByLayer
 62
  256
370
   -1
100
AcDbPolyline
 90
    4
 70
    1
 43
0
 10
123.3911671525359
 20
97.32744449500454
 10
125.2079457878542
 20
97.32744449500454
 10
125.2079457878542
 20
96.57628489427276
 10
123.3911671525359
 20
96.57628489427276
  0
DIMENSION
  5
306
100
AcDbEntity
  8
0
  6
ByLayer
 62
  256
370
   -1
100
AcDbDimension
  2
*D21
 10
126.0873631736776
 20
111.0003918907676
 30
0
 11
126.0873631736776
 21
103.4003918907675
 31
0
 70
   32
 71
    5
  3
Standard
 53
0
210
0
220
0
230
1
100
AcDbAlignedDimension
 13
125.4299233381337
 23
95.80039189076756
 33
0
 14
125.4299233381337
 24
111.0003918907676
 34
0
 50
90
100
AcDbRotatedDimension
  0
DIMENSION
  5
307
100
AcDbEntity
  8
0
  6
ByLayer
 62
  256
370
   -1
100
AcDbDimension
  2
*D22
 10
116.3299233381337
 20
111.5447779047587
 30
0
 11
120.8799233381337
 21
111.5447779047587
 31
0
 70
   32
 71
    5
  3
Standard
 53
0
210
0
220
0
230
1
100
AcDbAlignedDimension
 13
125.4299233381337
 23
111.0003918907676
 33
0
 14
116.3299233381337
 24
111.0003918907676
 34
0
100
AcDbRotatedDimension
  0
LWPOLYLINE
  5
308
100
AcDbEntity
  8
BLK_1_PLANTATION_GREENSTRIP
  6
ByLayer
 62
  256
370
   -1
100
AcDbPolyline
 90
    4
 70
    1
 43
0
 10
122.9299233381337
 20
95.80039189076756
 10
119.1997853348646
 20
95.80039189076756
 10
119.1997853348646
 20
96.88378762289931
 10
122.9299233381337
 20
96.88378762289931
  0
LWPOLYLINE
  5
309
100
AcDbEntity
  8
WASTE_MANAGEMENT
  6
ByLayer
 62
  256
370
   -1
100
AcDbPolyline
 90
    4
 70
    1
 43
0
 10
116.8081050840185
 20
96.36749266979744
 10
117.9244012985667
 20
96.36749266979744
 10
117.9244012985667
 20
96.04181288808556
 10
116.8081050840185
 20
96.04181288808556
  0
LWPOLYLINE
  5
30A
100
AcDbEntity
  8
BLK_1_FLR_0_STAIR_1_FLIGHT_1
  6
ByLayer
 62
  256
370
   -1
100
AcDbPolyline
 90
    4
 70
    1
 43
0
 10
102.6474540252011
 20
103.4938799246513
 10
101.447454025202
 20
103.493879924651
 10
101.447454025202
 20
101.0938799246509
 10
102.6474540252011
 20
101.0938799246512
  0
LWPOLYLINE
  5
30B
100
AcDbEntity
  8
BLK_1_FLR_0_STAIR_1_FLIGHT_2
  6
ByLayer
 62
  256
370
   -1
100
AcDbPolyline
 90
    4
 70
    1
 43
0
 10
103.9474540252003
 20
103.4938799246513
 10
102.7474540252011
 20
103.493879924651
 10
102.7474540252011
 20
101.0938799246509
 10
103.9474540252003
 20
101.0938799246512
  0
LWPOLYLINE
  5
30C
100
AcDbEntity
  8
BLK_1_FLR_0_STAIR_1
  6
ByLayer
 62
  256
370
   -1
100
AcDbPolyline
 90
    4
 70
    1
 43
0
 10
101.2524542728247
 20
101.0938799246509
 10
104.1474550243403
 20
101.0938799246509
 10
104.1474550243403
 20
104.8938799246561
 10
101.2524542728247
 20
104.8938799246561
  0
LINE
  5
30D
100
AcDbEntity
  8
0
  6
ByLayer
 62
  256
370
   -1
100
AcDbLine
 10
101.447454025202
 20
103.493879924651
 11
102.5674540252021
 21
103.493879924651
  0
LINE
  5
30E
100
AcDbEntity
  8
0
  6
ByLayer
 62
  256
370
   -1
100
AcDbLine
 10
102.6174540252021
 20
103.493879924651
 11
102.7774550243402
 21
103.493879924651
  0
LINE
  5
30F
100
AcDbEntity
  8
0
  6
ByLayer
 62
  256
370
   -1
100
AcDbLine
 10
102.8274550243403
 20
103.493879924651
 11
103.9474550243402
 21
103.493879924651
  0
LINE
  5
310
100
AcDbEntity
  8
0
  6
ByLayer
 62
  256
370
   -1
100
AcDbLine
 10
102.6174540252021
 20
103.5238799246499
 11
102.7774550243402
 21
103.5238799246499
  0
LINE
  5
311
100
AcDbEntity
  8
0
  6
ByLayer
 62
  256
370
   -1
100
AcDbLine
 10
102.5674540252021
 20
103.5738799246509
 11
102.8274550243403
 21
103.5738799246509
  0
LINE
  5
312
100
AcDbEntity
  8
0
  6
ByLayer
 62
  256
370
   -1
100
AcDbLine
 10
101.447454025202
 20
103.19387992465
 11
102.5674540252021
 21
103.19387992465
  0
LINE
  5
313
100
AcDbEntity
  8
0
  6
ByLayer
 62
  256
370
   -1
100
AcDbLine
 10
102.6174540252021
 20
103.19387992465
 11
102.6474540252011
 21
103.19387992465
  0
LINE
  5
314
100
AcDbEntity
  8
0
  6
ByLayer
 62
  256
370
   -1
100
AcDbLine
 10
102.7474550243402
 20
103.19387992465
 11
102.7774550243402
 21
103.19387992465
  0
LINE
  5
315
100
AcDbEntity
  8
0
  6
ByLayer
 62
  256
370
   -1
100
AcDbLine
 10
102.8274550243403
 20
103.19387992465
 11
103.9474550243402
 21
103.19387992465
  0
LINE
  5
316
100
AcDbEntity
  8
0
  6
ByLayer
 62
  256
370
   -1
100
AcDbLine
 10
101.447454025202
 20
102.8938799246498
 11
102.5674540252021
 21
102.8938799246498
  0
LINE
  5
317
100
AcDbEntity
  8
0
  6
ByLayer
 62
  256
370
   -1
100
AcDbLine
 10
102.6174540252021
 20
102.8938799246498
 11
102.6474540252011
 21
102.8938799246498
  0
LINE
  5
318
100
AcDbEntity
  8
0
  6
ByLayer
 62
  256
370
   -1
100
AcDbLine
 10
102.7474550243402
 20
102.8938799246498
 11
102.7774550243402
 21
102.8938799246498
  0
LINE
  5
319
100
AcDbEntity
  8
0
  6
ByLayer
 62
  256
370
   -1
100
AcDbLine
 10
102.8274550243403
 20
102.8938799246498
 11
103.9474550243402
 21
102.8938799246498
  0
LINE
  5
31A
100
AcDbEntity
  8
0
  6
ByLayer
 62
  256
370
   -1
100
AcDbLine
 10
101.447454025202
 20
102.593879924651
 11
102.5674540252021
 21
102.593879924651
  0
LINE
  5
31B
100
AcDbEntity
  8
0
  6
ByLayer
 62
  256
370
   -1
100
AcDbLine
 10
102.6174540252021
 20
102.593879924651
 11
102.6474540252011
 21
102.593879924651
  0
LINE
  5
31C
100
AcDbEntity
  8
0
  6
ByLayer
 62
  256
370
   -1
100
AcDbLine
 10
101.447454025202
 20
102.2938799246497
 11
102.6474540252011
 21
102.2938799246512
  0
LINE
  5
31D
100
AcDbEntity
  8
0
  6
ByLayer
 62
  256
370
   -1
100
AcDbLine
 10
101.447454025202
 20
101.993879924651
 11
102.5674540252021
 21
101.993879924651
  0
LINE
  5
31E
100
AcDbEntity
  8
0
  6
ByLayer
 62
  256
370
   -1
100
AcDbLine
 10
102.6174540252021
 20
101.993879924651
 11
102.6474540252021
 21
101.993879924651
  0
LINE
  5
31F
100
AcDbEntity
  8
0
  6
ByLayer
 62
  256
370
   -1
100
AcDbLine
 10
101.447454025202
 20
101.6938799246499
 11
102.5674540252021
 21
101.6938799246513
  0
LINE
  5
320
100
AcDbEntity
  8
0
  6
ByLayer
 62
  256
370
   -1
100
AcDbLine
 10
102.6174540252021
 20
101.6938799246513
 11
102.6474540252021
 21
101.6938799246513
  0
LINE
  5
321
100
AcDbEntity
  8
0
  6
ByLayer
 62
  256
370
   -1
100
AcDbLine
 10
101.447454025202
 20
101.3938799246497
 11
102.5674540252021
 21
101.3938799246511
  0
LINE
  5
322
100
AcDbEntity
  8
0
  6
ByLayer
 62
  256
370
   -1
100
AcDbLine
 10
102.6174540252021
 20
101.3938799246511
 11
102.6474540252011
 21
101.3938799246511
  0
LINE
  5
323
100
AcDbEntity
  8
0
  6
ByLayer
 62
  256
370
   -1
100
AcDbLine
 10
101.447454025202
 20
101.0938799246509
 11
102.5674540252021
 21
101.0938799246509
  0
LINE
  5
324
100
AcDbEntity
  8
0
  6
ByLayer
 62
  256
370
   -1
100
AcDbLine
 10
102.6174540252021
 20
101.0938799246509
 11
102.6474540252011
 21
101.0938799246509
  0
LINE
  5
325
100
AcDbEntity
  8
0
  6
ByLayer
 62
  256
370
   -1
100
AcDbLine
 10
102.5674540252021
 20
101.013879924651
 11
102.6174540252021
 21
101.013879924651
  0
LINE
  5
326
100
AcDbEntity
  8
0
  6
ByLayer
 62
  256
370
   -1
100
AcDbLine
 10
102.7474550243402
 20
102.593879924651
 11
102.7774550243402
 21
102.593879924651
  0
LINE
  5
327
100
AcDbEntity
  8
0
  6
ByLayer
 62
  256
370
   -1
100
AcDbLine
 10
102.8274550243403
 20
102.593879924651
 11
103.9474550243402
 21
102.593879924651
  0
LINE
  5
328
100
AcDbEntity
  8
0
  6
ByLayer
 62
  256
370
   -1
100
AcDbLine
 10
102.7474550243402
 20
102.2938799246512
 11
102.7774550243402
 21
102.2938799246512
  0
LINE
  5
329
100
AcDbEntity
  8
0
  6
ByLayer
 62
  256
370
   -1
100
AcDbLine
 10
102.7474550243402
 20
101.993879924651
 11
102.7774550243402
 21
101.993879924651
  0
LINE
  5
32A
100
AcDbEntity
  8
0
  6
ByLayer
 62
  256
370
   -1
100
AcDbLine
 10
102.7474550243393
 20
101.6938799246513
 11
102.7774550243402
 21
101.6938799246513
  0
LINE
  5
32B
100
AcDbEntity
  8
0
  6
ByLayer
 62
  256
370
   -1
100
AcDbLine
 10
102.7474550243393
 20
101.3938799246511
 11
102.7774550243402
 21
101.3938799246511
  0
LINE
  5
32C
100
AcDbEntity
  8
0
  6
DASHED
 62
  256
370
   -1
100
AcDbLine
 10
102.7474550243402
 20
101.0938799246509
 11
102.7774550243402
 21
101.0938799246509
  0
LINE
  5
32D
100
AcDbEntity
  8
0
  6
DASHED
 62
  256
370
   -1
100
AcDbLine
 10
102.8274550243392
 20
101.0938799246509
 11
103.9474550243391
 21
101.0938799246509
  0
LINE
  5
32E
100
AcDbEntity
  8
0
  6
ByLayer
 62
  256
370
   -1
100
AcDbLine
 10
102.7774550243402
 20
101.013879924651
 11
102.8274550243403
 21
101.013879924651
  0
LINE
  5
32F
100
AcDbEntity
  8
0
  6
ByLayer
 62
  256
370
   -1
100
AcDbLine
 10
102.7474550243402
 20
101.0938799246509
 11
102.7474550243402
 21
103.493879924651
  0
LINE
  5
330
100
AcDbEntity
  8
0
  6
ByLayer
 62
  256
370
   -1
100
AcDbLine
 10
102.7774550243402
 20
101.013879924651
 11
102.7774550243402
 21
103.5238799246499
  0
LINE
  5
331
100
AcDbEntity
  8
0
  6
ByLayer
 62
  256
370
   -1
100
AcDbLine
 10
102.8274550243403
 20
101.013879924651
 11
102.8274550243403
 21
103.5738799246509
  0
LINE
  5
332
100
AcDbEntity
  8
0
  6
ByLayer
 62
  256
370
   -1
100
AcDbLine
 10
102.6474540252011
 20
103.493879924651
 11
102.6474540252011
 21
101.0938799246509
  0
LINE
  5
333
100
AcDbEntity
  8
0
  6
ByLayer
 62
  256
370
   -1
100
AcDbLine
 10
102.6174540252021
 20
103.5238799246499
 11
102.6174540252021
 21
101.013879924651
  0
LINE
  5
334
100
AcDbEntity
  8
0
  6
ByLayer
 62
  256
370
   -1
100
AcDbLine
 10
102.5674540252021
 20
103.5738799246509
 11
102.5674540252021
 21
101.013879924651
  0
LINE
  5
335
100
AcDbEntity
  8
0
  6
ByLayer
 62
  256
370
   -1
100
AcDbLine
 10
103.047009804651
 20
103.5238799246499
 11
103.047009804651
 21
103.493879924651
  0
LINE
  5
336
100
AcDbEntity
  8
0
  6
ByLayer
 62
  256
370
   -1
100
AcDbLine
 10
102.7470098046522
 20
103.5238799246499
 11
102.7470098046511
 21
103.493879924651
  0
LINE
  5
337
100
AcDbEntity
  8
0
  6
ByLayer
 62
  256
370
   -1
100
AcDbLine
 10
102.6478992448912
 20
103.5238799246499
 11
102.6478992448912
 21
103.493879924651
  0
MTEXT
  5
338
100
AcDbEntity
  8
0
  6
ByBlock
 62
    0
370
   18
100
AcDbMText
 10
102.1794312637622
 20
100.8762882272071
 30
0
 40
0.18
 41
5.130000092571748
 71
    9
 72
    1
  1
\fMS Shell Dlg 2|b0|i0|c0|p0;\H0.65385x;\P\fTimes New Roman|b0|i0|c0|p18;\H1.5294x;UP
  7
standard
210
0
220
0
230
1
 50
0
 73
    1
 44
1
  0
DIMENSION
  5
339
100
AcDbEntity
  8
BLK_1_FLR_0_STAIR_1_FLIGHT_1
  6
ByLayer
 62
    1
370
   -1
100
AcDbDimension
  2
*D23
 10
101.6769162145944
 20
103.493879924651
 30
0
 11
101.6769162145944
 21
102.293879924651
 31
0
 70
   33
 71
    5
  3
Standard
 53
0
210
0
220
0
230
1
100
AcDbAlignedDimension
 13
101.6769162145944
 23
101.0938799246509
 33
0
 14
101.6769162145944
 24
103.493879924651
 34
0
  0
DIMENSION
  5
33A
100
AcDbEntity
  8
BLK_1_FLR_0_STAIR_1_LANDING_1
  6
ByLayer
 62
    2
370
   -1
100
AcDbDimension
  2
*D24
 10
103.0470098046513
 20
103.493879924651
 30
0
 11
103.0470098046512
 21
104.0938799246505
 31
0
 70
   33
 71
    5
  3
Standard
 53
0
210
0
220
0
230
1
100
AcDbAlignedDimension
 13
103.0470098046513
 23
104.69387992465
 33
0
 14
103.0470098046513
 24
103.493879924651
 34
0
  0
DIMENSION
  5
33B
100
AcDbEntity
  8
BLK_1_FLR_0_STAIR_1_FLIGHT_1
  6
ByLayer
 62
    2
370
   -1
100
AcDbDimension
  2
*D25
 10
102.6474540252011
 20
101.854150324641
 30
0
 11
102.0474540252016
 21
101.854150324641
 31
0
 70
   33
 71
    5
  3
Standard
 53
0
210
0
220
0
230
1
100
AcDbAlignedDimension
 13
101.447454025202
 23
101.9953681893414
 33
0
 14
102.6474540252011
 24
101.9953681893414
 34
0
  0
DIMENSION
  5
33C
100
AcDbEntity
  8
BLK_1_FLR_0_STAIR_1_FLIGHT_2
  6
ByLayer
 62
    2
370
   -1
100
AcDbDimension
  2
*D26
 10
103.9474550243391
 20
101.8475182621566
 30
0
 11
103.3474550243396
 21
101.8475182621566
 31
0
 70
   33
 71
    5
  3
Standard
 53
0
210
0
220
0
230
1
100
AcDbAlignedDimension
 13
102.7474550243402
 23
101.9709370839271
 33
0
 14
103.9474550243391
 24
101.9709370839271
 34
0
  0
LWPOLYLINE
  5
33D
100
AcDbEntity
  8
BLK_1_FLR_0_STAIR_1_LANDING_1
  6
ByLayer
 62
  256
370
   -1
100
AcDbPolyline
 90
    4
 70
    1
 43
0
 10
103.9474550243391
 20
103.493879924651
 10
101.4474550243411
 20
103.493879924651
 10
101.4474550243411
 20
104.69387992465
 10
103.9474550243391
 20
104.69387992465
  0
LINE
  5
33E
100
AcDbEntity
  8
BLK_1_FLR_0_STAIR_1_FLIGHT_1
  6
ByLayer
 62
  256
370
   -1
100
AcDbLine
 10
101.447454025202
 20
103.19387992465
 11
102.6474540252011
 21
103.19387992465
  0
LINE
  5
33F
100
AcDbEntity
  8
BLK_1_FLR_0_STAIR_1_FLIGHT_1
  6
ByLayer
 62
  256
370
   -1
100
AcDbLine
 10
101.447454025202
 20
102.8938799246497
 11
102.6474540252011
 21
102.8938799246498
  0
LINE
  5
340
100
AcDbEntity
  8
BLK_1_FLR_0_STAIR_1_FLIGHT_1
  6
ByLayer
 62
  256
370
   -1
100
AcDbLine
 10
101.447454025202
 20
102.593879924651
 11
102.6474540252011
 21
102.593879924651
  0
LINE
  5
341
100
AcDbEntity
  8
BLK_1_FLR_0_STAIR_1_FLIGHT_1
  6
ByLayer
 62
  256
370
   -1
100
AcDbLine
 10
101.447454025203
 20
102.2938799246497
 11
102.6474540252022
 21
102.2938799246497
  0
LINE
  5
342
100
AcDbEntity
  8
BLK_1_FLR_0_STAIR_1_FLIGHT_1
  6
ByLayer
 62
  256
370
   -1
100
AcDbLine
 10
101.447454025202
 20
101.9927318928052
 11
102.6474540252011
 21
101.9927318928052
  0
LINE
  5
343
100
AcDbEntity
  8
BLK_1_FLR_0_STAIR_1_FLIGHT_1
  6
ByLayer
 62
  256
370
   -1
100
AcDbLine
 10
101.4474540252039
 20
101.6938799246499
 11
102.647454025203
 21
101.6938799246499
  0
LINE
  5
344
100
AcDbEntity
  8
BLK_1_FLR_0_STAIR_1_FLIGHT_1
  6
ByLayer
 62
  256
370
   -1
100
AcDbLine
 10
101.4474540252042
 20
101.3938799246497
 11
102.6474540252033
 21
101.3938799246497
  0
LINE
  5
345
100
AcDbEntity
  8
BLK_1_FLR_0_STAIR_1_FLIGHT_2
  6
ByLayer
 62
  256
370
   -1
100
AcDbLine
 10
103.9474550243391
 20
102.8938799246498
 11
102.7474550243402
 21
102.8938799246498
  0
LINE
  5
346
100
AcDbEntity
  8
BLK_1_FLR_0_STAIR_1_FLIGHT_2
  6
ByLayer
 62
  256
370
   -1
100
AcDbLine
 10
103.9474550243391
 20
102.593879924651
 11
102.7474550243402
 21
102.593879924651
  0
LINE
  5
347
100
AcDbEntity
  8
BLK_1_FLR_0_STAIR_1_FLIGHT_2
  6
ByLayer
 62
  256
370
   -1
100
AcDbLine
 10
103.9474550243391
 20
102.293879924651
 11
102.7474550243402
 21
102.293879924651
  0
LINE
  5
348
100
AcDbEntity
  8
BLK_1_FLR_0_STAIR_1_FLIGHT_2
  6
ByLayer
 62
  256
370
   -1
100
AcDbLine
 10
103.9474550243408
 20
101.993879924651
 11
102.7474550243419
 21
101.993879924651
  0
LINE
  5
349
100
AcDbEntity
  8
BLK_1_FLR_0_STAIR_1_FLIGHT_2
  6
ByLayer
 62
  256
370
   -1
100
AcDbLine
 10
103.9474550243409
 20
101.6938799246499
 11
102.747455024342
 21
101.6938799246499
  0
LINE
  5
34A
100
AcDbEntity
  8
BLK_1_FLR_0_STAIR_1_FLIGHT_2
  6
ByLayer
 62
  256
370
   -1
100
AcDbLine
 10
103.9474550243411
 20
101.3938799246497
 11
102.7474550243422
 21
101.3938799246497
  0
LINE
  5
34B
100
AcDbEntity
  8
BLK_1_FLR_0_STAIR_1_FLIGHT_2
  6
ByLayer
 62
  256
370
   -1
100
AcDbLine
 10
103.9474550243402
 20
103.19387992465
 11
102.7474550243413
 21
103.19387992465
  0
DIMENSION
  5
34C
100
AcDbEntity
  8
BLK_1_FLR_0_STAIR_1_LANDING_1
  6
ByLayer
 62
    1
370
   -1
100
AcDbDimension
  2
*D27
 10
103.9474550243391
 20
104.4964159231336
 30
0
 11
102.1969035970623
 21
104.4964159231336
 31
0
 70
   32
 71
    5
  3
Standard
 53
0
210
0
220
0
230
1
100
AcDbAlignedDimension
 13
101.4474550243411
 23
104.0938799246505
 33
0
 14
103.9474550243391
 24
104.0938799246505
 34
0
100
AcDbRotatedDimension
  0
DIMENSION
  5
34D
100
AcDbEntity
  8
BLK_1_FLR_0_STAIR_1_FLIGHT_2
  6
ByLayer
 62
    1
370
   -1
100
AcDbDimension
  2
*D28
 10
103.760479128774
 20
101.0938799246509
 30
0
 11
103.760479128774
 21
102.293879924651
 31
0
 70
   32
 71
    5
  3
Standard
 53
0
210
0
220
0
230
1
100
AcDbAlignedDimension
 13
103.7410782730204
 23
103.493879924651
 33
0
 14
103.7410782730204
 24
101.0938799246509
 34
0
 50
90
100
AcDbRotatedDimension
  0
LINE
  5
34E
100
AcDbEntity
  8
BLK_1_FLR_0_STAIR_1_FLIGHT_2
  6
ByLayer
 62
  256
370
   -1
100
AcDbLine
 10
103.9474550243402
 20
103.493879924651
 11
102.7474550243413
 21
103.493879924651
  0
LINE
  5
34F
100
AcDbEntity
  8
BLK_1_FLR_0_STAIR_1_FLIGHT_2
  6
ByLayer
 62
  256
370
   -1
100
AcDbLine
 10
103.9474550243402
 20
101.0938799246509
 11
102.7474550243413
 21
101.0938799246509
  0
LINE
  5
350
100
AcDbEntity
  8
BLK_1_FLR_0_STAIR_1_FLIGHT_1
  6
ByLayer
 62
  256
370
   -1
100
AcDbLine
 10
101.447454025202
 20
103.4938799246513
 11
102.6474540252011
 21
103.4938799246513
  0
LINE
  5
351
100
AcDbEntity
  8
BLK_1_FLR_0_STAIR_1_FLIGHT_1
  6
ByLayer
 62
  256
370
   -1
100
AcDbLine
 10
101.447454025202
 20
101.0938799246512
 11
102.6474540252011
 21
101.0938799246512
  0
DIMENSION
  5
352
100
AcDbEntity
  8
BLK_1_STAIR_HEADROOM
  6
ByLayer
 62
  256
370
   -1
100
AcDbDimension
  2
*D29
 10
88.22851590055961
 20
113.4859577116671
 30
0
 11
88.22851590055961
 21
114.3088138042622
 31
0
 70
   32
 71
    5
  3
Standard
 53
0
210
0
220
0
230
1
100
AcDbAlignedDimension
 13
88.22515229799183
 23
116.4859577116671
 33
0
 14
88.46078673971694
 24
113.4859577116671
 34
0
 50
90
100
AcDbRotatedDimension
  0
LWPOLYLINE
  5
353
100
AcDbEntity
  8
0
  6
ByLayer
 62
  256
370
   -1
100
AcDbPolyline
 90
    4
 70
    1
 43
0
 10
81.29330333808525
 20
128.0044851951686
 10
146.7297945197558
 20
128.0044851951686
 10
146.7297945197558
 20
83.94322470976765
 10
81.29330333808525
 20
83.94322470976765
  0
LWPOLYLINE
  5
354
100
AcDbEntity
  8
BLK_1_FLR_0_COVERED_PARKING
  6
ByLayer
 62
  256
370
   -1
100
AcDbPolyline
 90
    4
 70
    1
 43
0
 10
119.2249240896493
 20
105.2103919760568
 10
125.4299233381337
 20
105.2103919760567
 10
125.4299233381337
 20
95.80039189076756
 10
119.2249240896493
 20
95.80039189076756
  0
LWPOLYLINE
  5
355
100
AcDbEntity
  8
BLK_1_DA_RAMP_1
  6
ByLayer
 62
  256
370
   -1
100
AcDbPolyline
 90
    4
 70
    1
 43
0
 10
119.6299233381337
 20
98.80039189076756
 10
122.9299233381337
 20
98.80039189076756
 10
122.9299233381337
 20
97.90310381013065
 10
119.6299233381337
 20
97.90310381013065
  0
LINE
  5
356
100
AcDbEntity
  8
0
  6
ByLayer
 62
    0
370
   -1
100
AcDbLine
 10
94.56015300092209
 20
104.342505109262
 11
97.02015300090797
 21
104.342505109262
  0
LINE
  5
357
100
AcDbEntity
  8
0
  6
ByLayer
 62
    0
370
   -1
100
AcDbLine
 10
94.56015300092209
 20
105.9365051091996
 11
94.56015300092209
 21
105.5225051092124
  0
LINE
  5
358
100
AcDbEntity
  8
0
  6
ByLayer
 62
    0
370
   -1
100
AcDbLine
 10
94.790153000915
 20
105.8445051092027
 11
94.790153000915
 21
105.5225051092124
  0
LINE
  5
359
100
AcDbEntity
  8
0
  6
ByLayer
 62
    0
370
   -1
100
AcDbLine
 10
94.56015300092209
 20
105.8445051092027
 11
97.02015300090834
 21
105.8445051092027
  0
LINE
  5
35A
100
AcDbEntity
  8
0
  6
ByLayer
 62
    0
370
   -1
100
AcDbLine
 10
94.56015300092209
 20
105.9365051091996
 11
97.02015300090834
 21
105.9365051091996
  0
LINE
  5
35B
100
AcDbEntity
  8
0
  6
ByLayer
 62
    0
370
   -1
100
AcDbLine
 10
94.56015300092209
 20
104.250505109265
 11
97.02015300090797
 21
104.250505109265
  0
LINE
  5
35C
100
AcDbEntity
  8
0
  6
ByLayer
 62
    0
370
   -1
100
AcDbLine
 10
94.56015300092209
 20
104.1815051092668
 11
97.02015300090797
 21
104.1815051092668
  0
LINE
  5
35D
100
AcDbEntity
  8
0
  6
ByLayer
 62
    0
370
   -1
100
AcDbLine
 10
94.56015300092209
 20
104.1125051092692
 11
97.02015300090834
 21
104.112505109269
  0
LINE
  5
35E
100
AcDbEntity
  8
0
  6
ByLayer
 62
    0
370
   -1
100
AcDbLine
 10
96.03215300087705
 20
105.4305051092154
 11
96.14715300087352
 21
105.4305051092154
  0
LINE
  5
35F
100
AcDbEntity
  8
0
  6
ByLayer
 62
    0
370
   -1
100
AcDbLine
 10
96.79015300091494
 20
105.4305051092154
 11
94.97415300090987
 21
105.4305051092154
  0
LINE
  5
360
100
AcDbEntity
  8
0
  6
ByLayer
 62
    0
370
   -1
100
AcDbLine
 10
97.02015300090834
 20
105.9365051091996
 11
97.02015300090834
 21
104.112505109269
  0
LINE
  5
361
100
AcDbEntity
  8
0
  6
ByLayer
 62
    0
370
   -1
100
AcDbLine
 10
96.79015300091486
 20
105.8445051092027
 11
96.7901530009154
 21
104.342505109262
  0
LINE
  5
362
100
AcDbEntity
  8
0
  6
ByLayer
 62
    0
370
   -1
100
AcDbLine
 10
94.790153000915
 20
105.5225051092124
 11
93.8385967016489
 21
105.5225051092124
  0
LINE
  5
363
100
AcDbEntity
  8
0
  6
ByLayer
 62
    0
370
   -1
100
AcDbLine
 10
94.790153000915
 20
105.4305051092154
 11
93.8385967016489
 21
105.4305051092154
  0
LINE
  5
364
100
AcDbEntity
  8
0
  6
ByLayer
 62
    0
370
   -1
100
AcDbLine
 10
94.97415300090987
 20
105.6145051092097
 11
94.97415300090987
 21
105.3385051092181
  0
LINE
  5
365
100
AcDbEntity
  8
0
  6
ByLayer
 62
    0
370
   -1
100
AcDbLine
 10
94.97415300090987
 20
105.6145051092097
 11
94.790153000915
 21
105.6145051092097
  0
LINE
  5
366
100
AcDbEntity
  8
0
  6
ByLayer
 62
    0
370
   -1
100
AcDbLine
 10
94.97415300090987
 20
105.3385051092181
 11
94.790153000915
 21
105.3385051092181
  0
CIRCLE
  5
367
100
AcDbEntity
  8
0
  6
ByLayer
 62
    0
370
   -1
100
AcDbCircle
 10
93.8385967016489
 20
105.4765051092137
 40
0.0459999999985857
  0
LINE
  5
368
100
AcDbEntity
  8
0
  6
ByLayer
 62
    0
370
   -1
100
AcDbLine
 10
94.56015300092209
 20
105.4305051092154
 11
94.56015300092209
 21
104.1125051092692
  0
LINE
  5
369
100
AcDbEntity
  8
0
  6
ByLayer
 62
    0
370
   -1
100
AcDbLine
 10
94.790153000915
 20
105.4305051092154
 11
94.790153000915
 21
104.342505109262
  0
TEXT
  5
36A
100
AcDbEntity
  8
0
  6
ByLayer
 62
    0
370
   -1
100
AcDbText
 10
93.58801126426305
 20
104.7690822743918
 30
0
 40
0.1533333333286188
  1
IN LET 
 50
0
 41
1
 51
0
  7
standard
 71
    0
210
0
220
0
230
1
100
AcDbText
  0
TEXT
  5
36B
100
AcDbEntity
  8
0
  6
ByLayer
 62
    0
370
   -1
100
AcDbText
 10
93.58801126426305
 20
104.4913184074708
 30
0
 40
0.1533333333286188
  1
PIPE
 50
0
 41
1
 51
0
  7
standard
 71
    0
210
0
220
0
230
1
100
AcDbText
  0
HATCH
  5
36C
100
AcDbEntity
  8
0
  6
ByLayer
 62
    0
370
   -1
100
AcDbHatch
 10
0
 20
0
 30
0
210
0
220
0
230
1
  2
AR-CONC
 70
    0
 71
    0
 91
    1
 92
    0
 93
    4
 72
    1
 10
94.56015300092209
 20
104.342505109262
 11
94.56015300092209
 21
104.250505109265
 72
    1
 10
94.56015300092209
 20
104.250505109265
 11
97.02015300090834
 21
104.250505109265
 72
    1
 10
97.02015300090834
 20
104.250505109265
 11
97.02015300090834
 21
104.342505109262
 72
    1
 10
97.02015300090834
 20
104.342505109262
 11
94.56015300092209
 21
104.342505109262
 97
    0
 75
    0
 76
    1
 52
0
 41
0.0191666666660774
 77
    0
 78
    0
 98
    0
  0
HATCH
  5
36D
100
AcDbEntity
  8
0
  6
ByLayer
 62
    0
370
   -1
100
AcDbHatch
 10
0
 20
0
 30
0
210
0
220
0
230
1
  2
AR-B816
 70
    0
 71
    0
 91
    1
 92
    0
 93
    4
 72
    1
 10
94.56015300092209
 20
104.250505109265
 11
94.56015300092209
 21
104.1815051092668
 72
    1
 10
94.56015300092209
 20
104.1815051092668
 11
97.02015300090834
 21
104.1815051092668
 72
    1
 10
97.02015300090834
 20
104.1815051092668
 11
97.02015300090834
 21
104.250505109265
 72
    1
 10
97.02015300090834
 20
104.250505109265
 11
94.56015300092209
 21
104.250505109265
 97
    0
 75
    0
 76
    1
 52
0
 41
0.0191666666660774
 77
    0
 78
    0
 98
    0
  0
MTEXT
  5
36E
100
AcDbEntity
  8
0
  6
ByLayer
 62
    0
370
   -1
100
AcDbMText
 10
96.43302410733543
 20
103.3795348308376
 30
0
 40
0.5400000000000001
 41
2.459999885518865
 71
    5
 72
    1
  1
Section 
  7
standard
210
0
220
0
230
1
 50
0
 73
    1
 44
1
  0
MTEXT
  5
36F
100
AcDbEntity
  8
BLK_1_FLR_0_STAIR_1
  6
CONTINUOUS
 62
  256
370
   -1
100
AcDbMText
 10
101.4274697672868
 20
105.4470754617217
 30
0
 40
0.2
 41
2.400000000000025
 71
    1
 72
    5
  1
FLR_HT_M=03.15
  7
standard
210
0
220
0
230
1
 50
0
 73
    1
 44
1
  0
LWPOLYLINE
  5
370
100
AcDbEntity
  8
BLK_1_FLR_0_BLT_UP_AREA
  6
ByLayer
 62
   25
370
   -1
100
AcDbPolyline
 90
    4
 70
    1
 43
0
 10
107.8373562523789
 20
109.1003918907675
 10
114.4373562523789
 20
109.1003918907675
 10
114.4373562523789
 20
98.80039189076756
 10
107.8373562523789
 20
98.80039189076756
  0
LWPOLYLINE
  5
371
100
AcDbEntity
  8
BLK_1_FLR_0_ROOF_AREA
  6
ByLayer
 62
   25
370
   -1
100
AcDbPolyline
 90
    6
 70
    1
 43
0
 10
101.2524542728247
 20
109.1003918907675
 10
107.8524542728247
 20
109.1003918907675
 10
107.8524542728247
 20
98.80039189076756
 10
101.2524542728247
 20
98.80039189076756
 10
101.2524542728247
 20
98.80039189076756
 10
101.2524542728247
 20
98.80039189076756
  0
DIMENSION
  5
372
100
AcDbEntity
  8
RWH_1
  6
ByLayer
 62
  256
370
   -1
100
AcDbDimension
  2
*D30
 10
122.2741379556748
 20
108.0360700551591
 30
0
 11
122.0941379556748
 21
108.7870700551294
 31
0
 70
   32
 71
    5
  3
Standard
 53
0
210
0
220
0
230
1
100
AcDbAlignedDimension
 13
122.2741379556747
 23
109.5380700550998
 33
0
 14
122.1495265663364
 24
108.0360700551591
 34
0
 50
90
100
AcDbRotatedDimension
  0
LWPOLYLINE
  5
373
100
AcDbEntity
  8
RWH_2
  6
ByLayer
 62
  256
370
   -1
100
AcDbPolyline
 90
    5
 70
    1
 43
0
 10
115.8457767613656
 20
109.9814458813882
 10
117.3829704023773
 20
109.9814458813882
 10
117.3829704023773
 20
108.7743512740632
 10
115.8457767613656
 20
108.7743512740632
 10
115.8457767613656
 20
108.7743512740632
  0
MTEXT
  5
374
100
AcDbEntity
  8
RWH_2
  6
ByLayer
 62
  256
370
   -1
100
AcDbMText
 10
115.4962506124413
 20
109.3893258629453
 30
0
 40
0.125
 41
2.243055555555562
 71
    1
 72
    1
  1
 'RWH_CAPACITY_L=6000' 
  7
standard
210
0
220
0
230
1
 50
0
 73
    1
 44
1
  0
DIMENSION
  5
375
100
AcDbEntity
  8
RWH_2
  6
ByLayer
 62
  256
370
   -1
100
AcDbDimension
  2
*D31
 10
114.7823333082778
 20
107.3657506919709
 30
0
 11
114.6023333082777
 21
108.1167506919413
 31
0
 70
   32
 71
    5
  3
Standard
 53
0
210
0
220
0
230
1
100
AcDbAlignedDimension
 13
114.7823333082777
 23
108.8677506919116
 33
0
 14
114.6577219189394
 24
107.3657506919709
 34
0
 50
90
100
AcDbRotatedDimension
  0
MTEXT
  5
376
100
AcDbEntity
  8
RWH_3
  6
ByLayer
 62
  256
370
   -1
100
AcDbMText
 10
114.8259312492531
 20
108.8767287028603
 30
0
 40
0.125
 41
2.243055555555562
 71
    1
 72
    1
  1
 'RWH_CAPACITY_L=6000' 
  7
standard
210
0
220
0
230
1
 50
0
 73
    1
 44
1
  0
DIMENSION
  5
377
100
AcDbEntity
  8
RWH_3
  6
ByLayer
 62
  256
370
   -1
100
AcDbDimension
  2
*D32
 10
114.1120139450896
 20
106.8531535318859
 30
0
 11
113.9320139450896
 21
107.6041535318562
 31
0
 70
   32
 71
    5
  3
Standard
 53
0
210
0
220
0
230
1
100
AcDbAlignedDimension
 13
114.1120139450896
 23
108.3551535318266
 33
0
 14
113.9874025557512
 24
106.8531535318859
 34
0
 50
90
100
AcDbRotatedDimension
  0
LWPOLYLINE
  5
378
100
AcDbEntity
  8
RWH_3
  6
ByLayer
 62
  256
370
   -1
100
AcDbPolyline
 90
    5
 70
    1
 43
0
 10
115.1754573981774
 20
109.4688487213032
 10
116.7126510391891
 20
109.4688487213032
 10
116.7126510391891
 20
108.2617541139782
 10
115.1754573981774
 20
108.2617541139782
 10
115.1754573981774
 20
108.2617541139782
  0
DIMENSION
  5
379
100
AcDbEntity
  8
BLK_1_FLR_0_GLASS_FACADE_2
  6
ByLayer
 62
    2
370
   -1
100
AcDbDimension
  2
*D33
 10
103.5505341039206
 20
101.6887498939892
 30
0
 11
102.9505341039212
 21
101.8687498939892
 31
0
 70
   33
  1
2
 71
    5
  3
Standard
 53
0
210
0
220
0
230
1
100
AcDbAlignedDimension
 13
102.3505341039217
 23
101.8121687157597
 33
0
 14
103.5505341039206
 24
101.8121687157597
 34
0
  0
DIMENSION
  5
37A
100
AcDbEntity
  8
BLK_1_FLR_0_GLASS_FACADE_2
  6
ByLayer
 62
    1
370
   -1
100
AcDbDimension
  2
*D34
 10
103.667864247343
 20
100.8755734184207
 30
0
 11
103.487864247343
 21
102.0755734184208
 31
0
 70
   32
  1
5
 71
    5
  3
Standard
 53
0
210
0
220
0
230
1
100
AcDbAlignedDimension
 13
103.6484633915894
 23
103.2755734184208
 33
0
 14
103.6484633915894
 24
100.8755734184207
 34
0
 50
90
100
AcDbRotatedDimension
  0
DIMENSION
  5
37B
100
AcDbEntity
  8
BLK_1_FLR_0_GLASS_FACADE_2
  6
ByLayer
 62
    3
370
   -1
100
AcDbDimension
  2
*D35
 10
102.1794107957737
 20
100.9417269051572
 30
0
 11
101.9994107957737
 21
102.1417269051572
 31
0
 70
   32
  1
9
 71
    5
  3
Standard
 53
0
210
0
220
0
230
1
100
AcDbAlignedDimension
 13
102.1600099400201
 23
103.3417269051572
 33
0
 14
102.1600099400201
 24
100.9417269051572
 34
0
 50
90
100
AcDbRotatedDimension
  0
DIMENSION
  5
37C
100
AcDbEntity
  8
BLK_1_FLR_0_GLASS_FACADE_2
  6
ByLayer
 62
    1
370
   -1
100
AcDbDimension
  2
*D36
 10
103.9854009836778
 20
100.9086501617889
 30
0
 11
103.8054009836778
 21
102.108650161789
 31
0
 70
   32
  1
5.5
 71
    5
  3
Standard
 53
0
210
0
220
0
230
1
100
AcDbAlignedDimension
 13
103.9660001279242
 23
103.308650161789
 33
0
 14
103.9660001279242
 24
100.9086501617889
 34
0
 50
90
100
AcDbRotatedDimension
  0
DIMENSION
  5
37D
100
AcDbEntity
  8
BLK_1_FLR_0_GLASS_FACADE_2
  6
ByLayer
 62
    2
370
   -1
100
AcDbDimension
  2
*D37
 10
103.4645345711633
 20
101.305059670918
 30
0
 11
102.8645345711638
 21
101.485059670918
 31
0
 70
   33
  1
2.2
 71
    5
  3
Standard
 53
0
210
0
220
0
230
1
100
AcDbAlignedDimension
 13
102.2645345711644
 23
101.4284784926885
 33
0
 14
103.4645345711633
 24
101.4284784926885
 34
0
  0
LWPOLYLINE
  5
37E
100
AcDbEntity
  8
BLK_1_FLR_0_ROOM_1_MEZ_AREA_1
  6
ByLayer
 62
   25
370
   -1
100
AcDbPolyline
 90
    6
 70
    1
 43
0
 10
102.4716853593748
 20
104.1659004040941
 10
101.2716853593757
 20
104.1659004040938
 10
101.2716853593757
 20
101.7659004040937
 10
102.4716853593748
 20
101.765900404094
 10
102.4716853593748
 20
101.765900404094
 10
102.4716853593748
 20
101.765900404094
  0
DIMENSION
  5
37F
100
AcDbEntity
  8
BLK_1_FLR_0_ROOM_1_MEZ_AREA_1
  6
ByLayer
 62
   25
370
   -1
100
AcDbDimension
  2
*D38
 10
100.2500692917026
 20
101.7384431306642
 30
0
 11
100.0700692917026
 21
102.9384431306643
 31
0
 70
   32
  1
3
 71
    5
  3
Standard
 53
0
210
0
220
0
230
1
100
AcDbAlignedDimension
 13
100.230668435949
 23
104.1384431306643
 33
0
 14
100.230668435949
 24
101.7384431306642
 34
0
 50
90
100
AcDbRotatedDimension
  0
LWPOLYLINE
  5
380
100
AcDbEntity
  8
BLK_1_FLR_0_ROOM_1_MEZ_AREA_2
  6
ByLayer
 62
   25
370
   -1
100
AcDbPolyline
 90
    7
 70
    1
 43
0
 10
108.5751035230474
 20
104.2943934180661
 10
107.3751035230483
 20
104.2943934180658
 10
107.3751035230483
 20
101.8943934180657
 10
108.5751035230474
 20
101.894393418066
 10
108.5751035230474
 20
101.894393418066
 10
108.5751035230474
 20
101.894393418066
 10
108.5751035230474
 20
101.894393418066
  0
DIMENSION
  5
381
100
AcDbEntity
  8
BLK_1_FLR_0_ROOM_1_MEZ_AREA_2
  6
ByLayer
 62
   25
370
   -1
100
AcDbDimension
  2
*D39
 10
106.3534874553752
 20
101.8669361446363
 30
0
 11
106.1734874553752
 21
103.0669361446363
 31
0
 70
   32
  1
3
 71
    5
  3
Standard
 53
0
210
0
220
0
230
1
100
AcDbAlignedDimension
 13
106.3340865996216
 23
104.2669361446364
 33
0
 14
106.3340865996216
 24
101.8669361446363
 34
0
 50
90
100
AcDbRotatedDimension
  0
DIMENSION
  5
382
100
AcDbEntity
  8
BLK_1_FLR_0_ACROOM_1_MEZ_AREA_1
  6
ByLayer
 62
   25
370
   -1
100
AcDbDimension
  2
*D40
 10
103.3660248805249
 20
101.8669361446363
 30
0
 11
103.1860248805249
 21
103.0669361446363
 31
0
 70
   32
  1
3
 71
    5
  3
Standard
 53
0
210
0
220
0
230
1
100
AcDbAlignedDimension
 13
103.3466240247713
 23
104.2669361446364
 33
0
 14
103.3466240247713
 24
101.8669361446363
 34
0
 50
90
100
AcDbRotatedDimension
  0
LWPOLYLINE
  5
383
100
AcDbEntity
  8
BLK_1_FLR_0_ACROOM_1_MEZ_AREA_1
  6
ByLayer
 62
   25
370
   -1
100
AcDbPolyline
 90
    8
 70
    1
 43
0
 10
105.5876409481971
 20
104.2943934180661
 10
104.3876409481981
 20
104.2943934180658
 10
104.3876409481981
 20
101.8943934180657
 10
105.5876409481971
 20
101.894393418066
 10
105.5876409481971
 20
101.894393418066
 10
105.5876409481971
 20
101.894393418066
 10
105.5876409481971
 20
101.894393418066
 10
105.5876409481971
 20
101.894393418066
  0
ENDSEC
  0
SECTION
  2
OBJECTS
  0
DICTIONARY
  5
C
330
0
100
AcDbDictionary
281
    1
  3
ACAD_GROUP
350
D
  0
DICTIONARY
  5
D
330
C
100
AcDbDictionary
281
    1
  0
ENDSEC
  0
EOF
