<svg width="41" height="35" viewBox="-5 -2 51 40" fill="none" xmlns="http://www.w3.org/2000/svg">
<path d="M20.5013 8.70833V0.875H0.917969V36.125H40.0846V8.70833H20.5013ZM8.7513 32.2083H4.83464V28.2917H8.7513V32.2083ZM8.7513 24.375H4.83464V20.4583H8.7513V24.375ZM8.7513 16.5417H4.83464V12.625H8.7513V16.5417ZM8.7513 8.70833H4.83464V4.79167H8.7513V8.70833ZM16.5846 32.2083H12.668V28.2917H16.5846V32.2083ZM16.5846 24.375H12.668V20.4583H16.5846V24.375ZM16.5846 16.5417H12.668V12.625H16.5846V16.5417ZM16.5846 8.70833H12.668V4.79167H16.5846V8.70833ZM36.168 32.2083H20.5013V28.2917H24.418V24.375H20.5013V20.4583H24.418V16.5417H20.5013V12.625H36.168V32.2083ZM32.2513 16.5417H28.3346V20.4583H32.2513V16.5417ZM32.2513 24.375H28.3346V28.2917H32.2513V24.375Z" fill="white"/>
</svg>
