<svg xmlns="http://www.w3.org/2000/svg" width="20" height="20" viewBox="0 0 20 20">
    <g fill="none" fill-rule="evenodd">
        <path d="M0 0h20v20H0z"/>
        <path fill="#FE7A51" d="M10.036 3a.343.343 0 0 0-.223.083c-.572.495-1.534 1.16-2.545 1.69-1.01.529-2.084.915-2.818.915a.342.342 0 0 0-.338.3c-.65 5.354 1.574 8.91 5.779 11.947a.344.344 0 0 0 .4 0c4.204-3.037 6.429-6.593 5.778-11.947a.342.342 0 0 0-.338-.3c-.734 0-1.808-.386-2.818-.916-1.011-.53-1.973-1.194-2.545-1.689a.342.342 0 0 0-.278-.078.324.324 0 0 0-.054-.005z"/>
    </g>
</svg>
