<svg width="41" height="35" viewBox="-8 -2 51 40" fill="none" xmlns="http://www.w3.org/2000/svg">
<path d="M34.375 28.75V30.625C34.375 32.6875 32.6875 34.375 30.625 34.375H4.375C2.29375 34.375 0.625 32.6875 0.625 30.625V4.375C0.625 2.3125 2.29375 0.625 4.375 0.625H30.625C32.6875 0.625 34.375 2.3125 34.375 4.375V6.25H17.5C15.4187 6.25 13.75 7.9375 13.75 10V25C13.75 27.0625 15.4187 28.75 17.5 28.75H34.375ZM17.5 25H36.25V10H17.5V25ZM25 20.3125C23.4438 20.3125 22.1875 19.0562 22.1875 17.5C22.1875 15.9438 23.4438 14.6875 25 14.6875C26.5562 14.6875 27.8125 15.9438 27.8125 17.5C27.8125 19.0562 26.5562 20.3125 25 20.3125Z" fill="white"/>
</svg>
