<svg xmlns="http://www.w3.org/2000/svg" width="15" height="16" viewBox="0 0 15 16">
    <g fill="none" fill-rule="evenodd">
        <path d="M-5-4h24v24H-5z"/>
        <path fill="#5B5B5B" fill-rule="nonzero" d="M12 11.31c-.608 0-1.152.24-1.568.618L4.728 8.594c.04-.184.072-.37.072-.562a2.64 2.64 0 0 0-.072-.562l5.64-3.301c.432.401 1 .65 1.632.65 1.328 0 2.4-1.076 2.4-2.41A2.402 2.402 0 0 0 12 0a2.402 2.402 0 0 0-2.4 2.41c0 .192.032.377.072.562l-5.64 3.301c-.432-.402-1-.65-1.632-.65A2.402 2.402 0 0 0 0 8.032a2.402 2.402 0 0 0 2.4 2.409c.632 0 1.2-.25 1.632-.65l5.696 3.34c-.04.17-.064.346-.064.523A2.343 2.343 0 0 0 12 16a2.343 2.343 0 0 0 2.336-2.345A2.343 2.343 0 0 0 12 11.309z"/>
    </g>
</svg>
