<svg xmlns="http://www.w3.org/2000/svg" width="12" height="16" viewBox="0 0 12 16">
    <g fill="none" fill-rule="evenodd">
        <path d="M-6-4h24v24H-6z"/>
        <path fill="#656565" d="M5.778 0c2.765 3.578 5.778 8.249 5.778 10.293C11.556 13.44 8.965 16 5.778 16 2.59 16 0 13.44 0 10.293 0 8.25 3.013 3.578 5.778 0zm3.296 9.516c-.536 0-.971.382-.971.853 0 1.507-1.397 2.734-3.112 2.734-.536 0-.972.382-.972.853 0 .47.436.853.972.853 2.788 0 5.056-1.992 5.056-4.44 0-.47-.437-.853-.973-.853z"/>
    </g>
</svg>
