<svg width="24" height="24" viewBox="0 0 24 24" fill="none" xmlns="http://www.w3.org/2000/svg">
<path d="M12 24C5.38053 24 0 18.6143 0 12C0 5.38054 5.38053 1.90735e-06 12 1.90735e-06C18.6143 1.90735e-06 24 5.38054 24 12C24 18.6143 18.6143 24 12 24ZM16.3488 10.7852L11.3855 7.25251C11.1263 7.0701 10.8238 6.97889 10.5214 6.97889C10.291 6.97889 10.0557 7.03172 9.83976 7.14202C9.34054 7.40118 9.02857 7.91006 9.02857 8.46694L9.02877 15.5323C9.02877 16.0892 9.34076 16.5979 9.83996 16.8572C10.3344 17.1116 10.9296 17.0732 11.3857 16.7467L16.349 13.214C16.7426 12.9356 16.9778 12.4795 16.9778 11.9996C16.9776 11.5197 16.7426 11.0636 16.3489 10.7852L16.3488 10.7852Z" fill="white"/>
</svg>