<svg xmlns="http://www.w3.org/2000/svg" xmlns:xlink="http://www.w3.org/1999/xlink" width="11" height="16" viewBox="0 0 11 16">
    <defs>
        <path id="a" d="M17.909 4v1.927h-3.846c.27.426.47.9.587 1.407h3.259v1.927l-3.233.001a4.56 4.56 0 0 1-3.765 3.6L15.7 18.8 14.192 20l-6.164-7.646a1.062 1.062 0 0 1-.176-.32.93.93 0 0 1 1.237-1.222c.333.153.703.241 1.092.245a2.705 2.705 0 0 0 2.57-1.795L7 9.26V7.334h5.705a2.714 2.714 0 0 0-1.248-1.366.945.945 0 0 1-.068-.04L7 5.928V4h10.909z"/>
    </defs>
    <g fill="none" fill-rule="evenodd" transform="translate(-7 -4)">
        <path d="M0 0h24v24H0z"/>
        <use fill="#606163" xlink:href="#a"/>
    </g>
</svg>
