<svg xmlns="http://www.w3.org/2000/svg" width="18" height="16" viewBox="0 0 18 16">
    <g fill="none" fill-rule="evenodd">
        <path d="M-3-4h24v24H-3z"/>
        <path fill="#000" fill-opacity=".604" fill-rule="nonzero" d="M7.2 11.556v-.89H.909L.9 14.223C.9 15.21 1.701 16 2.7 16h12.6c.999 0 1.8-.791 1.8-1.778v-3.555h-6.3v.889H7.2zm9-8h-3.609V1.778L10.791 0h-3.6l-1.8 1.778v1.778H1.8c-.99 0-1.8.8-1.8 1.777V8c0 .987.801 1.778 1.8 1.778h5.4V8h3.6v1.778h5.4c.99 0 1.8-.8 1.8-1.778V5.333c0-.977-.81-1.777-1.8-1.777zm-5.4 0H7.2V1.778h3.6v1.778z"/>
    </g>
</svg>
